<svg width="43" height="37" viewBox="0 0 43 37" fill="none" xmlns="http://www.w3.org/2000/svg">
<path d="M17.9115 3.3082L2.00338 29.8655C1.6754 30.4335 1.50185 31.0775 1.50001 31.7334C1.49818 32.3893 1.66811 33.0342 1.99292 33.604C2.31772 34.1739 2.78607 34.6487 3.35136 34.9813C3.91666 35.314 4.55919 35.4928 5.21505 35.5H37.0312C37.6871 35.4928 38.3296 35.314 38.8949 34.9813C39.4602 34.6487 39.9286 34.1739 40.2534 33.604C40.5782 33.0342 40.7481 32.3893 40.7463 31.7334C40.7444 31.0775 40.5709 30.4335 40.2429 29.8655L24.3348 3.3082C24 2.75621 23.5285 2.29984 22.966 1.98312C22.4034 1.66639 21.7687 1.5 21.1231 1.5C20.4775 1.5 19.8428 1.66639 19.2803 1.98312C18.7177 2.29984 18.2463 2.75621 17.9115 3.3082Z" stroke="#77B900" stroke-width="3" stroke-linecap="round" stroke-linejoin="round"/>
<path d="M21.1238 12.9622V20.4749" stroke="#77B900" stroke-width="3" stroke-linecap="round" stroke-linejoin="round"/>
<path d="M21.1238 27.9874H21.1417" stroke="#77B900" stroke-width="3" stroke-linecap="round" stroke-linejoin="round"/>
</svg>
