<svg width="34" height="31" viewBox="0 0 34 31" fill="none" xmlns="http://www.w3.org/2000/svg">
<path d="M29.1 7.6333H4.56667C2.87299 7.6333 1.5 9.00629 1.5 10.7V26.0333C1.5 27.727 2.87299 29.1 4.56667 29.1H29.1C30.7937 29.1 32.1667 27.727 32.1667 26.0333V10.7C32.1667 9.00629 30.7937 7.6333 29.1 7.6333Z" stroke="#77B900" stroke-width="3" stroke-linecap="round" stroke-linejoin="round"/>
<path d="M22.9667 29.1V4.56667C22.9667 3.75334 22.6436 2.97332 22.0685 2.39821C21.4934 1.82309 20.7133 1.5 19.9 1.5H13.7667C12.9533 1.5 12.1733 1.82309 11.5982 2.39821C11.0231 2.97332 10.7 3.75334 10.7 4.56667V29.1" stroke="#77B900" stroke-width="3" stroke-linecap="round" stroke-linejoin="round"/>
</svg>
