<svg width="563" height="325" viewBox="0 0 563 325" fill="none" xmlns="http://www.w3.org/2000/svg">
<rect x="0.5" y="0.5" width="562" height="324" rx="62.5" fill="#131814" stroke="url(#paint0_linear_1296_1619)"/>
<path d="M34.832 31.528V32.632H31.196V35.26H34.196V36.316H31.196V40H29.828V31.528H34.832ZM35.8587 31.468C35.8587 31.236 35.9387 31.044 36.0987 30.892C36.2587 30.74 36.4707 30.664 36.7347 30.664C36.9987 30.664 37.2107 30.74 37.3707 30.892C37.5387 31.044 37.6227 31.236 37.6227 31.468C37.6227 31.7 37.5387 31.888 37.3707 32.032C37.2107 32.176 36.9987 32.248 36.7347 32.248C36.4707 32.248 36.2587 32.176 36.0987 32.032C35.9387 31.888 35.8587 31.7 35.8587 31.468ZM37.4187 33.388V40H36.0507V33.388H37.4187ZM42.7701 33.28C43.5381 33.28 44.1541 33.528 44.6181 34.024C45.0821 34.52 45.3141 35.228 45.3141 36.148V40H43.9461V36.292C43.9461 35.7 43.7941 35.244 43.4901 34.924C43.1861 34.596 42.7701 34.432 42.2421 34.432C41.6981 34.432 41.2621 34.608 40.9341 34.96C40.6061 35.304 40.4421 35.812 40.4421 36.484V40H39.0741V33.388H40.4421V34.84C40.6181 34.344 40.9141 33.96 41.3301 33.688C41.7461 33.416 42.2261 33.28 42.7701 33.28ZM50.8379 31.42C51.6219 31.42 52.3299 31.604 52.9619 31.972C53.6019 32.34 54.1019 32.856 54.4619 33.52C54.8299 34.176 55.0139 34.92 55.0139 35.752C55.0139 36.584 54.8299 37.332 54.4619 37.996C54.1019 38.652 53.6019 39.168 52.9619 39.544C52.3299 39.912 51.6219 40.096 50.8379 40.096C50.0459 40.096 49.3299 39.912 48.6899 39.544C48.0579 39.168 47.5579 38.652 47.1899 37.996C46.8219 37.332 46.6379 36.584 46.6379 35.752C46.6379 34.92 46.8219 34.176 47.1899 33.52C47.5579 32.856 48.0579 32.34 48.6899 31.972C49.3299 31.604 50.0459 31.42 50.8379 31.42ZM50.8379 32.692C50.2939 32.692 49.8099 32.816 49.3859 33.064C48.9619 33.312 48.6299 33.668 48.3899 34.132C48.1579 34.596 48.0419 35.136 48.0419 35.752C48.0419 36.368 48.1579 36.908 48.3899 37.372C48.6299 37.836 48.9619 38.192 49.3859 38.44C49.8099 38.688 50.2939 38.812 50.8379 38.812C51.3739 38.812 51.8499 38.688 52.2659 38.44C52.6899 38.192 53.0179 37.836 53.2499 37.372C53.4899 36.908 53.6099 36.368 53.6099 35.752C53.6099 35.136 53.4899 34.596 53.2499 34.132C53.0179 33.668 52.6899 33.312 52.2659 33.064C51.8499 32.816 51.3739 32.692 50.8379 32.692ZM60.1864 33.304C60.7624 33.304 61.2744 33.44 61.7224 33.712C62.1784 33.984 62.5344 34.376 62.7904 34.888C63.0464 35.4 63.1744 36 63.1744 36.688C63.1744 37.384 63.0464 37.988 62.7904 38.5C62.5344 39.012 62.1784 39.404 61.7224 39.676C61.2744 39.948 60.7624 40.084 60.1864 40.084C59.5864 40.084 59.0744 39.936 58.6504 39.64C58.2264 39.344 57.9304 38.952 57.7624 38.464V43.144H56.3944V33.388H57.7624V34.924C57.9304 34.436 58.2264 34.044 58.6504 33.748C59.0744 33.452 59.5864 33.304 60.1864 33.304ZM59.7664 34.504C59.3824 34.504 59.0384 34.596 58.7344 34.78C58.4304 34.956 58.1904 35.212 58.0144 35.548C57.8384 35.876 57.7504 36.256 57.7504 36.688C57.7504 37.128 57.8384 37.512 58.0144 37.84C58.1904 38.168 58.4304 38.424 58.7344 38.608C59.0384 38.784 59.3824 38.872 59.7664 38.872C60.3744 38.872 60.8624 38.68 61.2304 38.296C61.5984 37.904 61.7824 37.368 61.7824 36.688C61.7824 36.016 61.5984 35.484 61.2304 35.092C60.8624 34.7 60.3744 34.504 59.7664 34.504ZM66.6641 33.304C67.4401 33.304 68.0601 33.504 68.5241 33.904C68.9961 34.296 69.2841 34.824 69.3881 35.488H68.0921C68.0361 35.128 67.8801 34.84 67.6241 34.624C67.3761 34.4 67.0441 34.288 66.6281 34.288C66.2841 34.288 66.0161 34.372 65.8241 34.54C65.6401 34.7 65.5481 34.92 65.5481 35.2C65.5481 35.408 65.6161 35.576 65.7521 35.704C65.8881 35.832 66.0561 35.932 66.2561 36.004C66.4641 36.076 66.7561 36.156 67.1321 36.244C67.6281 36.356 68.0281 36.472 68.3321 36.592C68.6441 36.712 68.9081 36.904 69.1241 37.168C69.3481 37.424 69.4601 37.776 69.4601 38.224C69.4601 38.776 69.2481 39.224 68.8241 39.568C68.4081 39.912 67.8441 40.084 67.1321 40.084C66.3081 40.084 65.6401 39.892 65.1281 39.508C64.6241 39.124 64.3201 38.588 64.2161 37.9H65.5481C65.5881 38.26 65.7481 38.552 66.0281 38.776C66.3081 39 66.6761 39.112 67.1321 39.112C67.4601 39.112 67.7161 39.028 67.9001 38.86C68.0921 38.684 68.1881 38.464 68.1881 38.2C68.1881 37.968 68.1161 37.784 67.9721 37.648C67.8281 37.512 67.6481 37.408 67.4321 37.336C67.2161 37.256 66.9201 37.176 66.5441 37.096C66.0641 36.984 65.6721 36.872 65.3681 36.76C65.0721 36.648 64.8161 36.468 64.6001 36.22C64.3921 35.964 64.2881 35.62 64.2881 35.188C64.2881 34.628 64.4961 34.176 64.9121 33.832C65.3361 33.48 65.9201 33.304 66.6641 33.304ZM78.6964 38.164H75.1204L74.4724 40H73.0084L76.1284 31.66H77.7004L80.8084 40H79.3444L78.6964 38.164ZM78.3124 37.108L76.9084 33.148L75.5044 37.108H78.3124ZM87.9201 33.388V40H86.5401V38.56C86.3721 39.048 86.0801 39.428 85.6641 39.7C85.2481 39.964 84.7641 40.096 84.2121 40.096C83.4441 40.096 82.8281 39.848 82.3641 39.352C81.9001 38.856 81.6681 38.148 81.6681 37.228V33.388H83.0361V37.084C83.0361 37.684 83.1881 38.148 83.4921 38.476C83.7961 38.796 84.2121 38.956 84.7401 38.956C85.2841 38.956 85.7201 38.78 86.0481 38.428C86.3761 38.076 86.5401 37.564 86.5401 36.892V33.388H87.9201ZM92.8825 38.812V40H92.0425C91.3385 40 90.8025 39.832 90.4345 39.496C90.0745 39.152 89.8945 38.584 89.8945 37.792V34.552H88.9465V33.388H89.8945V31.744H91.2745V33.388H92.8705V34.552H91.2745V37.816C91.2745 38.192 91.3425 38.452 91.4785 38.596C91.6225 38.74 91.8705 38.812 92.2225 38.812H92.8825ZM97.1879 33.304C97.8279 33.304 98.4039 33.44 98.9159 33.712C99.4279 33.984 99.8279 34.376 100.116 34.888C100.404 35.4 100.548 36 100.548 36.688C100.548 37.384 100.404 37.988 100.116 38.5C99.8279 39.012 99.4279 39.404 98.9159 39.676C98.4039 39.948 97.8279 40.084 97.1879 40.084C96.5479 40.084 95.9719 39.948 95.4599 39.676C94.9559 39.404 94.5559 39.012 94.2599 38.5C93.9719 37.98 93.8279 37.376 93.8279 36.688C93.8279 36 93.9719 35.4 94.2599 34.888C94.5559 34.376 94.9559 33.984 95.4599 33.712C95.9719 33.44 96.5479 33.304 97.1879 33.304ZM97.1879 34.492C96.8359 34.492 96.5119 34.572 96.2159 34.732C95.9199 34.892 95.6799 35.14 95.4959 35.476C95.3199 35.804 95.2319 36.208 95.2319 36.688C95.2319 37.176 95.3199 37.584 95.4959 37.912C95.6799 38.24 95.9199 38.484 96.2159 38.644C96.5119 38.804 96.8359 38.884 97.1879 38.884C97.5399 38.884 97.8639 38.804 98.1599 38.644C98.4559 38.484 98.6919 38.24 98.8679 37.912C99.0519 37.584 99.1439 37.176 99.1439 36.688C99.1439 36.208 99.0519 35.804 98.8679 35.476C98.6919 35.14 98.4559 34.892 98.1599 34.732C97.8639 34.572 97.5399 34.492 97.1879 34.492ZM105.655 33.304C106.231 33.304 106.743 33.44 107.191 33.712C107.647 33.984 108.003 34.376 108.259 34.888C108.515 35.4 108.643 36 108.643 36.688C108.643 37.384 108.515 37.988 108.259 38.5C108.003 39.012 107.647 39.404 107.191 39.676C106.743 39.948 106.231 40.084 105.655 40.084C105.055 40.084 104.543 39.936 104.119 39.64C103.695 39.344 103.399 38.952 103.231 38.464V43.144H101.863V33.388H103.231V34.924C103.399 34.436 103.695 34.044 104.119 33.748C104.543 33.452 105.055 33.304 105.655 33.304ZM105.235 34.504C104.851 34.504 104.507 34.596 104.203 34.78C103.899 34.956 103.659 35.212 103.483 35.548C103.307 35.876 103.219 36.256 103.219 36.688C103.219 37.128 103.307 37.512 103.483 37.84C103.659 38.168 103.899 38.424 104.203 38.608C104.507 38.784 104.851 38.872 105.235 38.872C105.843 38.872 106.331 38.68 106.699 38.296C107.067 37.904 107.251 37.368 107.251 36.688C107.251 36.016 107.067 35.484 106.699 35.092C106.331 34.7 105.843 34.504 105.235 34.504ZM109.769 31.468C109.769 31.236 109.849 31.044 110.009 30.892C110.169 30.74 110.381 30.664 110.645 30.664C110.909 30.664 111.121 30.74 111.281 30.892C111.449 31.044 111.533 31.236 111.533 31.468C111.533 31.7 111.449 31.888 111.281 32.032C111.121 32.176 110.909 32.248 110.645 32.248C110.381 32.248 110.169 32.176 110.009 32.032C109.849 31.888 109.769 31.7 109.769 31.468ZM111.329 33.388V40H109.961V33.388H111.329ZM114.352 31.12V40H112.984V31.12H114.352ZM119.032 33.304C119.672 33.304 120.248 33.44 120.76 33.712C121.272 33.984 121.672 34.376 121.96 34.888C122.248 35.4 122.392 36 122.392 36.688C122.392 37.384 122.248 37.988 121.96 38.5C121.672 39.012 121.272 39.404 120.76 39.676C120.248 39.948 119.672 40.084 119.032 40.084C118.392 40.084 117.816 39.948 117.304 39.676C116.8 39.404 116.4 39.012 116.104 38.5C115.816 37.98 115.672 37.376 115.672 36.688C115.672 36 115.816 35.4 116.104 34.888C116.4 34.376 116.8 33.984 117.304 33.712C117.816 33.44 118.392 33.304 119.032 33.304ZM119.032 34.492C118.68 34.492 118.356 34.572 118.06 34.732C117.764 34.892 117.524 35.14 117.34 35.476C117.164 35.804 117.076 36.208 117.076 36.688C117.076 37.176 117.164 37.584 117.34 37.912C117.524 38.24 117.764 38.484 118.06 38.644C118.356 38.804 118.68 38.884 119.032 38.884C119.384 38.884 119.708 38.804 120.004 38.644C120.3 38.484 120.536 38.24 120.712 37.912C120.896 37.584 120.988 37.176 120.988 36.688C120.988 36.208 120.896 35.804 120.712 35.476C120.536 35.14 120.3 34.892 120.004 34.732C119.708 34.572 119.384 34.492 119.032 34.492ZM127.031 38.812V40H126.191C125.487 40 124.951 39.832 124.583 39.496C124.223 39.152 124.043 38.584 124.043 37.792V34.552H123.095V33.388H124.043V31.744H125.423V33.388H127.019V34.552H125.423V37.816C125.423 38.192 125.491 38.452 125.627 38.596C125.771 38.74 126.019 38.812 126.371 38.812H127.031Z" fill="white"/>
<path d="M104.664 285.47H101.684L101.144 287H99.9237L102.524 280.05H103.834L106.424 287H105.204L104.664 285.47ZM104.344 284.59L103.174 281.29L102.004 284.59H104.344ZM116.21 279.94L114.45 287H113.05L111.56 281.54L110.07 287H108.67L106.91 279.94H108.16L109.38 285.68L110.93 279.94H112.19L113.74 285.68L114.96 279.94H116.21ZM121.871 285.12C121.871 285.467 121.788 285.79 121.621 286.09C121.454 286.383 121.201 286.62 120.861 286.8C120.521 286.98 120.104 287.07 119.611 287.07C119.131 287.07 118.701 286.987 118.321 286.82C117.941 286.647 117.638 286.407 117.411 286.1C117.184 285.793 117.054 285.44 117.021 285.04H118.241C118.274 285.347 118.404 285.61 118.631 285.83C118.864 286.05 119.174 286.16 119.561 286.16C119.908 286.16 120.174 286.067 120.361 285.88C120.554 285.693 120.651 285.453 120.651 285.16C120.651 284.907 120.581 284.7 120.441 284.54C120.301 284.373 120.128 284.243 119.921 284.15C119.714 284.057 119.431 283.95 119.071 283.83C118.631 283.69 118.271 283.55 117.991 283.41C117.718 283.27 117.484 283.067 117.291 282.8C117.098 282.533 117.001 282.183 117.001 281.75C117.001 281.37 117.094 281.037 117.281 280.75C117.468 280.463 117.734 280.243 118.081 280.09C118.428 279.93 118.828 279.85 119.281 279.85C120.001 279.85 120.571 280.023 120.991 280.37C121.418 280.717 121.661 281.17 121.721 281.73H120.491C120.444 281.463 120.318 281.237 120.111 281.05C119.911 280.857 119.634 280.76 119.281 280.76C118.961 280.76 118.704 280.843 118.511 281.01C118.318 281.17 118.221 281.403 118.221 281.71C118.221 281.95 118.288 282.15 118.421 282.31C118.554 282.463 118.721 282.587 118.921 282.68C119.128 282.767 119.408 282.87 119.761 282.99C120.208 283.13 120.571 283.273 120.851 283.42C121.138 283.56 121.378 283.767 121.571 284.04C121.771 284.313 121.871 284.673 121.871 285.12Z" fill="#7E7E7E"/>
<path d="M106.268 297.695H104.268V299.715H103.158V297.695H101.168V296.645H103.158V294.615H104.268V296.645H106.268V297.695ZM106.701 294.785V293.715H108.961V300.775H107.761V294.785H106.701ZM110.037 299.885C111.117 299.145 111.98 298.421 112.627 297.715C113.28 297.001 113.607 296.341 113.607 295.735C113.607 295.375 113.517 295.088 113.337 294.875C113.164 294.661 112.88 294.555 112.487 294.555C112.08 294.555 111.774 294.688 111.567 294.955C111.36 295.215 111.244 295.588 111.217 296.075H110.107C110.154 295.268 110.4 294.651 110.847 294.225C111.3 293.798 111.877 293.585 112.577 293.585C113.264 293.585 113.8 293.768 114.187 294.135C114.58 294.495 114.777 294.995 114.777 295.635C114.777 296.148 114.617 296.668 114.297 297.195C113.984 297.721 113.584 298.208 113.097 298.655C112.61 299.095 112.107 299.475 111.587 299.795H114.937V300.725H110.037V299.885ZM117.141 293.615C117.587 293.615 117.951 293.755 118.231 294.035C118.511 294.308 118.651 294.681 118.651 295.155C118.651 295.628 118.511 296.001 118.231 296.275C117.951 296.548 117.587 296.685 117.141 296.685C116.694 296.685 116.327 296.548 116.041 296.275C115.761 296.001 115.621 295.628 115.621 295.155C115.621 294.681 115.761 294.308 116.041 294.035C116.327 293.755 116.694 293.615 117.141 293.615ZM121.371 293.705L117.381 300.775H116.261L120.261 293.705H121.371ZM116.401 295.155C116.401 295.408 116.467 295.611 116.601 295.765C116.734 295.911 116.911 295.985 117.131 295.985C117.351 295.985 117.527 295.908 117.661 295.755C117.801 295.601 117.871 295.401 117.871 295.155C117.871 294.901 117.801 294.698 117.661 294.545C117.527 294.391 117.351 294.315 117.131 294.315C116.911 294.315 116.734 294.391 116.601 294.545C116.467 294.698 116.401 294.901 116.401 295.155ZM120.501 297.795C120.947 297.795 121.311 297.931 121.591 298.205C121.877 298.478 122.021 298.851 122.021 299.325C122.021 299.798 121.877 300.175 121.591 300.455C121.311 300.728 120.947 300.865 120.501 300.865C120.061 300.865 119.697 300.728 119.411 300.455C119.131 300.175 118.991 299.798 118.991 299.325C118.991 298.858 119.131 298.488 119.411 298.215C119.697 297.935 120.061 297.795 120.501 297.795ZM119.771 299.325C119.771 299.578 119.837 299.781 119.971 299.935C120.104 300.088 120.281 300.165 120.501 300.165C120.721 300.165 120.897 300.088 121.031 299.935C121.171 299.781 121.241 299.578 121.241 299.325C121.241 299.078 121.171 298.878 121.031 298.725C120.897 298.571 120.721 298.495 120.501 298.495C120.281 298.495 120.104 298.571 119.971 298.725C119.837 298.878 119.771 299.078 119.771 299.325Z" fill="#77B900"/>
<path d="M274.055 296.675V297.635H269.935V296.675H274.055ZM278.084 293.495C278.55 293.495 278.95 293.578 279.284 293.745C279.617 293.905 279.867 294.128 280.034 294.415C280.207 294.701 280.294 295.021 280.294 295.375C280.294 295.821 280.167 296.195 279.914 296.495C279.667 296.788 279.317 296.965 278.864 297.025V297.075C279.35 297.215 279.73 297.425 280.004 297.705C280.284 297.978 280.424 298.358 280.424 298.845C280.424 299.438 280.227 299.921 279.834 300.295C279.44 300.661 278.877 300.845 278.144 300.845C277.39 300.845 276.784 300.655 276.324 300.275C275.864 299.888 275.6 299.318 275.534 298.565H276.664C276.704 298.965 276.847 299.285 277.094 299.525C277.34 299.758 277.674 299.875 278.094 299.875C278.487 299.875 278.787 299.771 278.994 299.565C279.207 299.358 279.314 299.091 279.314 298.765C279.314 298.371 279.16 298.071 278.854 297.865C278.554 297.658 278.117 297.555 277.544 297.555H277.274V296.615H277.544C278.63 296.628 279.174 296.258 279.174 295.505C279.174 295.178 279.074 294.921 278.874 294.735C278.674 294.548 278.4 294.455 278.054 294.455C277.707 294.455 277.417 294.561 277.184 294.775C276.95 294.981 276.81 295.285 276.764 295.685H275.644C275.69 294.991 275.924 294.455 276.344 294.075C276.764 293.688 277.344 293.495 278.084 293.495ZM282.851 293.615C283.298 293.615 283.661 293.755 283.941 294.035C284.221 294.308 284.361 294.681 284.361 295.155C284.361 295.628 284.221 296.001 283.941 296.275C283.661 296.548 283.298 296.685 282.851 296.685C282.405 296.685 282.038 296.548 281.751 296.275C281.471 296.001 281.331 295.628 281.331 295.155C281.331 294.681 281.471 294.308 281.751 294.035C282.038 293.755 282.405 293.615 282.851 293.615ZM287.081 293.705L283.091 300.775H281.971L285.971 293.705H287.081ZM282.111 295.155C282.111 295.408 282.178 295.611 282.311 295.765C282.445 295.911 282.621 295.985 282.841 295.985C283.061 295.985 283.238 295.908 283.371 295.755C283.511 295.601 283.581 295.401 283.581 295.155C283.581 294.901 283.511 294.698 283.371 294.545C283.238 294.391 283.061 294.315 282.841 294.315C282.621 294.315 282.445 294.391 282.311 294.545C282.178 294.698 282.111 294.901 282.111 295.155ZM286.211 297.795C286.658 297.795 287.021 297.931 287.301 298.205C287.588 298.478 287.731 298.851 287.731 299.325C287.731 299.798 287.588 300.175 287.301 300.455C287.021 300.728 286.658 300.865 286.211 300.865C285.771 300.865 285.408 300.728 285.121 300.455C284.841 300.175 284.701 299.798 284.701 299.325C284.701 298.858 284.841 298.488 285.121 298.215C285.408 297.935 285.771 297.795 286.211 297.795ZM285.481 299.325C285.481 299.578 285.548 299.781 285.681 299.935C285.815 300.088 285.991 300.165 286.211 300.165C286.431 300.165 286.608 300.088 286.741 299.935C286.881 299.781 286.951 299.578 286.951 299.325C286.951 299.078 286.881 298.878 286.741 298.725C286.608 298.571 286.431 298.495 286.211 298.495C285.991 298.495 285.815 298.571 285.681 298.725C285.548 298.878 285.481 299.078 285.481 299.325Z" fill="#B90003"/>
<path d="M264.632 285.47H261.652L261.112 287H259.892L262.492 280.05H263.802L266.392 287H265.172L264.632 285.47ZM264.312 284.59L263.142 281.29L261.972 284.59H264.312ZM268.239 286.07H271.669V287H266.969V286.11L270.329 280.87H267.039V279.94H271.619V280.83L268.239 286.07ZM273.866 279.94V284.13C273.866 284.757 274.003 285.223 274.276 285.53C274.556 285.837 274.946 285.99 275.446 285.99C275.939 285.99 276.323 285.837 276.596 285.53C276.876 285.223 277.016 284.757 277.016 284.13V279.94H278.156V284.13C278.156 285.097 277.906 285.83 277.406 286.33C276.906 286.823 276.246 287.07 275.426 287.07C274.613 287.07 273.959 286.823 273.466 286.33C272.973 285.83 272.726 285.097 272.726 284.13V279.94H273.866ZM283.195 287L281.435 284.18H280.625V287H279.485V279.94H281.975C282.782 279.94 283.392 280.137 283.805 280.53C284.225 280.923 284.435 281.443 284.435 282.09C284.435 282.643 284.278 283.097 283.965 283.45C283.658 283.803 283.212 284.03 282.625 284.13L284.475 287H283.195ZM280.625 283.37H281.885C282.805 283.37 283.265 282.963 283.265 282.15C283.265 281.763 283.152 281.463 282.925 281.25C282.705 281.03 282.358 280.92 281.885 280.92H280.625V283.37ZM286.601 280.86V283H289.201V283.88H286.601V286.07H289.501V287H285.461V279.94H289.501V280.86H286.601Z" fill="#7E7E7E"/>
<path d="M440.591 297.695H438.591V299.715H437.481V297.695H435.491V296.645H437.481V294.615H438.591V296.645H440.591V297.695ZM441.594 295.355C441.594 295.008 441.687 294.691 441.874 294.405C442.06 294.118 442.337 293.888 442.704 293.715C443.077 293.541 443.524 293.455 444.044 293.455C444.564 293.455 445.007 293.541 445.374 293.715C445.747 293.888 446.027 294.118 446.214 294.405C446.407 294.691 446.504 295.008 446.504 295.355C446.504 295.741 446.4 296.075 446.194 296.355C445.994 296.635 445.694 296.838 445.294 296.965C445.74 297.105 446.084 297.331 446.324 297.645C446.564 297.951 446.684 298.328 446.684 298.775C446.684 299.461 446.44 299.998 445.954 300.385C445.467 300.765 444.83 300.955 444.044 300.955C443.257 300.955 442.62 300.765 442.134 300.385C441.654 299.998 441.414 299.461 441.414 298.775C441.414 298.328 441.534 297.951 441.774 297.645C442.014 297.331 442.357 297.105 442.804 296.965C442.404 296.838 442.1 296.635 441.894 296.355C441.694 296.075 441.594 295.741 441.594 295.355ZM442.724 295.535C442.724 295.895 442.84 296.175 443.074 296.375C443.314 296.568 443.637 296.665 444.044 296.665C444.45 296.665 444.774 296.568 445.014 296.375C445.254 296.175 445.374 295.895 445.374 295.535C445.374 295.175 445.25 294.895 445.004 294.695C444.764 294.495 444.444 294.395 444.044 294.395C443.644 294.395 443.324 294.495 443.084 294.695C442.844 294.895 442.724 295.175 442.724 295.535ZM442.524 298.715C442.524 299.121 442.66 299.441 442.934 299.675C443.207 299.901 443.577 300.015 444.044 300.015C444.51 300.015 444.88 299.901 445.154 299.675C445.427 299.441 445.564 299.121 445.564 298.715C445.564 298.301 445.42 297.991 445.134 297.785C444.854 297.571 444.49 297.465 444.044 297.465C443.604 297.465 443.24 297.571 442.954 297.785C442.667 297.998 442.524 298.308 442.524 298.715ZM449.032 293.615C449.479 293.615 449.842 293.755 450.122 294.035C450.402 294.308 450.542 294.681 450.542 295.155C450.542 295.628 450.402 296.001 450.122 296.275C449.842 296.548 449.479 296.685 449.032 296.685C448.586 296.685 448.219 296.548 447.932 296.275C447.652 296.001 447.512 295.628 447.512 295.155C447.512 294.681 447.652 294.308 447.932 294.035C448.219 293.755 448.586 293.615 449.032 293.615ZM453.262 293.705L449.272 300.775H448.152L452.152 293.705H453.262ZM448.292 295.155C448.292 295.408 448.359 295.611 448.492 295.765C448.626 295.911 448.802 295.985 449.022 295.985C449.242 295.985 449.419 295.908 449.552 295.755C449.692 295.601 449.762 295.401 449.762 295.155C449.762 294.901 449.692 294.698 449.552 294.545C449.419 294.391 449.242 294.315 449.022 294.315C448.802 294.315 448.626 294.391 448.492 294.545C448.359 294.698 448.292 294.901 448.292 295.155ZM452.392 297.795C452.839 297.795 453.202 297.931 453.482 298.205C453.769 298.478 453.912 298.851 453.912 299.325C453.912 299.798 453.769 300.175 453.482 300.455C453.202 300.728 452.839 300.865 452.392 300.865C451.952 300.865 451.589 300.728 451.302 300.455C451.022 300.175 450.882 299.798 450.882 299.325C450.882 298.858 451.022 298.488 451.302 298.215C451.589 297.935 451.952 297.795 452.392 297.795ZM451.662 299.325C451.662 299.578 451.729 299.781 451.862 299.935C451.996 300.088 452.172 300.165 452.392 300.165C452.612 300.165 452.789 300.088 452.922 299.935C453.062 299.781 453.132 299.578 453.132 299.325C453.132 299.078 453.062 298.878 452.922 298.725C452.789 298.571 452.612 298.495 452.392 298.495C452.172 298.495 451.996 298.571 451.862 298.725C451.729 298.878 451.662 299.078 451.662 299.325Z" fill="#77B900"/>
<path d="M436.456 279.88C437.296 279.88 437.996 280.087 438.556 280.5C439.116 280.913 439.486 281.477 439.666 282.19H438.466C438.313 281.81 438.059 281.507 437.706 281.28C437.359 281.053 436.946 280.94 436.466 280.94C436.026 280.94 435.629 281.043 435.276 281.25C434.929 281.457 434.656 281.75 434.456 282.13C434.263 282.51 434.166 282.957 434.166 283.47C434.166 284.01 434.266 284.473 434.466 284.86C434.666 285.247 434.946 285.543 435.306 285.75C435.673 285.95 436.096 286.05 436.576 286.05C437.163 286.05 437.666 285.87 438.086 285.51C438.506 285.143 438.759 284.643 438.846 284.01H436.256V283.17H439.806V284.26C439.726 284.78 439.539 285.253 439.246 285.68C438.959 286.1 438.576 286.437 438.096 286.69C437.623 286.943 437.079 287.07 436.466 287.07C435.779 287.07 435.173 286.917 434.646 286.61C434.119 286.303 433.713 285.88 433.426 285.34C433.139 284.793 432.996 284.17 432.996 283.47C432.996 282.77 433.139 282.15 433.426 281.61C433.713 281.063 434.116 280.64 434.636 280.34C435.163 280.033 435.769 279.88 436.456 279.88ZM444.11 279.87C444.977 279.87 445.697 280.09 446.27 280.53C446.844 280.97 447.23 281.567 447.43 282.32H446.22C446.054 281.893 445.787 281.557 445.42 281.31C445.06 281.057 444.617 280.93 444.09 280.93C443.67 280.93 443.294 281.033 442.96 281.24C442.634 281.447 442.374 281.743 442.18 282.13C441.994 282.51 441.9 282.957 441.9 283.47C441.9 283.977 441.994 284.423 442.18 284.81C442.374 285.19 442.634 285.483 442.96 285.69C443.294 285.897 443.67 286 444.09 286C444.617 286 445.06 285.877 445.42 285.63C445.787 285.377 446.054 285.04 446.22 284.62H447.43C447.23 285.373 446.844 285.97 446.27 286.41C445.697 286.843 444.977 287.06 444.11 287.06C443.444 287.06 442.854 286.91 442.34 286.61C441.827 286.303 441.43 285.88 441.15 285.34C440.87 284.793 440.73 284.17 440.73 283.47C440.73 282.77 440.87 282.15 441.15 281.61C441.43 281.063 441.827 280.637 442.34 280.33C442.854 280.023 443.444 279.87 444.11 279.87ZM449.708 284.26V287H448.568V279.94H450.968C451.781 279.94 452.391 280.133 452.798 280.52C453.211 280.907 453.418 281.437 453.418 282.11C453.418 282.777 453.208 283.303 452.788 283.69C452.368 284.07 451.761 284.26 450.968 284.26H449.708ZM450.848 283.33C451.788 283.33 452.258 282.923 452.258 282.11C452.258 281.71 452.144 281.407 451.918 281.2C451.698 280.987 451.341 280.88 450.848 280.88H449.708V283.33H450.848Z" fill="#7E7E7E"/>
<rect x="17" y="66" width="529" height="200" rx="16" fill="#0A0F0B"/>
<path d="M64 220.5V227" stroke="#7E7E7E" stroke-linecap="round"/>
<path d="M58.712 231.476V232.3H59.64V232.844H58.688C58.6293 233.345 58.432 233.713 58.096 233.948C57.76 234.177 57.2213 234.292 56.48 234.292V234.908C56.48 235.223 56.5467 235.465 56.68 235.636C56.8187 235.801 57.0267 235.884 57.304 235.884C57.832 235.884 58.096 235.564 58.096 234.924H58.952C58.936 235.447 58.7893 235.855 58.512 236.148C58.24 236.436 57.8507 236.58 57.344 236.58C56.784 236.58 56.3573 236.431 56.064 236.132C55.7707 235.828 55.624 235.383 55.624 234.796V233.684C56.2267 233.684 56.6747 233.663 56.968 233.62C57.2667 233.577 57.4773 233.5 57.6 233.388C57.728 233.271 57.8053 233.089 57.832 232.844H55.392V232.3H57.848V231.476H55.392V230.852H59.64V231.476H58.712ZM60.9194 235.756C60.5994 235.244 60.4394 234.537 60.4394 233.636C60.4394 232.74 60.5994 232.039 60.9194 231.532C61.2394 231.025 61.7728 230.772 62.5194 230.772C63.2661 230.772 63.7994 231.028 64.1194 231.54C64.4394 232.047 64.5994 232.745 64.5994 233.636C64.5994 234.532 64.4394 235.236 64.1194 235.748C63.7994 236.26 63.2661 236.516 62.5194 236.516C61.7728 236.516 61.2394 236.263 60.9194 235.756ZM63.4474 235.132C63.6074 234.785 63.6874 234.287 63.6874 233.636C63.6874 232.996 63.6074 232.505 63.4474 232.164C63.2874 231.817 62.9781 231.644 62.5194 231.644C62.0554 231.644 61.7434 231.815 61.5834 232.156C61.4234 232.497 61.3434 232.991 61.3434 233.636C61.3434 234.287 61.4234 234.785 61.5834 235.132C61.7434 235.479 62.0554 235.652 62.5194 235.652C62.9781 235.652 63.2874 235.479 63.4474 235.132ZM68.0558 236.5L66.4718 234.54V236.5H65.5598V230.58H66.4718V233.972L68.0398 232.092H69.1358L67.2158 234.284L69.1838 236.5H68.0558Z" fill="#7E7E7E"/>
<path d="M154 220.5V227" stroke="#7E7E7E" stroke-linecap="round"/>
<path d="M148.103 231.476V232.3H149.031V232.844H148.079C148.02 233.345 147.823 233.713 147.487 233.948C147.151 234.177 146.612 234.292 145.871 234.292V234.908C145.871 235.223 145.937 235.465 146.071 235.636C146.209 235.801 146.417 235.884 146.695 235.884C147.223 235.884 147.487 235.564 147.487 234.924H148.343C148.327 235.447 148.18 235.855 147.903 236.148C147.631 236.436 147.241 236.58 146.735 236.58C146.175 236.58 145.748 236.431 145.455 236.132C145.161 235.828 145.015 235.383 145.015 234.796V233.684C145.617 233.684 146.065 233.663 146.359 233.62C146.657 233.577 146.868 233.5 146.991 233.388C147.119 233.271 147.196 233.089 147.223 232.844H144.783V232.3H147.239V231.476H144.783V230.852H149.031V231.476H148.103ZM153.742 231.572H150.95V233.252C151.078 233.087 151.259 232.956 151.494 232.86C151.729 232.759 151.987 232.708 152.27 232.708C152.665 232.708 152.993 232.793 153.254 232.964C153.515 233.129 153.707 233.351 153.83 233.628C153.958 233.905 154.022 234.212 154.022 234.548C154.022 235.14 153.857 235.62 153.526 235.988C153.195 236.351 152.715 236.532 152.086 236.532C151.494 236.532 151.017 236.375 150.654 236.06C150.291 235.745 150.094 235.327 150.062 234.804H150.958C151.006 235.092 151.123 235.319 151.31 235.484C151.502 235.649 151.745 235.732 152.038 235.732C152.401 235.732 152.673 235.623 152.854 235.404C153.035 235.185 153.126 234.895 153.126 234.532C153.126 234.191 153.033 233.924 152.846 233.732C152.659 233.535 152.393 233.436 152.046 233.436C151.801 233.436 151.585 233.489 151.398 233.596C151.217 233.703 151.083 233.844 150.998 234.02H150.11V230.764H153.742V231.572ZM155.302 235.756C154.982 235.244 154.822 234.537 154.822 233.636C154.822 232.74 154.982 232.039 155.302 231.532C155.622 231.025 156.156 230.772 156.902 230.772C157.649 230.772 158.182 231.028 158.502 231.54C158.822 232.047 158.982 232.745 158.982 233.636C158.982 234.532 158.822 235.236 158.502 235.748C158.182 236.26 157.649 236.516 156.902 236.516C156.156 236.516 155.622 236.263 155.302 235.756ZM157.83 235.132C157.99 234.785 158.07 234.287 158.07 233.636C158.07 232.996 157.99 232.505 157.83 232.164C157.67 231.817 157.361 231.644 156.902 231.644C156.438 231.644 156.126 231.815 155.966 232.156C155.806 232.497 155.726 232.991 155.726 233.636C155.726 234.287 155.806 234.785 155.966 235.132C156.126 235.479 156.438 235.652 156.902 235.652C157.361 235.652 157.67 235.479 157.83 235.132ZM162.439 236.5L160.855 234.54V236.5H159.943V230.58H160.855V233.972L162.423 232.092H163.519L161.599 234.284L163.567 236.5H162.439Z" fill="#7E7E7E"/>
<path d="M249 220.5V227" stroke="#7E7E7E" stroke-linecap="round"/>
<path d="M241.88 231.476V232.3H242.808V232.844H241.856C241.797 233.345 241.6 233.713 241.264 233.948C240.928 234.177 240.389 234.292 239.648 234.292V234.908C239.648 235.223 239.715 235.465 239.848 235.636C239.987 235.801 240.195 235.884 240.472 235.884C241 235.884 241.264 235.564 241.264 234.924H242.12C242.104 235.447 241.957 235.855 241.68 236.148C241.408 236.436 241.019 236.58 240.512 236.58C239.952 236.58 239.525 236.431 239.232 236.132C238.939 235.828 238.792 235.383 238.792 234.796V233.684C239.395 233.684 239.843 233.663 240.136 233.62C240.435 233.577 240.645 233.5 240.768 233.388C240.896 233.271 240.973 233.089 241 232.844H238.56V232.3H241.016V231.476H238.56V230.852H242.808V231.476H241.88ZM243.295 231.708V230.852H245.103V236.5H244.143V231.708H243.295ZM246.541 235.756C246.221 235.244 246.061 234.537 246.061 233.636C246.061 232.74 246.221 232.039 246.541 231.532C246.861 231.025 247.394 230.772 248.141 230.772C248.887 230.772 249.421 231.028 249.741 231.54C250.061 232.047 250.221 232.745 250.221 233.636C250.221 234.532 250.061 235.236 249.741 235.748C249.421 236.26 248.887 236.516 248.141 236.516C247.394 236.516 246.861 236.263 246.541 235.756ZM249.069 235.132C249.229 234.785 249.309 234.287 249.309 233.636C249.309 232.996 249.229 232.505 249.069 232.164C248.909 231.817 248.599 231.644 248.141 231.644C247.677 231.644 247.365 231.815 247.205 232.156C247.045 232.497 246.965 232.991 246.965 233.636C246.965 234.287 247.045 234.785 247.205 235.132C247.365 235.479 247.677 235.652 248.141 235.652C248.599 235.652 248.909 235.479 249.069 235.132ZM251.525 235.756C251.205 235.244 251.045 234.537 251.045 233.636C251.045 232.74 251.205 232.039 251.525 231.532C251.845 231.025 252.378 230.772 253.125 230.772C253.872 230.772 254.405 231.028 254.725 231.54C255.045 232.047 255.205 232.745 255.205 233.636C255.205 234.532 255.045 235.236 254.725 235.748C254.405 236.26 253.872 236.516 253.125 236.516C252.378 236.516 251.845 236.263 251.525 235.756ZM254.053 235.132C254.213 234.785 254.293 234.287 254.293 233.636C254.293 232.996 254.213 232.505 254.053 232.164C253.893 231.817 253.584 231.644 253.125 231.644C252.661 231.644 252.349 231.815 252.189 232.156C252.029 232.497 251.949 232.991 251.949 233.636C251.949 234.287 252.029 234.785 252.189 235.132C252.349 235.479 252.661 235.652 253.125 235.652C253.584 235.652 253.893 235.479 254.053 235.132ZM258.661 236.5L257.077 234.54V236.5H256.165V230.58H257.077V233.972L258.645 232.092H259.741L257.821 234.284L259.789 236.5H258.661Z" fill="#7E7E7E"/>
<path d="M345 220.5V227" stroke="#7E7E7E" stroke-linecap="round"/>
<path d="M337.876 231.476V232.3H338.804V232.844H337.852C337.793 233.345 337.596 233.713 337.26 233.948C336.924 234.177 336.385 234.292 335.644 234.292V234.908C335.644 235.223 335.711 235.465 335.844 235.636C335.983 235.801 336.191 235.884 336.468 235.884C336.996 235.884 337.26 235.564 337.26 234.924H338.116C338.1 235.447 337.953 235.855 337.676 236.148C337.404 236.436 337.015 236.58 336.508 236.58C335.948 236.58 335.521 236.431 335.228 236.132C334.935 235.828 334.788 235.383 334.788 234.796V233.684C335.391 233.684 335.839 233.663 336.132 233.62C336.431 233.577 336.641 233.5 336.764 233.388C336.892 233.271 336.969 233.089 336.996 232.844H334.556V232.3H337.012V231.476H334.556V230.852H338.804V231.476H337.876ZM339.292 231.708V230.852H341.1V236.5H340.14V231.708H339.292ZM345.969 231.572H343.177V233.252C343.305 233.087 343.486 232.956 343.721 232.86C343.955 232.759 344.214 232.708 344.497 232.708C344.891 232.708 345.219 232.793 345.481 232.964C345.742 233.129 345.934 233.351 346.057 233.628C346.185 233.905 346.249 234.212 346.249 234.548C346.249 235.14 346.083 235.62 345.753 235.988C345.422 236.351 344.942 236.532 344.313 236.532C343.721 236.532 343.243 236.375 342.881 236.06C342.518 235.745 342.321 235.327 342.289 234.804H343.185C343.233 235.092 343.35 235.319 343.537 235.484C343.729 235.649 343.971 235.732 344.265 235.732C344.627 235.732 344.899 235.623 345.081 235.404C345.262 235.185 345.353 234.895 345.353 234.532C345.353 234.191 345.259 233.924 345.073 233.732C344.886 233.535 344.619 233.436 344.273 233.436C344.027 233.436 343.811 233.489 343.625 233.596C343.443 233.703 343.31 233.844 343.225 234.02H342.337V230.764H345.969V231.572ZM347.529 235.756C347.209 235.244 347.049 234.537 347.049 233.636C347.049 232.74 347.209 232.039 347.529 231.532C347.849 231.025 348.382 230.772 349.129 230.772C349.875 230.772 350.409 231.028 350.729 231.54C351.049 232.047 351.209 232.745 351.209 233.636C351.209 234.532 351.049 235.236 350.729 235.748C350.409 236.26 349.875 236.516 349.129 236.516C348.382 236.516 347.849 236.263 347.529 235.756ZM350.057 235.132C350.217 234.785 350.297 234.287 350.297 233.636C350.297 232.996 350.217 232.505 350.057 232.164C349.897 231.817 349.587 231.644 349.129 231.644C348.665 231.644 348.353 231.815 348.193 232.156C348.033 232.497 347.953 232.991 347.953 233.636C347.953 234.287 348.033 234.785 348.193 235.132C348.353 235.479 348.665 235.652 349.129 235.652C349.587 235.652 349.897 235.479 350.057 235.132ZM354.665 236.5L353.081 234.54V236.5H352.169V230.58H353.081V233.972L354.649 232.092H355.745L353.825 234.284L355.793 236.5H354.665Z" fill="#7E7E7E"/>
<path d="M442 220.5V227" stroke="#7E7E7E" stroke-linecap="round"/>
<path d="M433.837 231.476V232.3H434.765V232.844H433.813C433.754 233.345 433.557 233.713 433.221 233.948C432.885 234.177 432.346 234.292 431.605 234.292V234.908C431.605 235.223 431.672 235.465 431.805 235.636C431.944 235.801 432.152 235.884 432.429 235.884C432.957 235.884 433.221 235.564 433.221 234.924H434.077C434.061 235.447 433.914 235.855 433.637 236.148C433.365 236.436 432.976 236.58 432.469 236.58C431.909 236.58 431.482 236.431 431.189 236.132C430.896 235.828 430.749 235.383 430.749 234.796V233.684C431.352 233.684 431.8 233.663 432.093 233.62C432.392 233.577 432.602 233.5 432.725 233.388C432.853 233.271 432.93 233.089 432.957 232.844H430.517V232.3H432.973V231.476H430.517V230.852H434.765V231.476H433.837ZM435.468 235.788C436.332 235.196 437.023 234.617 437.54 234.052C438.063 233.481 438.324 232.953 438.324 232.468C438.324 232.18 438.252 231.951 438.108 231.78C437.97 231.609 437.743 231.524 437.428 231.524C437.103 231.524 436.858 231.631 436.692 231.844C436.527 232.052 436.434 232.351 436.412 232.74H435.524C435.562 232.095 435.759 231.601 436.116 231.26C436.479 230.919 436.94 230.748 437.5 230.748C438.05 230.748 438.479 230.895 438.788 231.188C439.103 231.476 439.26 231.876 439.26 232.388C439.26 232.799 439.132 233.215 438.876 233.636C438.626 234.057 438.306 234.447 437.916 234.804C437.527 235.156 437.124 235.46 436.708 235.716H439.388V236.46H435.468V235.788ZM440.584 235.756C440.264 235.244 440.104 234.537 440.104 233.636C440.104 232.74 440.264 232.039 440.584 231.532C440.904 231.025 441.437 230.772 442.184 230.772C442.93 230.772 443.464 231.028 443.784 231.54C444.104 232.047 444.264 232.745 444.264 233.636C444.264 234.532 444.104 235.236 443.784 235.748C443.464 236.26 442.93 236.516 442.184 236.516C441.437 236.516 440.904 236.263 440.584 235.756ZM443.112 235.132C443.272 234.785 443.352 234.287 443.352 233.636C443.352 232.996 443.272 232.505 443.112 232.164C442.952 231.817 442.642 231.644 442.184 231.644C441.72 231.644 441.408 231.815 441.248 232.156C441.088 232.497 441.008 232.991 441.008 233.636C441.008 234.287 441.088 234.785 441.248 235.132C441.408 235.479 441.72 235.652 442.184 235.652C442.642 235.652 442.952 235.479 443.112 235.132ZM445.568 235.756C445.248 235.244 445.088 234.537 445.088 233.636C445.088 232.74 445.248 232.039 445.568 231.532C445.888 231.025 446.421 230.772 447.168 230.772C447.915 230.772 448.448 231.028 448.768 231.54C449.088 232.047 449.248 232.745 449.248 233.636C449.248 234.532 449.088 235.236 448.768 235.748C448.448 236.26 447.915 236.516 447.168 236.516C446.421 236.516 445.888 236.263 445.568 235.756ZM448.096 235.132C448.256 234.785 448.336 234.287 448.336 233.636C448.336 232.996 448.256 232.505 448.096 232.164C447.936 231.817 447.627 231.644 447.168 231.644C446.704 231.644 446.392 231.815 446.232 232.156C446.072 232.497 445.992 232.991 445.992 233.636C445.992 234.287 446.072 234.785 446.232 235.132C446.392 235.479 446.704 235.652 447.168 235.652C447.627 235.652 447.936 235.479 448.096 235.132ZM452.704 236.5L451.12 234.54V236.5H450.208V230.58H451.12V233.972L452.688 232.092H453.784L451.864 234.284L453.832 236.5H452.704Z" fill="#7E7E7E"/>
<path d="M63.7422 98.344H478.543C480.752 98.344 482.543 100.135 482.543 102.344V124.324C482.543 126.533 480.752 128.324 478.543 128.324H63.7422V98.344Z" fill="#77B900"/>
<path d="M63.7422 138.858H345.613C347.822 138.858 349.613 140.649 349.613 142.858V164.838C349.613 167.047 347.822 168.838 345.613 168.838H63.7422V138.858Z" fill="#77B900"/>
<path d="M63.7422 179.372H236.982C239.191 179.372 240.982 181.162 240.982 183.372V205.352C240.982 207.561 239.191 209.352 236.982 209.352H63.7422V179.372Z" fill="#77B900"/>
<path d="M63.7422 87V219.385C63.7422 219.662 63.966 219.885 64.2422 219.885H527.568" stroke="#7E7E7E" stroke-linecap="round"/>
<path d="M44.2075 191.229C44.8795 191.229 45.4395 191.394 45.8875 191.725C46.3355 192.055 46.6315 192.506 46.7755 193.077H45.8155C45.6929 192.773 45.4902 192.53 45.2075 192.349C44.9302 192.167 44.5995 192.077 44.2155 192.077C43.8635 192.077 43.5462 192.159 43.2635 192.325C42.9862 192.49 42.7675 192.725 42.6075 193.029C42.4529 193.333 42.3755 193.69 42.3755 194.101C42.3755 194.533 42.4555 194.903 42.6155 195.213C42.7755 195.522 42.9995 195.759 43.2875 195.925C43.5809 196.085 43.9195 196.165 44.3035 196.165C44.7729 196.165 45.1755 196.021 45.5115 195.733C45.8475 195.439 46.0502 195.039 46.1195 194.533H44.0475V193.861H46.8875V194.733C46.8235 195.149 46.6742 195.527 46.4395 195.869C46.2102 196.205 45.9035 196.474 45.5195 196.677C45.1409 196.879 44.7062 196.981 44.2155 196.981C43.6662 196.981 43.1809 196.858 42.7595 196.613C42.3382 196.367 42.0129 196.029 41.7835 195.597C41.5542 195.159 41.4395 194.661 41.4395 194.101C41.4395 193.541 41.5542 193.045 41.7835 192.613C42.0129 192.175 42.3355 191.837 42.7515 191.597C43.1729 191.351 43.6582 191.229 44.2075 191.229ZM50.331 191.221C51.0244 191.221 51.6004 191.397 52.059 191.749C52.5177 192.101 52.827 192.578 52.987 193.181H52.019C51.8857 192.839 51.6724 192.57 51.379 192.373C51.091 192.17 50.7364 192.069 50.315 192.069C49.979 192.069 49.6777 192.151 49.411 192.317C49.1497 192.482 48.9417 192.719 48.787 193.029C48.6377 193.333 48.563 193.69 48.563 194.101C48.563 194.506 48.6377 194.863 48.787 195.173C48.9417 195.477 49.1497 195.711 49.411 195.877C49.6777 196.042 49.979 196.125 50.315 196.125C50.7364 196.125 51.091 196.026 51.379 195.829C51.6724 195.626 51.8857 195.357 52.019 195.021H52.987C52.827 195.623 52.5177 196.101 52.059 196.453C51.6004 196.799 51.0244 196.973 50.331 196.973C49.7977 196.973 49.3257 196.853 48.915 196.613C48.5044 196.367 48.187 196.029 47.963 195.597C47.739 195.159 47.627 194.661 47.627 194.101C47.627 193.541 47.739 193.045 47.963 192.613C48.187 192.175 48.5044 191.834 48.915 191.589C49.3257 191.343 49.7977 191.221 50.331 191.221ZM54.809 194.733V196.925H53.897V191.277H55.817C56.4676 191.277 56.9556 191.431 57.281 191.741C57.6116 192.05 57.777 192.474 57.777 193.013C57.777 193.546 57.609 193.967 57.273 194.277C56.937 194.581 56.4516 194.733 55.817 194.733H54.809ZM55.721 193.989C56.473 193.989 56.849 193.663 56.849 193.013C56.849 192.693 56.7583 192.45 56.577 192.285C56.401 192.114 56.1156 192.029 55.721 192.029H54.809V193.989H55.721Z" fill="#7E7E7E"/>
<path d="M43.8978 114.701H41.5138L41.0818 115.925H40.1058L42.1858 110.365H43.2338L45.3058 115.925H44.3298L43.8978 114.701ZM43.6418 113.997L42.7058 111.357L41.7698 113.997H43.6418ZM53.1349 110.277L51.7269 115.925H50.6069L49.4149 111.557L48.2229 115.925H47.1029L45.6949 110.277H46.6949L47.6709 114.869L48.9109 110.277H49.9189L51.1589 114.869L52.1349 110.277H53.1349ZM57.6637 114.421C57.6637 114.698 57.597 114.957 57.4637 115.197C57.3303 115.431 57.1277 115.621 56.8557 115.765C56.5837 115.909 56.2503 115.981 55.8557 115.981C55.4717 115.981 55.1277 115.914 54.8237 115.781C54.5197 115.642 54.277 115.45 54.0957 115.205C53.9143 114.959 53.8103 114.677 53.7837 114.357H54.7597C54.7863 114.602 54.8903 114.813 55.0717 114.989C55.2583 115.165 55.5063 115.253 55.8157 115.253C56.093 115.253 56.3063 115.178 56.4557 115.029C56.6103 114.879 56.6877 114.687 56.6877 114.453C56.6877 114.25 56.6317 114.085 56.5197 113.957C56.4077 113.823 56.269 113.719 56.1037 113.645C55.9383 113.57 55.7117 113.485 55.4237 113.389C55.0717 113.277 54.7837 113.165 54.5597 113.053C54.341 112.941 54.1543 112.778 53.9997 112.565C53.845 112.351 53.7677 112.071 53.7677 111.725C53.7677 111.421 53.8423 111.154 53.9917 110.925C54.141 110.695 54.3543 110.519 54.6317 110.397C54.909 110.269 55.229 110.205 55.5917 110.205C56.1677 110.205 56.6237 110.343 56.9597 110.621C57.301 110.898 57.4957 111.261 57.5437 111.709H56.5597C56.5223 111.495 56.421 111.314 56.2557 111.165C56.0957 111.01 55.8743 110.933 55.5917 110.933C55.3357 110.933 55.1303 110.999 54.9757 111.133C54.821 111.261 54.7437 111.447 54.7437 111.693C54.7437 111.885 54.797 112.045 54.9037 112.173C55.0103 112.295 55.1437 112.394 55.3037 112.469C55.469 112.538 55.693 112.621 55.9757 112.717C56.333 112.829 56.6237 112.943 56.8477 113.061C57.077 113.173 57.269 113.338 57.4237 113.557C57.5837 113.775 57.6637 114.063 57.6637 114.421Z" fill="#7E7E7E"/>
<path d="M37.7962 155.701H35.4122L34.9802 156.925H34.0042L36.0842 151.365H37.1322L39.2042 156.925H38.2282L37.7962 155.701ZM37.5402 154.997L36.6042 152.357L35.6682 154.997H37.5402ZM40.6813 156.181H43.4253V156.925H39.6653V156.213L42.3533 152.021H39.7213V151.277H43.3853V151.989L40.6813 156.181ZM45.183 151.277V154.629C45.183 155.13 45.2924 155.503 45.511 155.749C45.735 155.994 46.047 156.117 46.447 156.117C46.8417 156.117 47.1484 155.994 47.367 155.749C47.591 155.503 47.703 155.13 47.703 154.629V151.277H48.615V154.629C48.615 155.402 48.415 155.989 48.015 156.389C47.615 156.783 47.087 156.981 46.431 156.981C45.7804 156.981 45.2577 156.783 44.863 156.389C44.4684 155.989 44.271 155.402 44.271 154.629V151.277H45.183ZM52.6462 156.925L51.2382 154.669H50.5902V156.925H49.6782V151.277H51.6702C52.3156 151.277 52.8036 151.434 53.1342 151.749C53.4702 152.063 53.6382 152.479 53.6382 152.997C53.6382 153.439 53.5129 153.802 53.2622 154.085C53.0169 154.367 52.6596 154.549 52.1902 154.629L53.6702 156.925H52.6462ZM50.5902 154.021H51.5982C52.3342 154.021 52.7022 153.695 52.7022 153.045C52.7022 152.735 52.6116 152.495 52.4302 152.325C52.2542 152.149 51.9769 152.061 51.5982 152.061H50.5902V154.021ZM55.3715 152.013V153.725H57.4515V154.429H55.3715V156.181H57.6915V156.925H54.4595V151.277H57.6915V152.013H55.3715Z" fill="#7E7E7E"/>
<path d="M63.7422 193.957H60.1688" stroke="#7E7E7E"/>
<path d="M63.7422 153.443H60.1688" stroke="#7E7E7E"/>
<path d="M63.7422 112.929H60.1688" stroke="#7E7E7E"/>
<defs>
<linearGradient id="paint0_linear_1296_1619" x1="281.5" y1="0" x2="281.5" y2="325" gradientUnits="userSpaceOnUse">
<stop stop-color="#0F1800"/>
<stop offset="1" stop-color="#77B900"/>
</linearGradient>
</defs>
</svg>
