<svg width="563" height="325" viewBox="0 0 563 325" fill="none" xmlns="http://www.w3.org/2000/svg">
<rect x="0.5" y="0.5" width="562" height="324" rx="62.5" fill="#131814" stroke="url(#paint0_linear_1290_1539)"/>
<path d="M35.396 36.744C35.396 37.16 35.296 37.548 35.096 37.908C34.896 38.26 34.592 38.544 34.184 38.76C33.776 38.976 33.276 39.084 32.684 39.084C32.108 39.084 31.592 38.984 31.136 38.784C30.68 38.576 30.316 38.288 30.044 37.92C29.772 37.552 29.616 37.128 29.576 36.648H31.04C31.08 37.016 31.236 37.332 31.508 37.596C31.788 37.86 32.16 37.992 32.624 37.992C33.04 37.992 33.36 37.88 33.584 37.656C33.816 37.432 33.932 37.144 33.932 36.792C33.932 36.488 33.848 36.24 33.68 36.048C33.512 35.848 33.304 35.692 33.056 35.58C32.808 35.468 32.468 35.34 32.036 35.196C31.508 35.028 31.076 34.86 30.74 34.692C30.412 34.524 30.132 34.28 29.9 33.96C29.668 33.64 29.552 33.22 29.552 32.7C29.552 32.244 29.664 31.844 29.888 31.5C30.112 31.156 30.432 30.892 30.848 30.708C31.264 30.516 31.744 30.42 32.288 30.42C33.152 30.42 33.836 30.628 34.34 31.044C34.852 31.46 35.144 32.004 35.216 32.676H33.74C33.684 32.356 33.532 32.084 33.284 31.86C33.044 31.628 32.712 31.512 32.288 31.512C31.904 31.512 31.596 31.612 31.364 31.812C31.132 32.004 31.016 32.284 31.016 32.652C31.016 32.94 31.096 33.18 31.256 33.372C31.416 33.556 31.616 33.704 31.856 33.816C32.104 33.92 32.44 34.044 32.864 34.188C33.4 34.356 33.836 34.528 34.172 34.704C34.516 34.872 34.804 35.12 35.036 35.448C35.276 35.776 35.396 36.208 35.396 36.744ZM40.5575 32.304C41.1335 32.304 41.6455 32.44 42.0935 32.712C42.5495 32.984 42.9055 33.376 43.1615 33.888C43.4175 34.4 43.5455 35 43.5455 35.688C43.5455 36.384 43.4175 36.988 43.1615 37.5C42.9055 38.012 42.5495 38.404 42.0935 38.676C41.6455 38.948 41.1335 39.084 40.5575 39.084C39.9575 39.084 39.4455 38.936 39.0215 38.64C38.5975 38.344 38.3015 37.952 38.1335 37.464V42.144H36.7655V32.388H38.1335V33.924C38.3015 33.436 38.5975 33.044 39.0215 32.748C39.4455 32.452 39.9575 32.304 40.5575 32.304ZM40.1375 33.504C39.7535 33.504 39.4095 33.596 39.1055 33.78C38.8015 33.956 38.5615 34.212 38.3855 34.548C38.2095 34.876 38.1215 35.256 38.1215 35.688C38.1215 36.128 38.2095 36.512 38.3855 36.84C38.5615 37.168 38.8015 37.424 39.1055 37.608C39.4095 37.784 39.7535 37.872 40.1375 37.872C40.7455 37.872 41.2335 37.68 41.6015 37.296C41.9695 36.904 42.1535 36.368 42.1535 35.688C42.1535 35.016 41.9695 34.484 41.6015 34.092C41.2335 33.7 40.7455 33.504 40.1375 33.504ZM51.0072 35.376C51.0072 35.6 50.9912 35.796 50.9592 35.964H45.8712C45.8952 36.644 46.0832 37.148 46.4352 37.476C46.7872 37.804 47.2232 37.968 47.7432 37.968C48.1992 37.968 48.5832 37.852 48.8952 37.62C49.2152 37.388 49.4112 37.08 49.4832 36.696H50.9472C50.8592 37.16 50.6752 37.572 50.3952 37.932C50.1152 38.292 49.7512 38.576 49.3032 38.784C48.8552 38.984 48.3552 39.084 47.8032 39.084C47.1632 39.084 46.5952 38.948 46.0992 38.676C45.6112 38.404 45.2272 38.012 44.9472 37.5C44.6672 36.988 44.5272 36.384 44.5272 35.688C44.5272 35 44.6672 34.4 44.9472 33.888C45.2272 33.376 45.6112 32.984 46.0992 32.712C46.5952 32.44 47.1632 32.304 47.8032 32.304C48.4512 32.304 49.0152 32.44 49.4952 32.712C49.9832 32.976 50.3552 33.344 50.6112 33.816C50.8752 34.28 51.0072 34.8 51.0072 35.376ZM49.6272 35.34C49.6432 34.908 49.5672 34.548 49.3992 34.26C49.2392 33.964 49.0152 33.748 48.7272 33.612C48.4472 33.468 48.1392 33.396 47.8032 33.396C47.2672 33.396 46.8192 33.56 46.4592 33.888C46.0992 34.216 45.9032 34.7 45.8712 35.34H49.6272ZM56.024 32.28C56.792 32.28 57.408 32.528 57.872 33.024C58.336 33.52 58.568 34.228 58.568 35.148V39H57.2V35.292C57.2 34.7 57.048 34.244 56.744 33.924C56.44 33.596 56.024 33.432 55.496 33.432C54.952 33.432 54.516 33.608 54.188 33.96C53.86 34.304 53.696 34.812 53.696 35.484V39H52.328V32.388H53.696V33.84C53.872 33.344 54.168 32.96 54.584 32.688C55 32.416 55.48 32.28 56.024 32.28ZM62.8198 32.304C63.4198 32.304 63.9318 32.452 64.3558 32.748C64.7798 33.044 65.0758 33.436 65.2438 33.924V30.12H66.6238V39H65.2438V37.464C65.0758 37.952 64.7798 38.344 64.3558 38.64C63.9318 38.936 63.4198 39.084 62.8198 39.084C62.2438 39.084 61.7278 38.948 61.2718 38.676C60.8238 38.404 60.4718 38.012 60.2158 37.5C59.9598 36.988 59.8318 36.384 59.8318 35.688C59.8318 35 59.9598 34.4 60.2158 33.888C60.4718 33.376 60.8238 32.984 61.2718 32.712C61.7278 32.44 62.2438 32.304 62.8198 32.304ZM63.2398 33.504C62.6318 33.504 62.1438 33.7 61.7758 34.092C61.4158 34.476 61.2358 35.008 61.2358 35.688C61.2358 36.368 61.4158 36.904 61.7758 37.296C62.1438 37.68 62.6318 37.872 63.2398 37.872C63.6238 37.872 63.9678 37.784 64.2718 37.608C64.5758 37.424 64.8158 37.168 64.9918 36.84C65.1678 36.512 65.2558 36.128 65.2558 35.688C65.2558 35.256 65.1678 34.876 64.9918 34.548C64.8158 34.212 64.5758 33.956 64.2718 33.78C63.9678 33.596 63.6238 33.504 63.2398 33.504ZM75.002 30.42C75.786 30.42 76.494 30.604 77.126 30.972C77.766 31.34 78.266 31.856 78.626 32.52C78.994 33.176 79.178 33.92 79.178 34.752C79.178 35.584 78.994 36.332 78.626 36.996C78.266 37.652 77.766 38.168 77.126 38.544C76.494 38.912 75.786 39.096 75.002 39.096C74.21 39.096 73.494 38.912 72.854 38.544C72.222 38.168 71.722 37.652 71.354 36.996C70.986 36.332 70.802 35.584 70.802 34.752C70.802 33.92 70.986 33.176 71.354 32.52C71.722 31.856 72.222 31.34 72.854 30.972C73.494 30.604 74.21 30.42 75.002 30.42ZM75.002 31.692C74.458 31.692 73.974 31.816 73.55 32.064C73.126 32.312 72.794 32.668 72.554 33.132C72.322 33.596 72.206 34.136 72.206 34.752C72.206 35.368 72.322 35.908 72.554 36.372C72.794 36.836 73.126 37.192 73.55 37.44C73.974 37.688 74.458 37.812 75.002 37.812C75.538 37.812 76.014 37.688 76.43 37.44C76.854 37.192 77.182 36.836 77.414 36.372C77.654 35.908 77.774 35.368 77.774 34.752C77.774 34.136 77.654 33.596 77.414 33.132C77.182 32.668 76.854 32.312 76.43 32.064C76.014 31.816 75.538 31.692 75.002 31.692ZM83.2705 37.584L85.1425 32.388H86.6065L84.0865 39H82.4305L79.9105 32.388H81.3745L83.2705 37.584ZM93.7572 35.376C93.7572 35.6 93.7412 35.796 93.7092 35.964H88.6212C88.6452 36.644 88.8332 37.148 89.1852 37.476C89.5372 37.804 89.9732 37.968 90.4932 37.968C90.9492 37.968 91.3332 37.852 91.6452 37.62C91.9652 37.388 92.1612 37.08 92.2332 36.696H93.6972C93.6092 37.16 93.4252 37.572 93.1452 37.932C92.8652 38.292 92.5012 38.576 92.0532 38.784C91.6052 38.984 91.1052 39.084 90.5532 39.084C89.9132 39.084 89.3452 38.948 88.8492 38.676C88.3612 38.404 87.9772 38.012 87.6972 37.5C87.4172 36.988 87.2772 36.384 87.2772 35.688C87.2772 35 87.4172 34.4 87.6972 33.888C87.9772 33.376 88.3612 32.984 88.8492 32.712C89.3452 32.44 89.9132 32.304 90.5532 32.304C91.2012 32.304 91.7652 32.44 92.2452 32.712C92.7332 32.976 93.1052 33.344 93.3612 33.816C93.6252 34.28 93.7572 34.8 93.7572 35.376ZM92.3772 35.34C92.3932 34.908 92.3172 34.548 92.1492 34.26C91.9892 33.964 91.7652 33.748 91.4772 33.612C91.1972 33.468 90.8892 33.396 90.5532 33.396C90.0172 33.396 89.5692 33.56 89.2092 33.888C88.8492 34.216 88.6532 34.7 88.6212 35.34H92.3772ZM96.446 33.684C96.67 33.252 96.99 32.912 97.406 32.664C97.822 32.408 98.302 32.28 98.846 32.28V33.768H98.438C97.838 33.768 97.354 33.916 96.986 34.212C96.626 34.5 96.446 34.98 96.446 35.652V39H95.078V32.388H96.446V33.684ZM108.131 30.528V31.632H105.767V39H104.387V31.632H102.035V30.528H108.131ZM108.96 30.468C108.96 30.236 109.04 30.044 109.2 29.892C109.36 29.74 109.572 29.664 109.836 29.664C110.1 29.664 110.312 29.74 110.472 29.892C110.64 30.044 110.724 30.236 110.724 30.468C110.724 30.7 110.64 30.888 110.472 31.032C110.312 31.176 110.1 31.248 109.836 31.248C109.572 31.248 109.36 31.176 109.2 31.032C109.04 30.888 108.96 30.7 108.96 30.468ZM110.52 32.388V39H109.152V32.388H110.52ZM120.444 32.28C121.228 32.28 121.852 32.528 122.316 33.024C122.788 33.52 123.024 34.228 123.024 35.148V39H121.656V35.292C121.656 34.716 121.512 34.272 121.224 33.96C120.936 33.64 120.54 33.48 120.036 33.48C119.5 33.48 119.072 33.652 118.752 33.996C118.44 34.332 118.284 34.828 118.284 35.484V39H116.916V35.292C116.916 34.716 116.772 34.272 116.484 33.96C116.196 33.64 115.8 33.48 115.296 33.48C114.76 33.48 114.332 33.652 114.012 33.996C113.7 34.332 113.544 34.828 113.544 35.484V39H112.176V32.388H113.544V33.768C113.712 33.288 113.992 32.92 114.384 32.664C114.776 32.408 115.236 32.28 115.764 32.28C116.316 32.28 116.792 32.416 117.192 32.688C117.6 32.96 117.896 33.352 118.08 33.864C118.272 33.368 118.58 32.98 119.004 32.7C119.428 32.42 119.908 32.28 120.444 32.28ZM130.765 35.376C130.765 35.6 130.749 35.796 130.717 35.964H125.629C125.653 36.644 125.841 37.148 126.193 37.476C126.545 37.804 126.981 37.968 127.501 37.968C127.957 37.968 128.341 37.852 128.653 37.62C128.973 37.388 129.169 37.08 129.241 36.696H130.705C130.617 37.16 130.433 37.572 130.153 37.932C129.873 38.292 129.509 38.576 129.061 38.784C128.613 38.984 128.113 39.084 127.561 39.084C126.921 39.084 126.353 38.948 125.857 38.676C125.369 38.404 124.985 38.012 124.705 37.5C124.425 36.988 124.285 36.384 124.285 35.688C124.285 35 124.425 34.4 124.705 33.888C124.985 33.376 125.369 32.984 125.857 32.712C126.353 32.44 126.921 32.304 127.561 32.304C128.209 32.304 128.773 32.44 129.253 32.712C129.741 32.976 130.113 33.344 130.369 33.816C130.633 34.28 130.765 34.8 130.765 35.376ZM129.385 35.34C129.401 34.908 129.325 34.548 129.157 34.26C128.997 33.964 128.773 33.748 128.485 33.612C128.205 33.468 127.897 33.396 127.561 33.396C127.025 33.396 126.577 33.56 126.217 33.888C125.857 34.216 125.661 34.7 125.629 35.34H129.385Z" fill="white"/>
<path d="M32.072 54.296C32.7653 54.296 33.3413 54.472 33.8 54.824C34.2587 55.176 34.568 55.6533 34.728 56.256H33.76C33.6267 55.9147 33.4133 55.6453 33.12 55.448C32.832 55.2453 32.4773 55.144 32.056 55.144C31.72 55.144 31.4187 55.2267 31.152 55.392C30.8907 55.5573 30.6827 55.7947 30.528 56.104C30.3787 56.408 30.304 56.7653 30.304 57.176C30.304 57.5813 30.3787 57.9387 30.528 58.248C30.6827 58.552 30.8907 58.7867 31.152 58.952C31.4187 59.1173 31.72 59.2 32.056 59.2C32.4773 59.2 32.832 59.1013 33.12 58.904C33.4133 58.7013 33.6267 58.432 33.76 58.096H34.728C34.568 58.6987 34.2587 59.176 33.8 59.528C33.3413 59.8747 32.7653 60.048 32.072 60.048C31.5387 60.048 31.0667 59.928 30.656 59.688C30.2453 59.4427 29.928 59.104 29.704 58.672C29.48 58.2347 29.368 57.736 29.368 57.176C29.368 56.616 29.48 56.12 29.704 55.688C29.928 55.2507 30.2453 54.9093 30.656 54.664C31.0667 54.4187 31.5387 54.296 32.072 54.296ZM39.7019 55.592V60H38.7819V59.04C38.6699 59.3653 38.4753 59.6187 38.1979 59.8C37.9206 59.976 37.5979 60.064 37.2299 60.064C36.7179 60.064 36.3073 59.8987 35.9979 59.568C35.6886 59.2373 35.5339 58.7653 35.5339 58.152V55.592H36.4459V58.056C36.4459 58.456 36.5473 58.7653 36.7499 58.984C36.9526 59.1973 37.2299 59.304 37.5819 59.304C37.9446 59.304 38.2353 59.1867 38.4539 58.952C38.6726 58.7173 38.7819 58.376 38.7819 57.928V55.592H39.7019ZM41.7062 56.456C41.8555 56.168 42.0689 55.9413 42.3462 55.776C42.6235 55.6053 42.9435 55.52 43.3062 55.52V56.512H43.0342C42.6342 56.512 42.3115 56.6107 42.0662 56.808C41.8262 57 41.7062 57.32 41.7062 57.768V60H40.7942V55.592H41.7062V56.456ZM44.9015 56.456C45.0508 56.168 45.2642 55.9413 45.5415 55.776C45.8188 55.6053 46.1388 55.52 46.5015 55.52V56.512H46.2295C45.8295 56.512 45.5068 56.6107 45.2615 56.808C45.0215 57 44.9015 57.32 44.9015 57.768V60H43.9895V55.592H44.9015V56.456ZM51.2808 57.584C51.2808 57.7333 51.2701 57.864 51.2488 57.976H47.8568C47.8728 58.4293 47.9981 58.7653 48.2328 58.984C48.4675 59.2027 48.7581 59.312 49.1048 59.312C49.4088 59.312 49.6648 59.2347 49.8728 59.08C50.0861 58.9253 50.2168 58.72 50.2648 58.464H51.2408C51.1821 58.7733 51.0595 59.048 50.8728 59.288C50.6861 59.528 50.4435 59.7173 50.1448 59.856C49.8461 59.9893 49.5128 60.056 49.1448 60.056C48.7181 60.056 48.3395 59.9653 48.0088 59.784C47.6835 59.6027 47.4275 59.3413 47.2408 59C47.0541 58.6587 46.9608 58.256 46.9608 57.792C46.9608 57.3333 47.0541 56.9333 47.2408 56.592C47.4275 56.2507 47.6835 55.9893 48.0088 55.808C48.3395 55.6267 48.7181 55.536 49.1448 55.536C49.5768 55.536 49.9528 55.6267 50.2728 55.808C50.5981 55.984 50.8461 56.2293 51.0168 56.544C51.1928 56.8533 51.2808 57.2 51.2808 57.584ZM50.3608 57.56C50.3715 57.272 50.3208 57.032 50.2088 56.84C50.1021 56.6427 49.9528 56.4987 49.7608 56.408C49.5741 56.312 49.3688 56.264 49.1448 56.264C48.7875 56.264 48.4888 56.3733 48.2488 56.592C48.0088 56.8107 47.8781 57.1333 47.8568 57.56H50.3608ZM54.6254 55.52C55.1374 55.52 55.548 55.6853 55.8574 56.016C56.1667 56.3467 56.3214 56.8187 56.3214 57.432V60H55.4094V57.528C55.4094 57.1333 55.308 56.8293 55.1054 56.616C54.9027 56.3973 54.6254 56.288 54.2734 56.288C53.9107 56.288 53.62 56.4053 53.4014 56.64C53.1827 56.8693 53.0734 57.208 53.0734 57.656V60H52.1614V55.592H53.0734V56.56C53.1907 56.2293 53.388 55.9733 53.6654 55.792C53.9427 55.6107 54.2627 55.52 54.6254 55.52ZM59.6039 59.208V60H59.0439C58.5746 60 58.2173 59.888 57.9719 59.664C57.7319 59.4347 57.6119 59.056 57.6119 58.528V56.368H56.9799V55.592H57.6119V54.496H58.5319V55.592H59.5959V56.368H58.5319V58.544C58.5319 58.7947 58.5773 58.968 58.6679 59.064C58.7639 59.16 58.9293 59.208 59.1639 59.208H59.6039ZM65.9653 54.352V55.088H64.3893V60H63.4693V55.088H61.9013V54.352H65.9653ZM66.5178 54.312C66.5178 54.1573 66.5711 54.0293 66.6778 53.928C66.7844 53.8267 66.9258 53.776 67.1018 53.776C67.2778 53.776 67.4191 53.8267 67.5258 53.928C67.6378 54.0293 67.6938 54.1573 67.6938 54.312C67.6938 54.4667 67.6378 54.592 67.5258 54.688C67.4191 54.784 67.2778 54.832 67.1018 54.832C66.9258 54.832 66.7844 54.784 66.6778 54.688C66.5711 54.592 66.5178 54.4667 66.5178 54.312ZM67.5578 55.592V60H66.6458V55.592H67.5578ZM74.1734 55.52C74.696 55.52 75.112 55.6853 75.4214 56.016C75.736 56.3467 75.8934 56.8187 75.8934 57.432V60H74.9814V57.528C74.9814 57.144 74.8854 56.848 74.6934 56.64C74.5014 56.4267 74.2374 56.32 73.9014 56.32C73.544 56.32 73.2587 56.4347 73.0454 56.664C72.8374 56.888 72.7334 57.2187 72.7334 57.656V60H71.8214V57.528C71.8214 57.144 71.7254 56.848 71.5334 56.64C71.3414 56.4267 71.0774 56.32 70.7414 56.32C70.384 56.32 70.0987 56.4347 69.8854 56.664C69.6774 56.888 69.5734 57.2187 69.5734 57.656V60H68.6614V55.592H69.5734V56.512C69.6854 56.192 69.872 55.9467 70.1334 55.776C70.3947 55.6053 70.7014 55.52 71.0534 55.52C71.4214 55.52 71.7387 55.6107 72.0054 55.792C72.2774 55.9733 72.4747 56.2347 72.5974 56.576C72.7254 56.2453 72.9307 55.9867 73.2134 55.8C73.496 55.6133 73.816 55.52 74.1734 55.52ZM81.0543 57.584C81.0543 57.7333 81.0436 57.864 81.0223 57.976H77.6303C77.6463 58.4293 77.7716 58.7653 78.0063 58.984C78.2409 59.2027 78.5316 59.312 78.8783 59.312C79.1823 59.312 79.4383 59.2347 79.6463 59.08C79.8596 58.9253 79.9903 58.72 80.0383 58.464H81.0143C80.9556 58.7733 80.8329 59.048 80.6463 59.288C80.4596 59.528 80.2169 59.7173 79.9183 59.856C79.6196 59.9893 79.2863 60.056 78.9183 60.056C78.4916 60.056 78.1129 59.9653 77.7823 59.784C77.4569 59.6027 77.2009 59.3413 77.0143 59C76.8276 58.6587 76.7343 58.256 76.7343 57.792C76.7343 57.3333 76.8276 56.9333 77.0143 56.592C77.2009 56.2507 77.4569 55.9893 77.7823 55.808C78.1129 55.6267 78.4916 55.536 78.9183 55.536C79.3503 55.536 79.7263 55.6267 80.0463 55.808C80.3716 55.984 80.6196 56.2293 80.7903 56.544C80.9663 56.8533 81.0543 57.2 81.0543 57.584ZM80.1343 57.56C80.1449 57.272 80.0943 57.032 79.9823 56.84C79.8756 56.6427 79.7263 56.4987 79.5343 56.408C79.3476 56.312 79.1423 56.264 78.9183 56.264C78.5609 56.264 78.2623 56.3733 78.0223 56.592C77.7823 56.8107 77.6516 57.1333 77.6303 57.56H80.1343Z" fill="white"/>
<rect x="17" y="71" width="529" height="200" rx="16" fill="#0A0F0B"/>
<path d="M34.33 97.02C34.8033 97.1667 35.1833 97.3067 35.47 97.44C35.7633 97.5733 36.01 97.7767 36.21 98.05C36.4167 98.3167 36.52 98.6733 36.52 99.12C36.52 99.4667 36.43 99.79 36.25 100.09C36.0767 100.383 35.8133 100.62 35.46 100.8C35.1067 100.98 34.6733 101.07 34.16 101.07H34.14V101.87H33.8V101.05C33.14 100.997 32.6 100.79 32.18 100.43C31.76 100.063 31.5267 99.6 31.48 99.04H32.7C32.7267 99.3 32.8333 99.5367 33.02 99.75C33.2133 99.9633 33.4733 100.097 33.8 100.15V97.88C33.2533 97.7133 32.8367 97.57 32.55 97.45C32.2633 97.3233 32.01 97.1233 31.79 96.85C31.57 96.5767 31.46 96.21 31.46 95.75C31.46 95.3767 31.5567 95.0467 31.75 94.76C31.95 94.4733 32.2267 94.25 32.58 94.09C32.9333 93.93 33.34 93.85 33.8 93.85V93H34.14V93.86C34.7933 93.9067 35.3133 94.1 35.7 94.44C36.0867 94.78 36.31 95.21 36.37 95.73H35.14C35.1 95.49 34.9933 95.2833 34.82 95.11C34.6533 94.93 34.4267 94.8133 34.14 94.76V96.96L34.33 97.02ZM32.68 95.71C32.68 96.0033 32.7767 96.2367 32.97 96.41C33.1633 96.5767 33.44 96.7233 33.8 96.85V94.73C33.4533 94.7367 33.18 94.8267 32.98 95C32.78 95.1667 32.68 95.4033 32.68 95.71ZM34.14 100.18C34.5067 100.18 34.79 100.083 34.99 99.89C35.1967 99.6967 35.3 99.45 35.3 99.15C35.3 98.8433 35.2 98.6067 35 98.44C34.8 98.2667 34.5133 98.1167 34.14 97.99V100.18ZM37.3668 100.11C38.4468 99.37 39.3101 98.6467 39.9568 97.94C40.6101 97.2267 40.9368 96.5667 40.9368 95.96C40.9368 95.6 40.8468 95.3133 40.6668 95.1C40.4935 94.8867 40.2101 94.78 39.8168 94.78C39.4101 94.78 39.1035 94.9133 38.8968 95.18C38.6901 95.44 38.5735 95.8133 38.5468 96.3H37.4368C37.4835 95.4933 37.7301 94.8767 38.1768 94.45C38.6301 94.0233 39.2068 93.81 39.9068 93.81C40.5935 93.81 41.1301 93.9933 41.5168 94.36C41.9101 94.72 42.1068 95.22 42.1068 95.86C42.1068 96.3733 41.9468 96.8933 41.6268 97.42C41.3135 97.9467 40.9135 98.4333 40.4268 98.88C39.9401 99.32 39.4368 99.7 38.9168 100.02H42.2668V100.95H37.3668V100.11ZM43.7606 100.07C43.3606 99.43 43.1606 98.5467 43.1606 97.42C43.1606 96.3 43.3606 95.4233 43.7606 94.79C44.1606 94.1567 44.8273 93.84 45.7606 93.84C46.694 93.84 47.3606 94.16 47.7606 94.8C48.1606 95.4333 48.3606 96.3067 48.3606 97.42C48.3606 98.54 48.1606 99.42 47.7606 100.06C47.3606 100.7 46.694 101.02 45.7606 101.02C44.8273 101.02 44.1606 100.703 43.7606 100.07ZM46.9206 99.29C47.1206 98.8567 47.2206 98.2333 47.2206 97.42C47.2206 96.62 47.1206 96.0067 46.9206 95.58C46.7206 95.1467 46.334 94.93 45.7606 94.93C45.1806 94.93 44.7906 95.1433 44.5906 95.57C44.3906 95.9967 44.2906 96.6133 44.2906 97.42C44.2906 98.2333 44.3906 98.8567 44.5906 99.29C44.7906 99.7233 45.1806 99.94 45.7606 99.94C46.334 99.94 46.7206 99.7233 46.9206 99.29ZM49.9911 100.07C49.5911 99.43 49.3911 98.5467 49.3911 97.42C49.3911 96.3 49.5911 95.4233 49.9911 94.79C50.3911 94.1567 51.0578 93.84 51.9911 93.84C52.9244 93.84 53.5911 94.16 53.9911 94.8C54.3911 95.4333 54.5911 96.3067 54.5911 97.42C54.5911 98.54 54.3911 99.42 53.9911 100.06C53.5911 100.7 52.9244 101.02 51.9911 101.02C51.0578 101.02 50.3911 100.703 49.9911 100.07ZM53.1511 99.29C53.3511 98.8567 53.4511 98.2333 53.4511 97.42C53.4511 96.62 53.3511 96.0067 53.1511 95.58C52.9511 95.1467 52.5644 94.93 51.9911 94.93C51.4111 94.93 51.0211 95.1433 50.8211 95.57C50.6211 95.9967 50.5211 96.6133 50.5211 97.42C50.5211 98.2333 50.6211 98.8567 50.8211 99.29C51.0211 99.7233 51.4111 99.94 51.9911 99.94C52.5644 99.94 52.9511 99.7233 53.1511 99.29ZM63.1116 94.05V101H61.9616V95.79L59.9516 101H58.9516L56.9316 95.79V101H55.7916V94.05H57.1716L59.4716 99.6L61.7316 94.05H63.1116Z" fill="white"/>
<path d="M37.33 129.02C37.8033 129.167 38.1833 129.307 38.47 129.44C38.7633 129.573 39.01 129.777 39.21 130.05C39.4167 130.317 39.52 130.673 39.52 131.12C39.52 131.467 39.43 131.79 39.25 132.09C39.0767 132.383 38.8133 132.62 38.46 132.8C38.1067 132.98 37.6733 133.07 37.16 133.07H37.14V133.87H36.8V133.05C36.14 132.997 35.6 132.79 35.18 132.43C34.76 132.063 34.5267 131.6 34.48 131.04H35.7C35.7267 131.3 35.8333 131.537 36.02 131.75C36.2133 131.963 36.4733 132.097 36.8 132.15V129.88C36.2533 129.713 35.8367 129.57 35.55 129.45C35.2633 129.323 35.01 129.123 34.79 128.85C34.57 128.577 34.46 128.21 34.46 127.75C34.46 127.377 34.5567 127.047 34.75 126.76C34.95 126.473 35.2267 126.25 35.58 126.09C35.9333 125.93 36.34 125.85 36.8 125.85V125H37.14V125.86C37.7933 125.907 38.3133 126.1 38.7 126.44C39.0867 126.78 39.31 127.21 39.37 127.73H38.14C38.1 127.49 37.9933 127.283 37.82 127.11C37.6533 126.93 37.4267 126.813 37.14 126.76V128.96L37.33 129.02ZM35.68 127.71C35.68 128.003 35.7767 128.237 35.97 128.41C36.1633 128.577 36.44 128.723 36.8 128.85V126.73C36.4533 126.737 36.18 126.827 35.98 127C35.78 127.167 35.68 127.403 35.68 127.71ZM37.14 132.18C37.5067 132.18 37.79 132.083 37.99 131.89C38.1967 131.697 38.3 131.45 38.3 131.15C38.3 130.843 38.2 130.607 38 130.44C37.8 130.267 37.5133 130.117 37.14 129.99V132.18ZM40.0968 127.01V125.94H42.3568V133H41.1568V127.01H40.0968ZM48.4432 126.84H44.9532V128.94C45.1132 128.733 45.3399 128.57 45.6332 128.45C45.9265 128.323 46.2499 128.26 46.6032 128.26C47.0965 128.26 47.5065 128.367 47.8332 128.58C48.1599 128.787 48.3999 129.063 48.5532 129.41C48.7132 129.757 48.7932 130.14 48.7932 130.56C48.7932 131.3 48.5865 131.9 48.1732 132.36C47.7599 132.813 47.1599 133.04 46.3732 133.04C45.6332 133.04 45.0365 132.843 44.5832 132.45C44.1299 132.057 43.8832 131.533 43.8432 130.88H44.9632C45.0232 131.24 45.1699 131.523 45.4032 131.73C45.6432 131.937 45.9465 132.04 46.3132 132.04C46.7665 132.04 47.1065 131.903 47.3332 131.63C47.5599 131.357 47.6732 130.993 47.6732 130.54C47.6732 130.113 47.5565 129.78 47.3232 129.54C47.0899 129.293 46.7565 129.17 46.3232 129.17C46.0165 129.17 45.7465 129.237 45.5132 129.37C45.2865 129.503 45.1199 129.68 45.0132 129.9H43.9032V125.83H48.4432V126.84ZM50.3934 132.07C49.9934 131.43 49.7934 130.547 49.7934 129.42C49.7934 128.3 49.9934 127.423 50.3934 126.79C50.7934 126.157 51.4601 125.84 52.3934 125.84C53.3268 125.84 53.9934 126.16 54.3934 126.8C54.7934 127.433 54.9934 128.307 54.9934 129.42C54.9934 130.54 54.7934 131.42 54.3934 132.06C53.9934 132.7 53.3268 133.02 52.3934 133.02C51.4601 133.02 50.7934 132.703 50.3934 132.07ZM53.5534 131.29C53.7534 130.857 53.8534 130.233 53.8534 129.42C53.8534 128.62 53.7534 128.007 53.5534 127.58C53.3534 127.147 52.9668 126.93 52.3934 126.93C51.8134 126.93 51.4234 127.143 51.2234 127.57C51.0234 127.997 50.9234 128.613 50.9234 129.42C50.9234 130.233 51.0234 130.857 51.2234 131.29C51.4234 131.723 51.8134 131.94 52.3934 131.94C52.9668 131.94 53.3534 131.723 53.5534 131.29ZM63.5139 126.05V133H62.3639V127.79L60.3539 133H59.3539L57.3339 127.79V133H56.1939V126.05H57.5739L59.8739 131.6L62.1339 126.05H63.5139Z" fill="white"/>
<path d="M37.33 162.02C37.8033 162.167 38.1833 162.307 38.47 162.44C38.7633 162.573 39.01 162.777 39.21 163.05C39.4167 163.317 39.52 163.673 39.52 164.12C39.52 164.467 39.43 164.79 39.25 165.09C39.0767 165.383 38.8133 165.62 38.46 165.8C38.1067 165.98 37.6733 166.07 37.16 166.07H37.14V166.87H36.8V166.05C36.14 165.997 35.6 165.79 35.18 165.43C34.76 165.063 34.5267 164.6 34.48 164.04H35.7C35.7267 164.3 35.8333 164.537 36.02 164.75C36.2133 164.963 36.4733 165.097 36.8 165.15V162.88C36.2533 162.713 35.8367 162.57 35.55 162.45C35.2633 162.323 35.01 162.123 34.79 161.85C34.57 161.577 34.46 161.21 34.46 160.75C34.46 160.377 34.5567 160.047 34.75 159.76C34.95 159.473 35.2267 159.25 35.58 159.09C35.9333 158.93 36.34 158.85 36.8 158.85V158H37.14V158.86C37.7933 158.907 38.3133 159.1 38.7 159.44C39.0867 159.78 39.31 160.21 39.37 160.73H38.14C38.1 160.49 37.9933 160.283 37.82 160.11C37.6533 159.93 37.4267 159.813 37.14 159.76V161.96L37.33 162.02ZM35.68 160.71C35.68 161.003 35.7767 161.237 35.97 161.41C36.1633 161.577 36.44 161.723 36.8 161.85V159.73C36.4533 159.737 36.18 159.827 35.98 160C35.78 160.167 35.68 160.403 35.68 160.71ZM37.14 165.18C37.5067 165.18 37.79 165.083 37.99 164.89C38.1967 164.697 38.3 164.45 38.3 164.15C38.3 163.843 38.2 163.607 38 163.44C37.8 163.267 37.5133 163.117 37.14 162.99V165.18ZM40.0968 160.01V158.94H42.3568V166H41.1568V160.01H40.0968ZM44.1532 165.07C43.7532 164.43 43.5532 163.547 43.5532 162.42C43.5532 161.3 43.7532 160.423 44.1532 159.79C44.5532 159.157 45.2199 158.84 46.1532 158.84C47.0865 158.84 47.7532 159.16 48.1532 159.8C48.5532 160.433 48.7532 161.307 48.7532 162.42C48.7532 163.54 48.5532 164.42 48.1532 165.06C47.7532 165.7 47.0865 166.02 46.1532 166.02C45.2199 166.02 44.5532 165.703 44.1532 165.07ZM47.3132 164.29C47.5132 163.857 47.6132 163.233 47.6132 162.42C47.6132 161.62 47.5132 161.007 47.3132 160.58C47.1132 160.147 46.7265 159.93 46.1532 159.93C45.5732 159.93 45.1832 160.143 44.9832 160.57C44.7832 160.997 44.6832 161.613 44.6832 162.42C44.6832 163.233 44.7832 163.857 44.9832 164.29C45.1832 164.723 45.5732 164.94 46.1532 164.94C46.7265 164.94 47.1132 164.723 47.3132 164.29ZM50.3837 165.07C49.9837 164.43 49.7837 163.547 49.7837 162.42C49.7837 161.3 49.9837 160.423 50.3837 159.79C50.7837 159.157 51.4503 158.84 52.3837 158.84C53.317 158.84 53.9837 159.16 54.3837 159.8C54.7837 160.433 54.9837 161.307 54.9837 162.42C54.9837 163.54 54.7837 164.42 54.3837 165.06C53.9837 165.7 53.317 166.02 52.3837 166.02C51.4503 166.02 50.7837 165.703 50.3837 165.07ZM53.5437 164.29C53.7437 163.857 53.8437 163.233 53.8437 162.42C53.8437 161.62 53.7437 161.007 53.5437 160.58C53.3437 160.147 52.957 159.93 52.3837 159.93C51.8037 159.93 51.4137 160.143 51.2137 160.57C51.0137 160.997 50.9137 161.613 50.9137 162.42C50.9137 163.233 51.0137 163.857 51.2137 164.29C51.4137 164.723 51.8037 164.94 52.3837 164.94C52.957 164.94 53.3437 164.723 53.5437 164.29ZM63.5041 159.05V166H62.3541V160.79L60.3441 166H59.3441L57.3241 160.79V166H56.1841V159.05H57.5641L59.8641 164.6L62.1241 159.05H63.5041Z" fill="white"/>
<path d="M39.33 195.02C39.8033 195.167 40.1833 195.307 40.47 195.44C40.7633 195.573 41.01 195.777 41.21 196.05C41.4167 196.317 41.52 196.673 41.52 197.12C41.52 197.467 41.43 197.79 41.25 198.09C41.0767 198.383 40.8133 198.62 40.46 198.8C40.1067 198.98 39.6733 199.07 39.16 199.07H39.14V199.87H38.8V199.05C38.14 198.997 37.6 198.79 37.18 198.43C36.76 198.063 36.5267 197.6 36.48 197.04H37.7C37.7267 197.3 37.8333 197.537 38.02 197.75C38.2133 197.963 38.4733 198.097 38.8 198.15V195.88C38.2533 195.713 37.8367 195.57 37.55 195.45C37.2633 195.323 37.01 195.123 36.79 194.85C36.57 194.577 36.46 194.21 36.46 193.75C36.46 193.377 36.5567 193.047 36.75 192.76C36.95 192.473 37.2267 192.25 37.58 192.09C37.9333 191.93 38.34 191.85 38.8 191.85V191H39.14V191.86C39.7933 191.907 40.3133 192.1 40.7 192.44C41.0867 192.78 41.31 193.21 41.37 193.73H40.14C40.1 193.49 39.9933 193.283 39.82 193.11C39.6533 192.93 39.4267 192.813 39.14 192.76V194.96L39.33 195.02ZM37.68 193.71C37.68 194.003 37.7767 194.237 37.97 194.41C38.1633 194.577 38.44 194.723 38.8 194.85V192.73C38.4533 192.737 38.18 192.827 37.98 193C37.78 193.167 37.68 193.403 37.68 193.71ZM39.14 198.18C39.5067 198.18 39.79 198.083 39.99 197.89C40.1967 197.697 40.3 197.45 40.3 197.15C40.3 196.843 40.2 196.607 40 196.44C39.8 196.267 39.5133 196.117 39.14 195.99V198.18ZM47.3768 192.84H43.8868V194.94C44.0468 194.733 44.2735 194.57 44.5668 194.45C44.8601 194.323 45.1835 194.26 45.5368 194.26C46.0301 194.26 46.4401 194.367 46.7668 194.58C47.0935 194.787 47.3335 195.063 47.4868 195.41C47.6468 195.757 47.7268 196.14 47.7268 196.56C47.7268 197.3 47.5201 197.9 47.1068 198.36C46.6935 198.813 46.0935 199.04 45.3068 199.04C44.5668 199.04 43.9701 198.843 43.5168 198.45C43.0635 198.057 42.8168 197.533 42.7768 196.88H43.8968C43.9568 197.24 44.1035 197.523 44.3368 197.73C44.5768 197.937 44.8801 198.04 45.2468 198.04C45.7001 198.04 46.0401 197.903 46.2668 197.63C46.4935 197.357 46.6068 196.993 46.6068 196.54C46.6068 196.113 46.4901 195.78 46.2568 195.54C46.0235 195.293 45.6901 195.17 45.2568 195.17C44.9501 195.17 44.6801 195.237 44.4468 195.37C44.2201 195.503 44.0535 195.68 43.9468 195.9H42.8368V191.83H47.3768V192.84ZM49.327 198.07C48.927 197.43 48.727 196.547 48.727 195.42C48.727 194.3 48.927 193.423 49.327 192.79C49.727 192.157 50.3937 191.84 51.327 191.84C52.2604 191.84 52.927 192.16 53.327 192.8C53.727 193.433 53.927 194.307 53.927 195.42C53.927 196.54 53.727 197.42 53.327 198.06C52.927 198.7 52.2604 199.02 51.327 199.02C50.3937 199.02 49.727 198.703 49.327 198.07ZM52.487 197.29C52.687 196.857 52.787 196.233 52.787 195.42C52.787 194.62 52.687 194.007 52.487 193.58C52.287 193.147 51.9004 192.93 51.327 192.93C50.747 192.93 50.357 193.143 50.157 193.57C49.957 193.997 49.857 194.613 49.857 195.42C49.857 196.233 49.957 196.857 50.157 197.29C50.357 197.723 50.747 197.94 51.327 197.94C51.9004 197.94 52.287 197.723 52.487 197.29ZM62.4475 192.05V199H61.2975V193.79L59.2875 199H58.2875L56.2675 193.79V199H55.1275V192.05H56.5075L58.8075 197.6L61.0675 192.05H62.4475Z" fill="white"/>
<path d="M54.1327 227.02C54.6061 227.167 54.9861 227.307 55.2727 227.44C55.5661 227.573 55.8127 227.777 56.0127 228.05C56.2194 228.317 56.3227 228.673 56.3227 229.12C56.3227 229.467 56.2327 229.79 56.0527 230.09C55.8794 230.383 55.6161 230.62 55.2627 230.8C54.9094 230.98 54.4761 231.07 53.9627 231.07H53.9427V231.87H53.6027V231.05C52.9427 230.997 52.4027 230.79 51.9827 230.43C51.5627 230.063 51.3294 229.6 51.2827 229.04H52.5027C52.5294 229.3 52.6361 229.537 52.8227 229.75C53.0161 229.963 53.2761 230.097 53.6027 230.15V227.88C53.0561 227.713 52.6394 227.57 52.3527 227.45C52.0661 227.323 51.8127 227.123 51.5927 226.85C51.3727 226.577 51.2627 226.21 51.2627 225.75C51.2627 225.377 51.3594 225.047 51.5527 224.76C51.7527 224.473 52.0294 224.25 52.3827 224.09C52.7361 223.93 53.1427 223.85 53.6027 223.85V223H53.9427V223.86C54.5961 223.907 55.1161 224.1 55.5027 224.44C55.8894 224.78 56.1127 225.21 56.1727 225.73H54.9427C54.9027 225.49 54.7961 225.283 54.6227 225.11C54.4561 224.93 54.2294 224.813 53.9427 224.76V226.96L54.1327 227.02ZM52.4827 225.71C52.4827 226.003 52.5794 226.237 52.7727 226.41C52.9661 226.577 53.2427 226.723 53.6027 226.85V224.73C53.2561 224.737 52.9827 224.827 52.7827 225C52.5827 225.167 52.4827 225.403 52.4827 225.71ZM53.9427 230.18C54.3094 230.18 54.5927 230.083 54.7927 229.89C54.9994 229.697 55.1027 229.45 55.1027 229.15C55.1027 228.843 55.0027 228.607 54.8027 228.44C54.6027 228.267 54.3161 228.117 53.9427 227.99V230.18ZM57.8895 230.07C57.4895 229.43 57.2895 228.547 57.2895 227.42C57.2895 226.3 57.4895 225.423 57.8895 224.79C58.2895 224.157 58.9562 223.84 59.8895 223.84C60.8229 223.84 61.4895 224.16 61.8895 224.8C62.2895 225.433 62.4895 226.307 62.4895 227.42C62.4895 228.54 62.2895 229.42 61.8895 230.06C61.4895 230.7 60.8229 231.02 59.8895 231.02C58.9562 231.02 58.2895 230.703 57.8895 230.07ZM61.0495 229.29C61.2495 228.857 61.3495 228.233 61.3495 227.42C61.3495 226.62 61.2495 226.007 61.0495 225.58C60.8495 225.147 60.4629 224.93 59.8895 224.93C59.3095 224.93 58.9195 225.143 58.7195 225.57C58.5195 225.997 58.4195 226.613 58.4195 227.42C58.4195 228.233 58.5195 228.857 58.7195 229.29C58.9195 229.723 59.3095 229.94 59.8895 229.94C60.4629 229.94 60.8495 229.723 61.0495 229.29Z" fill="white"/>
<path d="M69.6878 238.352V242.448C69.6878 242.955 69.5464 243.349 69.2638 243.632C68.9811 243.915 68.5891 244.056 68.0878 244.056C67.5438 244.056 67.1171 243.899 66.8078 243.584C66.4984 243.269 66.3438 242.824 66.3438 242.248H67.2478C67.2478 242.557 67.3118 242.797 67.4398 242.968C67.5731 243.139 67.7758 243.224 68.0478 243.224C68.2984 243.224 68.4824 243.152 68.5998 243.008C68.7171 242.864 68.7758 242.677 68.7758 242.448V238.352H69.6878ZM72.5192 239.536C72.9192 239.536 73.2606 239.635 73.5432 239.832C73.8259 240.029 74.0259 240.291 74.1432 240.616V239.592H75.0552V244H74.1432V242.976C74.0259 243.301 73.8259 243.563 73.5432 243.76C73.2606 243.957 72.9192 244.056 72.5192 244.056C72.1352 244.056 71.7912 243.965 71.4872 243.784C71.1886 243.603 70.9539 243.341 70.7832 243C70.6126 242.659 70.5272 242.256 70.5272 241.792C70.5272 241.333 70.6126 240.933 70.7832 240.592C70.9539 240.251 71.1886 239.989 71.4872 239.808C71.7912 239.627 72.1352 239.536 72.5192 239.536ZM72.7992 240.336C72.3939 240.336 72.0686 240.467 71.8232 240.728C71.5832 240.984 71.4632 241.339 71.4632 241.792C71.4632 242.245 71.5832 242.603 71.8232 242.864C72.0686 243.12 72.3939 243.248 72.7992 243.248C73.0552 243.248 73.2846 243.189 73.4872 243.072C73.6899 242.949 73.8499 242.779 73.9672 242.56C74.0846 242.341 74.1432 242.085 74.1432 241.792C74.1432 241.504 74.0846 241.251 73.9672 241.032C73.8499 240.808 73.6899 240.637 73.4872 240.52C73.2846 240.397 73.0552 240.336 72.7992 240.336ZM78.6137 239.52C79.1257 239.52 79.5363 239.685 79.8457 240.016C80.155 240.347 80.3097 240.819 80.3097 241.432V244H79.3977V241.528C79.3977 241.133 79.2963 240.829 79.0937 240.616C78.891 240.397 78.6137 240.288 78.2617 240.288C77.899 240.288 77.6083 240.405 77.3897 240.64C77.171 240.869 77.0617 241.208 77.0617 241.656V244H76.1497V239.592H77.0617V240.56C77.179 240.229 77.3763 239.973 77.6537 239.792C77.931 239.611 78.251 239.52 78.6137 239.52ZM68.0794 250.352V251.088H65.6554V252.84H67.6554V253.544H65.6554V256H64.7434V250.352H68.0794ZM73.1558 250.352L71.2758 253.944V256H70.3558V253.944L68.4678 250.352H69.5238L70.8198 252.968L72.1158 250.352H73.1558ZM73.6052 255.288C74.4692 254.696 75.1598 254.117 75.6772 253.552C76.1998 252.981 76.4612 252.453 76.4612 251.968C76.4612 251.68 76.3892 251.451 76.2452 251.28C76.1065 251.109 75.8798 251.024 75.5652 251.024C75.2398 251.024 74.9945 251.131 74.8292 251.344C74.6638 251.552 74.5705 251.851 74.5492 252.24H73.6612C73.6985 251.595 73.8958 251.101 74.2532 250.76C74.6158 250.419 75.0772 250.248 75.6372 250.248C76.1865 250.248 76.6158 250.395 76.9252 250.688C77.2398 250.976 77.3972 251.376 77.3972 251.888C77.3972 252.299 77.2692 252.715 77.0132 253.136C76.7625 253.557 76.4425 253.947 76.0532 254.304C75.6638 254.656 75.2612 254.96 74.8452 255.216H77.5252V255.96H73.6052V255.288ZM81.3362 251.872C81.2402 251.243 80.9122 250.928 80.3522 250.928C79.9469 250.928 79.6429 251.091 79.4402 251.416C79.2376 251.736 79.1362 252.24 79.1362 252.928L79.1442 253.2C79.2242 252.912 79.3976 252.683 79.6642 252.512C79.9309 252.341 80.2456 252.256 80.6082 252.256C81.1629 252.256 81.5976 252.421 81.9122 252.752C82.2269 253.083 82.3842 253.549 82.3842 254.152C82.3842 254.515 82.3122 254.84 82.1682 255.128C82.0242 255.411 81.8082 255.637 81.5202 255.808C81.2322 255.973 80.8776 256.056 80.4562 256.056C79.6402 256.056 79.0802 255.803 78.7762 255.296C78.4722 254.789 78.3202 254.093 78.3202 253.208C78.3202 252.195 78.4829 251.437 78.8082 250.936C79.1336 250.435 79.6669 250.184 80.4082 250.184C80.9629 250.184 81.3869 250.341 81.6802 250.656C81.9789 250.971 82.1522 251.376 82.2002 251.872H81.3362ZM79.2242 254.048C79.2242 254.395 79.3256 254.685 79.5282 254.92C79.7309 255.149 80.0296 255.264 80.4242 255.264C80.7602 255.264 81.0269 255.165 81.2242 254.968C81.4269 254.771 81.5282 254.496 81.5282 254.144C81.5282 253.765 81.4269 253.475 81.2242 253.272C81.0216 253.069 80.7469 252.968 80.4002 252.968C80.0856 252.968 79.8109 253.061 79.5762 253.248C79.3416 253.435 79.2242 253.701 79.2242 254.048Z" fill="white"/>
<path d="M109.126 238.352V239.088H106.702V240.84H108.702V241.544H106.702V244H105.79V238.352H109.126ZM114.035 241.584C114.035 241.733 114.024 241.864 114.003 241.976H110.611C110.627 242.429 110.752 242.765 110.987 242.984C111.221 243.203 111.512 243.312 111.859 243.312C112.163 243.312 112.419 243.235 112.627 243.08C112.84 242.925 112.971 242.72 113.019 242.464H113.995C113.936 242.773 113.813 243.048 113.627 243.288C113.44 243.528 113.197 243.717 112.899 243.856C112.6 243.989 112.267 244.056 111.899 244.056C111.472 244.056 111.093 243.965 110.763 243.784C110.437 243.603 110.181 243.341 109.995 243C109.808 242.659 109.715 242.256 109.715 241.792C109.715 241.333 109.808 240.933 109.995 240.592C110.181 240.251 110.437 239.989 110.763 239.808C111.093 239.627 111.472 239.536 111.899 239.536C112.331 239.536 112.707 239.627 113.027 239.808C113.352 239.984 113.6 240.229 113.771 240.544C113.947 240.853 114.035 241.2 114.035 241.584ZM113.115 241.56C113.125 241.272 113.075 241.032 112.963 240.84C112.856 240.643 112.707 240.499 112.515 240.408C112.328 240.312 112.123 240.264 111.899 240.264C111.541 240.264 111.243 240.373 111.003 240.592C110.763 240.811 110.632 241.133 110.611 241.56H113.115ZM117.443 239.536C117.827 239.536 118.169 239.627 118.467 239.808C118.771 239.989 119.009 240.251 119.179 240.592C119.35 240.933 119.435 241.333 119.435 241.792C119.435 242.256 119.35 242.659 119.179 243C119.009 243.341 118.771 243.603 118.467 243.784C118.169 243.965 117.827 244.056 117.443 244.056C117.043 244.056 116.702 243.957 116.419 243.76C116.137 243.563 115.939 243.301 115.827 242.976V244H114.915V238.08H115.827V240.616C115.939 240.291 116.137 240.029 116.419 239.832C116.702 239.635 117.043 239.536 117.443 239.536ZM117.163 240.336C116.907 240.336 116.678 240.397 116.475 240.52C116.273 240.637 116.113 240.808 115.995 241.032C115.878 241.251 115.819 241.504 115.819 241.792C115.819 242.085 115.878 242.341 115.995 242.56C116.113 242.779 116.273 242.949 116.475 243.072C116.678 243.189 116.907 243.248 117.163 243.248C117.569 243.248 117.894 243.12 118.139 242.864C118.385 242.603 118.507 242.245 118.507 241.792C118.507 241.344 118.385 240.989 118.139 240.728C117.894 240.467 117.569 240.336 117.163 240.336ZM107.079 250.352V251.088H104.655V252.84H106.655V253.544H104.655V256H103.743V250.352H107.079ZM112.156 250.352L110.276 253.944V256H109.356V253.944L107.468 250.352H108.524L109.82 252.968L111.116 250.352H112.156ZM112.605 255.288C113.469 254.696 114.16 254.117 114.677 253.552C115.2 252.981 115.461 252.453 115.461 251.968C115.461 251.68 115.389 251.451 115.245 251.28C115.106 251.109 114.88 251.024 114.565 251.024C114.24 251.024 113.994 251.131 113.829 251.344C113.664 251.552 113.57 251.851 113.549 252.24H112.661C112.698 251.595 112.896 251.101 113.253 250.76C113.616 250.419 114.077 250.248 114.637 250.248C115.186 250.248 115.616 250.395 115.925 250.688C116.24 250.976 116.397 251.376 116.397 251.888C116.397 252.299 116.269 252.715 116.013 253.136C115.762 253.557 115.442 253.947 115.053 254.304C114.664 254.656 114.261 254.96 113.845 255.216H116.525V255.96H112.605V255.288ZM120.336 251.872C120.24 251.243 119.912 250.928 119.352 250.928C118.947 250.928 118.643 251.091 118.44 251.416C118.238 251.736 118.136 252.24 118.136 252.928L118.144 253.2C118.224 252.912 118.398 252.683 118.664 252.512C118.931 252.341 119.246 252.256 119.608 252.256C120.163 252.256 120.598 252.421 120.912 252.752C121.227 253.083 121.384 253.549 121.384 254.152C121.384 254.515 121.312 254.84 121.168 255.128C121.024 255.411 120.808 255.637 120.52 255.808C120.232 255.973 119.878 256.056 119.456 256.056C118.64 256.056 118.08 255.803 117.776 255.296C117.472 254.789 117.32 254.093 117.32 253.208C117.32 252.195 117.483 251.437 117.808 250.936C118.134 250.435 118.667 250.184 119.408 250.184C119.963 250.184 120.387 250.341 120.68 250.656C120.979 250.971 121.152 251.376 121.2 251.872H120.336ZM118.224 254.048C118.224 254.395 118.326 254.685 118.528 254.92C118.731 255.149 119.03 255.264 119.424 255.264C119.76 255.264 120.027 255.165 120.224 254.968C120.427 254.771 120.528 254.496 120.528 254.144C120.528 253.765 120.427 253.475 120.224 253.272C120.022 253.069 119.747 252.968 119.4 252.968C119.086 252.968 118.811 253.061 118.576 253.248C118.342 253.435 118.224 253.701 118.224 254.048Z" fill="white"/>
<path d="M150.135 238.44V244H149.215V239.832L147.607 244H146.807L145.191 239.832V244H144.279V238.44H145.383L147.223 242.88L149.031 238.44H150.135ZM153 239.536C153.4 239.536 153.741 239.635 154.024 239.832C154.306 240.029 154.506 240.291 154.624 240.616V239.592H155.536V244H154.624V242.976C154.506 243.301 154.306 243.563 154.024 243.76C153.741 243.957 153.4 244.056 153 244.056C152.616 244.056 152.272 243.965 151.968 243.784C151.669 243.603 151.434 243.341 151.264 243C151.093 242.659 151.008 242.256 151.008 241.792C151.008 241.333 151.093 240.933 151.264 240.592C151.434 240.251 151.669 239.989 151.968 239.808C152.272 239.627 152.616 239.536 153 239.536ZM153.28 240.336C152.874 240.336 152.549 240.467 152.304 240.728C152.064 240.984 151.944 241.339 151.944 241.792C151.944 242.245 152.064 242.603 152.304 242.864C152.549 243.12 152.874 243.248 153.28 243.248C153.536 243.248 153.765 243.189 153.968 243.072C154.17 242.949 154.33 242.779 154.448 242.56C154.565 242.341 154.624 242.085 154.624 241.792C154.624 241.504 154.565 241.251 154.448 241.032C154.33 240.808 154.17 240.637 153.968 240.52C153.765 240.397 153.536 240.336 153.28 240.336ZM157.542 240.456C157.691 240.168 157.905 239.941 158.182 239.776C158.459 239.605 158.779 239.52 159.142 239.52V240.512H158.87C158.47 240.512 158.147 240.611 157.902 240.808C157.662 241 157.542 241.32 157.542 241.768V244H156.63V239.592H157.542V240.456ZM146.079 250.352V251.088H143.655V252.84H145.655V253.544H143.655V256H142.743V250.352H146.079ZM151.156 250.352L149.276 253.944V256H148.356V253.944L146.468 250.352H147.524L148.82 252.968L150.116 250.352H151.156ZM151.605 255.288C152.469 254.696 153.16 254.117 153.677 253.552C154.2 252.981 154.461 252.453 154.461 251.968C154.461 251.68 154.389 251.451 154.245 251.28C154.106 251.109 153.88 251.024 153.565 251.024C153.24 251.024 152.994 251.131 152.829 251.344C152.664 251.552 152.57 251.851 152.549 252.24H151.661C151.698 251.595 151.896 251.101 152.253 250.76C152.616 250.419 153.077 250.248 153.637 250.248C154.186 250.248 154.616 250.395 154.925 250.688C155.24 250.976 155.397 251.376 155.397 251.888C155.397 252.299 155.269 252.715 155.013 253.136C154.762 253.557 154.442 253.947 154.053 254.304C153.664 254.656 153.261 254.96 152.845 255.216H155.525V255.96H151.605V255.288ZM159.336 251.872C159.24 251.243 158.912 250.928 158.352 250.928C157.947 250.928 157.643 251.091 157.44 251.416C157.238 251.736 157.136 252.24 157.136 252.928L157.144 253.2C157.224 252.912 157.398 252.683 157.664 252.512C157.931 252.341 158.246 252.256 158.608 252.256C159.163 252.256 159.598 252.421 159.912 252.752C160.227 253.083 160.384 253.549 160.384 254.152C160.384 254.515 160.312 254.84 160.168 255.128C160.024 255.411 159.808 255.637 159.52 255.808C159.232 255.973 158.878 256.056 158.456 256.056C157.64 256.056 157.08 255.803 156.776 255.296C156.472 254.789 156.32 254.093 156.32 253.208C156.32 252.195 156.483 251.437 156.808 250.936C157.134 250.435 157.667 250.184 158.408 250.184C158.963 250.184 159.387 250.341 159.68 250.656C159.979 250.971 160.152 251.376 160.2 251.872H159.336ZM157.224 254.048C157.224 254.395 157.326 254.685 157.528 254.92C157.731 255.149 158.03 255.264 158.424 255.264C158.76 255.264 159.027 255.165 159.224 254.968C159.427 254.771 159.528 254.496 159.528 254.144C159.528 253.765 159.427 253.475 159.224 253.272C159.022 253.069 158.747 252.968 158.4 252.968C158.086 252.968 157.811 253.061 157.576 253.248C157.342 253.435 157.224 253.701 157.224 254.048Z" fill="white"/>
<path d="M187.397 242.776H185.013L184.581 244H183.605L185.685 238.44H186.733L188.805 244H187.829L187.397 242.776ZM187.141 242.072L186.205 239.432L185.269 242.072H187.141ZM192.01 239.536C192.394 239.536 192.735 239.627 193.034 239.808C193.338 239.989 193.575 240.251 193.746 240.592C193.916 240.933 194.002 241.333 194.002 241.792C194.002 242.256 193.916 242.659 193.746 243C193.575 243.341 193.338 243.603 193.034 243.784C192.735 243.965 192.394 244.056 192.01 244.056C191.61 244.056 191.268 243.957 190.986 243.76C190.703 243.563 190.506 243.301 190.394 242.976V246.096H189.482V239.592H190.394V240.616C190.506 240.291 190.703 240.029 190.986 239.832C191.268 239.635 191.61 239.536 192.01 239.536ZM191.73 240.336C191.474 240.336 191.244 240.397 191.042 240.52C190.839 240.637 190.679 240.808 190.562 241.032C190.444 241.251 190.386 241.504 190.386 241.792C190.386 242.085 190.444 242.341 190.562 242.56C190.679 242.779 190.839 242.949 191.042 243.072C191.244 243.189 191.474 243.248 191.73 243.248C192.135 243.248 192.46 243.12 192.706 242.864C192.951 242.603 193.074 242.245 193.074 241.792C193.074 241.344 192.951 240.989 192.706 240.728C192.46 240.467 192.135 240.336 191.73 240.336ZM195.792 240.456C195.941 240.168 196.155 239.941 196.432 239.776C196.709 239.605 197.029 239.52 197.392 239.52V240.512H197.12C196.72 240.512 196.397 240.611 196.152 240.808C195.912 241 195.792 241.32 195.792 241.768V244H194.88V239.592H195.792V240.456ZM185.079 250.352V251.088H182.655V252.84H184.655V253.544H182.655V256H181.743V250.352H185.079ZM190.156 250.352L188.276 253.944V256H187.356V253.944L185.468 250.352H186.524L187.82 252.968L189.116 250.352H190.156ZM190.605 255.288C191.469 254.696 192.16 254.117 192.677 253.552C193.2 252.981 193.461 252.453 193.461 251.968C193.461 251.68 193.389 251.451 193.245 251.28C193.106 251.109 192.88 251.024 192.565 251.024C192.24 251.024 191.994 251.131 191.829 251.344C191.664 251.552 191.57 251.851 191.549 252.24H190.661C190.698 251.595 190.896 251.101 191.253 250.76C191.616 250.419 192.077 250.248 192.637 250.248C193.186 250.248 193.616 250.395 193.925 250.688C194.24 250.976 194.397 251.376 194.397 251.888C194.397 252.299 194.269 252.715 194.013 253.136C193.762 253.557 193.442 253.947 193.053 254.304C192.664 254.656 192.261 254.96 191.845 255.216H194.525V255.96H190.605V255.288ZM198.336 251.872C198.24 251.243 197.912 250.928 197.352 250.928C196.947 250.928 196.643 251.091 196.44 251.416C196.238 251.736 196.136 252.24 196.136 252.928L196.144 253.2C196.224 252.912 196.398 252.683 196.664 252.512C196.931 252.341 197.246 252.256 197.608 252.256C198.163 252.256 198.598 252.421 198.912 252.752C199.227 253.083 199.384 253.549 199.384 254.152C199.384 254.515 199.312 254.84 199.168 255.128C199.024 255.411 198.808 255.637 198.52 255.808C198.232 255.973 197.878 256.056 197.456 256.056C196.64 256.056 196.08 255.803 195.776 255.296C195.472 254.789 195.32 254.093 195.32 253.208C195.32 252.195 195.483 251.437 195.808 250.936C196.134 250.435 196.667 250.184 197.408 250.184C197.963 250.184 198.387 250.341 198.68 250.656C198.979 250.971 199.152 251.376 199.2 251.872H198.336ZM196.224 254.048C196.224 254.395 196.326 254.685 196.528 254.92C196.731 255.149 197.03 255.264 197.424 255.264C197.76 255.264 198.027 255.165 198.224 254.968C198.427 254.771 198.528 254.496 198.528 254.144C198.528 253.765 198.427 253.475 198.224 253.272C198.022 253.069 197.747 252.968 197.4 252.968C197.086 252.968 196.811 253.061 196.576 253.248C196.342 253.435 196.224 253.701 196.224 254.048Z" fill="white"/>
<path d="M227.392 238.44V244H226.472V239.832L224.864 244H224.064L222.448 239.832V244H221.536V238.44H222.64L224.48 242.88L226.288 238.44H227.392ZM230.258 239.536C230.658 239.536 230.999 239.635 231.282 239.832C231.564 240.029 231.764 240.291 231.882 240.616V239.592H232.794V244H231.882V242.976C231.764 243.301 231.564 243.563 231.282 243.76C230.999 243.957 230.658 244.056 230.258 244.056C229.874 244.056 229.53 243.965 229.226 243.784C228.927 243.603 228.692 243.341 228.522 243C228.351 242.659 228.266 242.256 228.266 241.792C228.266 241.333 228.351 240.933 228.522 240.592C228.692 240.251 228.927 239.989 229.226 239.808C229.53 239.627 229.874 239.536 230.258 239.536ZM230.538 240.336C230.132 240.336 229.807 240.467 229.562 240.728C229.322 240.984 229.202 241.339 229.202 241.792C229.202 242.245 229.322 242.603 229.562 242.864C229.807 243.12 230.132 243.248 230.538 243.248C230.794 243.248 231.023 243.189 231.226 243.072C231.428 242.949 231.588 242.779 231.706 242.56C231.823 242.341 231.882 242.085 231.882 241.792C231.882 241.504 231.823 241.251 231.706 241.032C231.588 240.808 231.428 240.637 231.226 240.52C231.023 240.397 230.794 240.336 230.538 240.336ZM234.408 239.592L235.728 242.832L236.952 239.592H237.968L235.304 246.096H234.288L235.24 243.896L233.384 239.592H234.408ZM224.079 250.352V251.088H221.655V252.84H223.655V253.544H221.655V256H220.743V250.352H224.079ZM229.156 250.352L227.276 253.944V256H226.356V253.944L224.468 250.352H225.524L226.82 252.968L228.116 250.352H229.156ZM229.605 255.288C230.469 254.696 231.16 254.117 231.677 253.552C232.2 252.981 232.461 252.453 232.461 251.968C232.461 251.68 232.389 251.451 232.245 251.28C232.106 251.109 231.88 251.024 231.565 251.024C231.24 251.024 230.994 251.131 230.829 251.344C230.664 251.552 230.57 251.851 230.549 252.24H229.661C229.698 251.595 229.896 251.101 230.253 250.76C230.616 250.419 231.077 250.248 231.637 250.248C232.186 250.248 232.616 250.395 232.925 250.688C233.24 250.976 233.397 251.376 233.397 251.888C233.397 252.299 233.269 252.715 233.013 253.136C232.762 253.557 232.442 253.947 232.053 254.304C231.664 254.656 231.261 254.96 230.845 255.216H233.525V255.96H229.605V255.288ZM237.336 251.872C237.24 251.243 236.912 250.928 236.352 250.928C235.947 250.928 235.643 251.091 235.44 251.416C235.238 251.736 235.136 252.24 235.136 252.928L235.144 253.2C235.224 252.912 235.398 252.683 235.664 252.512C235.931 252.341 236.246 252.256 236.608 252.256C237.163 252.256 237.598 252.421 237.912 252.752C238.227 253.083 238.384 253.549 238.384 254.152C238.384 254.515 238.312 254.84 238.168 255.128C238.024 255.411 237.808 255.637 237.52 255.808C237.232 255.973 236.878 256.056 236.456 256.056C235.64 256.056 235.08 255.803 234.776 255.296C234.472 254.789 234.32 254.093 234.32 253.208C234.32 252.195 234.483 251.437 234.808 250.936C235.134 250.435 235.667 250.184 236.408 250.184C236.963 250.184 237.387 250.341 237.68 250.656C237.979 250.971 238.152 251.376 238.2 251.872H237.336ZM235.224 254.048C235.224 254.395 235.326 254.685 235.528 254.92C235.731 255.149 236.03 255.264 236.424 255.264C236.76 255.264 237.027 255.165 237.224 254.968C237.427 254.771 237.528 254.496 237.528 254.144C237.528 253.765 237.427 253.475 237.224 253.272C237.022 253.069 236.747 252.968 236.4 252.968C236.086 252.968 235.811 253.061 235.576 253.248C235.342 253.435 235.224 253.701 235.224 254.048Z" fill="white"/>
<path d="M264.809 238.352V242.448C264.809 242.955 264.668 243.349 264.385 243.632C264.102 243.915 263.71 244.056 263.209 244.056C262.665 244.056 262.238 243.899 261.929 243.584C261.62 243.269 261.465 242.824 261.465 242.248H262.369C262.369 242.557 262.433 242.797 262.561 242.968C262.694 243.139 262.897 243.224 263.169 243.224C263.42 243.224 263.604 243.152 263.721 243.008C263.838 242.864 263.897 242.677 263.897 242.448V238.352H264.809ZM269.936 239.592V244H269.016V243.04C268.904 243.365 268.71 243.619 268.432 243.8C268.155 243.976 267.832 244.064 267.464 244.064C266.952 244.064 266.542 243.899 266.232 243.568C265.923 243.237 265.768 242.765 265.768 242.152V239.592H266.68V242.056C266.68 242.456 266.782 242.765 266.984 242.984C267.187 243.197 267.464 243.304 267.816 243.304C268.179 243.304 268.47 243.187 268.688 242.952C268.907 242.717 269.016 242.376 269.016 241.928V239.592H269.936ZM273.493 239.52C274.005 239.52 274.415 239.685 274.725 240.016C275.034 240.347 275.189 240.819 275.189 241.432V244H274.277V241.528C274.277 241.133 274.175 240.829 273.973 240.616C273.77 240.397 273.493 240.288 273.141 240.288C272.778 240.288 272.487 240.405 272.269 240.64C272.05 240.869 271.941 241.208 271.941 241.656V244H271.029V239.592H271.941V240.56C272.058 240.229 272.255 239.973 272.533 239.792C272.81 239.611 273.13 239.52 273.493 239.52ZM263.079 250.352V251.088H260.655V252.84H262.655V253.544H260.655V256H259.743V250.352H263.079ZM268.156 250.352L266.276 253.944V256H265.356V253.944L263.468 250.352H264.524L265.82 252.968L267.116 250.352H268.156ZM268.605 255.288C269.469 254.696 270.16 254.117 270.677 253.552C271.2 252.981 271.461 252.453 271.461 251.968C271.461 251.68 271.389 251.451 271.245 251.28C271.106 251.109 270.88 251.024 270.565 251.024C270.24 251.024 269.994 251.131 269.829 251.344C269.664 251.552 269.57 251.851 269.549 252.24H268.661C268.698 251.595 268.896 251.101 269.253 250.76C269.616 250.419 270.077 250.248 270.637 250.248C271.186 250.248 271.616 250.395 271.925 250.688C272.24 250.976 272.397 251.376 272.397 251.888C272.397 252.299 272.269 252.715 272.013 253.136C271.762 253.557 271.442 253.947 271.053 254.304C270.664 254.656 270.261 254.96 269.845 255.216H272.525V255.96H268.605V255.288ZM276.336 251.872C276.24 251.243 275.912 250.928 275.352 250.928C274.947 250.928 274.643 251.091 274.44 251.416C274.238 251.736 274.136 252.24 274.136 252.928L274.144 253.2C274.224 252.912 274.398 252.683 274.664 252.512C274.931 252.341 275.246 252.256 275.608 252.256C276.163 252.256 276.598 252.421 276.912 252.752C277.227 253.083 277.384 253.549 277.384 254.152C277.384 254.515 277.312 254.84 277.168 255.128C277.024 255.411 276.808 255.637 276.52 255.808C276.232 255.973 275.878 256.056 275.456 256.056C274.64 256.056 274.08 255.803 273.776 255.296C273.472 254.789 273.32 254.093 273.32 253.208C273.32 252.195 273.483 251.437 273.808 250.936C274.134 250.435 274.667 250.184 275.408 250.184C275.963 250.184 276.387 250.341 276.68 250.656C276.979 250.971 277.152 251.376 277.2 251.872H276.336ZM274.224 254.048C274.224 254.395 274.326 254.685 274.528 254.92C274.731 255.149 275.03 255.264 275.424 255.264C275.76 255.264 276.027 255.165 276.224 254.968C276.427 254.771 276.528 254.496 276.528 254.144C276.528 253.765 276.427 253.475 276.224 253.272C276.022 253.069 275.747 252.968 275.4 252.968C275.086 252.968 274.811 253.061 274.576 253.248C274.342 253.435 274.224 253.701 274.224 254.048Z" fill="white"/>
<path d="M305.414 238.352V242.448C305.414 242.955 305.273 243.349 304.99 243.632C304.708 243.915 304.316 244.056 303.814 244.056C303.27 244.056 302.844 243.899 302.534 243.584C302.225 243.269 302.07 242.824 302.07 242.248H302.974C302.974 242.557 303.038 242.797 303.166 242.968C303.3 243.139 303.502 243.224 303.774 243.224C304.025 243.224 304.209 243.152 304.326 243.008C304.444 242.864 304.502 242.677 304.502 242.448V238.352H305.414ZM310.542 239.592V244H309.622V243.04C309.51 243.365 309.315 243.619 309.038 243.8C308.76 243.976 308.438 244.064 308.07 244.064C307.558 244.064 307.147 243.899 306.838 243.568C306.528 243.237 306.374 242.765 306.374 242.152V239.592H307.286V242.056C307.286 242.456 307.387 242.765 307.59 242.984C307.792 243.197 308.07 243.304 308.422 243.304C308.784 243.304 309.075 243.187 309.294 242.952C309.512 242.717 309.622 242.376 309.622 241.928V239.592H310.542ZM312.546 238.08V244H311.634V238.08H312.546ZM302.079 250.352V251.088H299.655V252.84H301.655V253.544H299.655V256H298.743V250.352H302.079ZM307.156 250.352L305.276 253.944V256H304.356V253.944L302.468 250.352H303.524L304.82 252.968L306.116 250.352H307.156ZM307.605 255.288C308.469 254.696 309.16 254.117 309.677 253.552C310.2 252.981 310.461 252.453 310.461 251.968C310.461 251.68 310.389 251.451 310.245 251.28C310.106 251.109 309.88 251.024 309.565 251.024C309.24 251.024 308.994 251.131 308.829 251.344C308.664 251.552 308.57 251.851 308.549 252.24H307.661C307.698 251.595 307.896 251.101 308.253 250.76C308.616 250.419 309.077 250.248 309.637 250.248C310.186 250.248 310.616 250.395 310.925 250.688C311.24 250.976 311.397 251.376 311.397 251.888C311.397 252.299 311.269 252.715 311.013 253.136C310.762 253.557 310.442 253.947 310.053 254.304C309.664 254.656 309.261 254.96 308.845 255.216H311.525V255.96H307.605V255.288ZM315.336 251.872C315.24 251.243 314.912 250.928 314.352 250.928C313.947 250.928 313.643 251.091 313.44 251.416C313.238 251.736 313.136 252.24 313.136 252.928L313.144 253.2C313.224 252.912 313.398 252.683 313.664 252.512C313.931 252.341 314.246 252.256 314.608 252.256C315.163 252.256 315.598 252.421 315.912 252.752C316.227 253.083 316.384 253.549 316.384 254.152C316.384 254.515 316.312 254.84 316.168 255.128C316.024 255.411 315.808 255.637 315.52 255.808C315.232 255.973 314.878 256.056 314.456 256.056C313.64 256.056 313.08 255.803 312.776 255.296C312.472 254.789 312.32 254.093 312.32 253.208C312.32 252.195 312.483 251.437 312.808 250.936C313.134 250.435 313.667 250.184 314.408 250.184C314.963 250.184 315.387 250.341 315.68 250.656C315.979 250.971 316.152 251.376 316.2 251.872H315.336ZM313.224 254.048C313.224 254.395 313.326 254.685 313.528 254.92C313.731 255.149 314.03 255.264 314.424 255.264C314.76 255.264 315.027 255.165 315.224 254.968C315.427 254.771 315.528 254.496 315.528 254.144C315.528 253.765 315.427 253.475 315.224 253.272C315.022 253.069 314.747 252.968 314.4 252.968C314.086 252.968 313.811 253.061 313.576 253.248C313.342 253.435 313.224 253.701 313.224 254.048Z" fill="white"/>
<path d="M342.416 242.776H340.032L339.6 244H338.624L340.704 238.44H341.752L343.824 244H342.848L342.416 242.776ZM342.16 242.072L341.224 239.432L340.288 242.072H342.16ZM348.565 239.592V244H347.645V243.04C347.533 243.365 347.339 243.619 347.061 243.8C346.784 243.976 346.461 244.064 346.093 244.064C345.581 244.064 345.171 243.899 344.861 243.568C344.552 243.237 344.397 242.765 344.397 242.152V239.592H345.309V242.056C345.309 242.456 345.411 242.765 345.613 242.984C345.816 243.197 346.093 243.304 346.445 243.304C346.808 243.304 347.099 243.187 347.317 242.952C347.536 242.717 347.645 242.376 347.645 241.928V239.592H348.565ZM351.425 239.536C351.825 239.536 352.167 239.635 352.449 239.832C352.732 240.029 352.932 240.291 353.049 240.616V239.592H353.961V244.048C353.961 244.459 353.876 244.821 353.705 245.136C353.54 245.456 353.3 245.707 352.985 245.888C352.671 246.069 352.297 246.16 351.865 246.16C351.247 246.16 350.745 246.013 350.361 245.72C349.983 245.427 349.745 245.029 349.649 244.528H350.553C350.628 244.789 350.772 244.992 350.985 245.136C351.199 245.285 351.471 245.36 351.801 245.36C352.164 245.36 352.463 245.248 352.697 245.024C352.932 244.8 353.049 244.475 353.049 244.048V242.976C352.932 243.301 352.732 243.563 352.449 243.76C352.167 243.957 351.825 244.056 351.425 244.056C351.041 244.056 350.697 243.965 350.393 243.784C350.095 243.603 349.86 243.341 349.689 243C349.519 242.659 349.433 242.256 349.433 241.792C349.433 241.333 349.519 240.933 349.689 240.592C349.86 240.251 350.095 239.989 350.393 239.808C350.697 239.627 351.041 239.536 351.425 239.536ZM351.705 240.336C351.3 240.336 350.975 240.467 350.729 240.728C350.489 240.984 350.369 241.339 350.369 241.792C350.369 242.245 350.489 242.603 350.729 242.864C350.975 243.12 351.3 243.248 351.705 243.248C351.961 243.248 352.191 243.189 352.393 243.072C352.596 242.949 352.756 242.779 352.873 242.56C352.991 242.341 353.049 242.085 353.049 241.792C353.049 241.504 352.991 241.251 352.873 241.032C352.756 240.808 352.596 240.637 352.393 240.52C352.191 240.397 351.961 240.336 351.705 240.336ZM341.079 250.352V251.088H338.655V252.84H340.655V253.544H338.655V256H337.743V250.352H341.079ZM346.156 250.352L344.276 253.944V256H343.356V253.944L341.468 250.352H342.524L343.82 252.968L345.116 250.352H346.156ZM346.605 255.288C347.469 254.696 348.16 254.117 348.677 253.552C349.2 252.981 349.461 252.453 349.461 251.968C349.461 251.68 349.389 251.451 349.245 251.28C349.106 251.109 348.88 251.024 348.565 251.024C348.24 251.024 347.994 251.131 347.829 251.344C347.664 251.552 347.57 251.851 347.549 252.24H346.661C346.698 251.595 346.896 251.101 347.253 250.76C347.616 250.419 348.077 250.248 348.637 250.248C349.186 250.248 349.616 250.395 349.925 250.688C350.24 250.976 350.397 251.376 350.397 251.888C350.397 252.299 350.269 252.715 350.013 253.136C349.762 253.557 349.442 253.947 349.053 254.304C348.664 254.656 348.261 254.96 347.845 255.216H350.525V255.96H346.605V255.288ZM354.336 251.872C354.24 251.243 353.912 250.928 353.352 250.928C352.947 250.928 352.643 251.091 352.44 251.416C352.238 251.736 352.136 252.24 352.136 252.928L352.144 253.2C352.224 252.912 352.398 252.683 352.664 252.512C352.931 252.341 353.246 252.256 353.608 252.256C354.163 252.256 354.598 252.421 354.912 252.752C355.227 253.083 355.384 253.549 355.384 254.152C355.384 254.515 355.312 254.84 355.168 255.128C355.024 255.411 354.808 255.637 354.52 255.808C354.232 255.973 353.878 256.056 353.456 256.056C352.64 256.056 352.08 255.803 351.776 255.296C351.472 254.789 351.32 254.093 351.32 253.208C351.32 252.195 351.483 251.437 351.808 250.936C352.134 250.435 352.667 250.184 353.408 250.184C353.963 250.184 354.387 250.341 354.68 250.656C354.979 250.971 355.152 251.376 355.2 251.872H354.336ZM352.224 254.048C352.224 254.395 352.326 254.685 352.528 254.92C352.731 255.149 353.03 255.264 353.424 255.264C353.76 255.264 354.027 255.165 354.224 254.968C354.427 254.771 354.528 254.496 354.528 254.144C354.528 253.765 354.427 253.475 354.224 253.272C354.022 253.069 353.747 252.968 353.4 252.968C353.086 252.968 352.811 253.061 352.576 253.248C352.342 253.435 352.224 253.701 352.224 254.048Z" fill="white"/>
<path d="M382.264 242.496C382.264 242.773 382.197 243.032 382.064 243.272C381.931 243.507 381.728 243.696 381.456 243.84C381.184 243.984 380.851 244.056 380.456 244.056C380.072 244.056 379.728 243.989 379.424 243.856C379.12 243.717 378.877 243.525 378.696 243.28C378.515 243.035 378.411 242.752 378.384 242.432H379.36C379.387 242.677 379.491 242.888 379.672 243.064C379.859 243.24 380.107 243.328 380.416 243.328C380.693 243.328 380.907 243.253 381.056 243.104C381.211 242.955 381.288 242.763 381.288 242.528C381.288 242.325 381.232 242.16 381.12 242.032C381.008 241.899 380.869 241.795 380.704 241.72C380.539 241.645 380.312 241.56 380.024 241.464C379.672 241.352 379.384 241.24 379.16 241.128C378.941 241.016 378.755 240.853 378.6 240.64C378.445 240.427 378.368 240.147 378.368 239.8C378.368 239.496 378.443 239.229 378.592 239C378.741 238.771 378.955 238.595 379.232 238.472C379.509 238.344 379.829 238.28 380.192 238.28C380.768 238.28 381.224 238.419 381.56 238.696C381.901 238.973 382.096 239.336 382.144 239.784H381.16C381.123 239.571 381.021 239.389 380.856 239.24C380.696 239.085 380.475 239.008 380.192 239.008C379.936 239.008 379.731 239.075 379.576 239.208C379.421 239.336 379.344 239.523 379.344 239.768C379.344 239.96 379.397 240.12 379.504 240.248C379.611 240.371 379.744 240.469 379.904 240.544C380.069 240.613 380.293 240.696 380.576 240.792C380.933 240.904 381.224 241.019 381.448 241.136C381.677 241.248 381.869 241.413 382.024 241.632C382.184 241.851 382.264 242.139 382.264 242.496ZM387.273 241.584C387.273 241.733 387.262 241.864 387.241 241.976H383.849C383.865 242.429 383.99 242.765 384.225 242.984C384.46 243.203 384.75 243.312 385.097 243.312C385.401 243.312 385.657 243.235 385.865 243.08C386.078 242.925 386.209 242.72 386.257 242.464H387.233C387.174 242.773 387.052 243.048 386.865 243.288C386.678 243.528 386.436 243.717 386.137 243.856C385.838 243.989 385.505 244.056 385.137 244.056C384.71 244.056 384.332 243.965 384.001 243.784C383.676 243.603 383.42 243.341 383.233 243C383.046 242.659 382.953 242.256 382.953 241.792C382.953 241.333 383.046 240.933 383.233 240.592C383.42 240.251 383.676 239.989 384.001 239.808C384.332 239.627 384.71 239.536 385.137 239.536C385.569 239.536 385.945 239.627 386.265 239.808C386.59 239.984 386.838 240.229 387.009 240.544C387.185 240.853 387.273 241.2 387.273 241.584ZM386.353 241.56C386.364 241.272 386.313 241.032 386.201 240.84C386.094 240.643 385.945 240.499 385.753 240.408C385.566 240.312 385.361 240.264 385.137 240.264C384.78 240.264 384.481 240.373 384.241 240.592C384.001 240.811 383.87 241.133 383.849 241.56H386.353ZM390.682 239.536C391.066 239.536 391.407 239.627 391.706 239.808C392.01 239.989 392.247 240.251 392.418 240.592C392.588 240.933 392.674 241.333 392.674 241.792C392.674 242.256 392.588 242.659 392.418 243C392.247 243.341 392.01 243.603 391.706 243.784C391.407 243.965 391.066 244.056 390.682 244.056C390.282 244.056 389.94 243.957 389.658 243.76C389.375 243.563 389.178 243.301 389.066 242.976V246.096H388.154V239.592H389.066V240.616C389.178 240.291 389.375 240.029 389.658 239.832C389.94 239.635 390.282 239.536 390.682 239.536ZM390.402 240.336C390.146 240.336 389.916 240.397 389.714 240.52C389.511 240.637 389.351 240.808 389.234 241.032C389.116 241.251 389.058 241.504 389.058 241.792C389.058 242.085 389.116 242.341 389.234 242.56C389.351 242.779 389.511 242.949 389.714 243.072C389.916 243.189 390.146 243.248 390.402 243.248C390.807 243.248 391.132 243.12 391.378 242.864C391.623 242.603 391.746 242.245 391.746 241.792C391.746 241.344 391.623 240.989 391.378 240.728C391.132 240.467 390.807 240.336 390.402 240.336ZM380.079 250.352V251.088H377.655V252.84H379.655V253.544H377.655V256H376.743V250.352H380.079ZM385.156 250.352L383.276 253.944V256H382.356V253.944L380.468 250.352H381.524L382.82 252.968L384.116 250.352H385.156ZM385.605 255.288C386.469 254.696 387.16 254.117 387.677 253.552C388.2 252.981 388.461 252.453 388.461 251.968C388.461 251.68 388.389 251.451 388.245 251.28C388.106 251.109 387.88 251.024 387.565 251.024C387.24 251.024 386.994 251.131 386.829 251.344C386.664 251.552 386.57 251.851 386.549 252.24H385.661C385.698 251.595 385.896 251.101 386.253 250.76C386.616 250.419 387.077 250.248 387.637 250.248C388.186 250.248 388.616 250.395 388.925 250.688C389.24 250.976 389.397 251.376 389.397 251.888C389.397 252.299 389.269 252.715 389.013 253.136C388.762 253.557 388.442 253.947 388.053 254.304C387.664 254.656 387.261 254.96 386.845 255.216H389.525V255.96H385.605V255.288ZM393.336 251.872C393.24 251.243 392.912 250.928 392.352 250.928C391.947 250.928 391.643 251.091 391.44 251.416C391.238 251.736 391.136 252.24 391.136 252.928L391.144 253.2C391.224 252.912 391.398 252.683 391.664 252.512C391.931 252.341 392.246 252.256 392.608 252.256C393.163 252.256 393.598 252.421 393.912 252.752C394.227 253.083 394.384 253.549 394.384 254.152C394.384 254.515 394.312 254.84 394.168 255.128C394.024 255.411 393.808 255.637 393.52 255.808C393.232 255.973 392.878 256.056 392.456 256.056C391.64 256.056 391.08 255.803 390.776 255.296C390.472 254.789 390.32 254.093 390.32 253.208C390.32 252.195 390.483 251.437 390.808 250.936C391.134 250.435 391.667 250.184 392.408 250.184C392.963 250.184 393.387 250.341 393.68 250.656C393.979 250.971 394.152 251.376 394.2 251.872H393.336ZM391.224 254.048C391.224 254.395 391.326 254.685 391.528 254.92C391.731 255.149 392.03 255.264 392.424 255.264C392.76 255.264 393.027 255.165 393.224 254.968C393.427 254.771 393.528 254.496 393.528 254.144C393.528 253.765 393.427 253.475 393.224 253.272C393.022 253.069 392.747 252.968 392.4 252.968C392.086 252.968 391.811 253.061 391.576 253.248C391.342 253.435 391.224 253.701 391.224 254.048Z" fill="white"/>
<path d="M420.496 238.28C421.019 238.28 421.491 238.403 421.912 238.648C422.339 238.893 422.672 239.237 422.912 239.68C423.157 240.117 423.28 240.613 423.28 241.168C423.28 241.723 423.157 242.221 422.912 242.664C422.672 243.101 422.339 243.445 421.912 243.696C421.491 243.941 421.019 244.064 420.496 244.064C419.968 244.064 419.491 243.941 419.064 243.696C418.643 243.445 418.309 243.101 418.064 242.664C417.819 242.221 417.696 241.723 417.696 241.168C417.696 240.613 417.819 240.117 418.064 239.68C418.309 239.237 418.643 238.893 419.064 238.648C419.491 238.403 419.968 238.28 420.496 238.28ZM420.496 239.128C420.133 239.128 419.811 239.211 419.528 239.376C419.245 239.541 419.024 239.779 418.864 240.088C418.709 240.397 418.632 240.757 418.632 241.168C418.632 241.579 418.709 241.939 418.864 242.248C419.024 242.557 419.245 242.795 419.528 242.96C419.811 243.125 420.133 243.208 420.496 243.208C420.853 243.208 421.171 243.125 421.448 242.96C421.731 242.795 421.949 242.557 422.104 242.248C422.264 241.939 422.344 241.579 422.344 241.168C422.344 240.757 422.264 240.397 422.104 240.088C421.949 239.779 421.731 239.541 421.448 239.376C421.171 239.211 420.853 239.128 420.496 239.128ZM426.16 239.536C426.731 239.536 427.203 239.688 427.576 239.992C427.95 240.291 428.182 240.699 428.272 241.216H427.304C427.251 240.939 427.12 240.723 426.912 240.568C426.71 240.408 426.454 240.328 426.144 240.328C425.792 240.328 425.499 240.453 425.264 240.704C425.03 240.949 424.912 241.312 424.912 241.792C424.912 242.272 425.03 242.637 425.264 242.888C425.499 243.139 425.792 243.264 426.144 243.264C426.454 243.264 426.71 243.184 426.912 243.024C427.12 242.864 427.251 242.645 427.304 242.368H428.272C428.182 242.885 427.95 243.296 427.576 243.6C427.203 243.904 426.731 244.056 426.16 244.056C425.734 244.056 425.355 243.965 425.024 243.784C424.699 243.603 424.443 243.341 424.256 243C424.07 242.659 423.976 242.256 423.976 241.792C423.976 241.333 424.07 240.933 424.256 240.592C424.443 240.251 424.699 239.989 425.024 239.808C425.355 239.627 425.734 239.536 426.16 239.536ZM431.37 243.208V244H430.81C430.34 244 429.983 243.888 429.738 243.664C429.498 243.435 429.378 243.056 429.378 242.528V240.368H428.746V239.592H429.378V238.496H430.298V239.592H431.362V240.368H430.298V242.544C430.298 242.795 430.343 242.968 430.434 243.064C430.53 243.16 430.695 243.208 430.93 243.208H431.37ZM419.079 250.352V251.088H416.655V252.84H418.655V253.544H416.655V256H415.743V250.352H419.079ZM424.156 250.352L422.276 253.944V256H421.356V253.944L419.468 250.352H420.524L421.82 252.968L423.116 250.352H424.156ZM424.605 255.288C425.469 254.696 426.16 254.117 426.677 253.552C427.2 252.981 427.461 252.453 427.461 251.968C427.461 251.68 427.389 251.451 427.245 251.28C427.106 251.109 426.88 251.024 426.565 251.024C426.24 251.024 425.994 251.131 425.829 251.344C425.664 251.552 425.57 251.851 425.549 252.24H424.661C424.698 251.595 424.896 251.101 425.253 250.76C425.616 250.419 426.077 250.248 426.637 250.248C427.186 250.248 427.616 250.395 427.925 250.688C428.24 250.976 428.397 251.376 428.397 251.888C428.397 252.299 428.269 252.715 428.013 253.136C427.762 253.557 427.442 253.947 427.053 254.304C426.664 254.656 426.261 254.96 425.845 255.216H428.525V255.96H424.605V255.288ZM432.336 251.872C432.24 251.243 431.912 250.928 431.352 250.928C430.947 250.928 430.643 251.091 430.44 251.416C430.238 251.736 430.136 252.24 430.136 252.928L430.144 253.2C430.224 252.912 430.398 252.683 430.664 252.512C430.931 252.341 431.246 252.256 431.608 252.256C432.163 252.256 432.598 252.421 432.912 252.752C433.227 253.083 433.384 253.549 433.384 254.152C433.384 254.515 433.312 254.84 433.168 255.128C433.024 255.411 432.808 255.637 432.52 255.808C432.232 255.973 431.878 256.056 431.456 256.056C430.64 256.056 430.08 255.803 429.776 255.296C429.472 254.789 429.32 254.093 429.32 253.208C429.32 252.195 429.483 251.437 429.808 250.936C430.134 250.435 430.667 250.184 431.408 250.184C431.963 250.184 432.387 250.341 432.68 250.656C432.979 250.971 433.152 251.376 433.2 251.872H432.336ZM430.224 254.048C430.224 254.395 430.326 254.685 430.528 254.92C430.731 255.149 431.03 255.264 431.424 255.264C431.76 255.264 432.027 255.165 432.224 254.968C432.427 254.771 432.528 254.496 432.528 254.144C432.528 253.765 432.427 253.475 432.224 253.272C432.022 253.069 431.747 252.968 431.4 252.968C431.086 252.968 430.811 253.061 430.576 253.248C430.342 253.435 430.224 253.701 430.224 254.048Z" fill="white"/>
<path d="M460.866 244H459.954L457.21 239.832V244H456.298V238.36H457.21L459.954 242.544V238.36H460.866V244ZM463.986 239.536C464.413 239.536 464.797 239.627 465.138 239.808C465.479 239.989 465.746 240.251 465.938 240.592C466.13 240.933 466.226 241.333 466.226 241.792C466.226 242.256 466.13 242.659 465.938 243C465.746 243.341 465.479 243.603 465.138 243.784C464.797 243.965 464.413 244.056 463.986 244.056C463.559 244.056 463.175 243.965 462.834 243.784C462.498 243.603 462.231 243.341 462.034 243C461.842 242.653 461.746 242.251 461.746 241.792C461.746 241.333 461.842 240.933 462.034 240.592C462.231 240.251 462.498 239.989 462.834 239.808C463.175 239.627 463.559 239.536 463.986 239.536ZM463.986 240.328C463.751 240.328 463.535 240.381 463.338 240.488C463.141 240.595 462.981 240.76 462.858 240.984C462.741 241.203 462.682 241.472 462.682 241.792C462.682 242.117 462.741 242.389 462.858 242.608C462.981 242.827 463.141 242.989 463.338 243.096C463.535 243.203 463.751 243.256 463.986 243.256C464.221 243.256 464.437 243.203 464.634 243.096C464.831 242.989 464.989 242.827 465.106 242.608C465.229 242.389 465.29 242.117 465.29 241.792C465.29 241.472 465.229 241.203 465.106 240.984C464.989 240.76 464.831 240.595 464.634 240.488C464.437 240.381 464.221 240.328 463.986 240.328ZM468.911 243.056L470.159 239.592H471.135L469.455 244H468.351L466.671 239.592H467.647L468.911 243.056ZM458.079 250.352V251.088H455.655V252.84H457.655V253.544H455.655V256H454.743V250.352H458.079ZM463.156 250.352L461.276 253.944V256H460.356V253.944L458.468 250.352H459.524L460.82 252.968L462.116 250.352H463.156ZM463.605 255.288C464.469 254.696 465.16 254.117 465.677 253.552C466.2 252.981 466.461 252.453 466.461 251.968C466.461 251.68 466.389 251.451 466.245 251.28C466.106 251.109 465.88 251.024 465.565 251.024C465.24 251.024 464.994 251.131 464.829 251.344C464.664 251.552 464.57 251.851 464.549 252.24H463.661C463.698 251.595 463.896 251.101 464.253 250.76C464.616 250.419 465.077 250.248 465.637 250.248C466.186 250.248 466.616 250.395 466.925 250.688C467.24 250.976 467.397 251.376 467.397 251.888C467.397 252.299 467.269 252.715 467.013 253.136C466.762 253.557 466.442 253.947 466.053 254.304C465.664 254.656 465.261 254.96 464.845 255.216H467.525V255.96H463.605V255.288ZM471.336 251.872C471.24 251.243 470.912 250.928 470.352 250.928C469.947 250.928 469.643 251.091 469.44 251.416C469.238 251.736 469.136 252.24 469.136 252.928L469.144 253.2C469.224 252.912 469.398 252.683 469.664 252.512C469.931 252.341 470.246 252.256 470.608 252.256C471.163 252.256 471.598 252.421 471.912 252.752C472.227 253.083 472.384 253.549 472.384 254.152C472.384 254.515 472.312 254.84 472.168 255.128C472.024 255.411 471.808 255.637 471.52 255.808C471.232 255.973 470.878 256.056 470.456 256.056C469.64 256.056 469.08 255.803 468.776 255.296C468.472 254.789 468.32 254.093 468.32 253.208C468.32 252.195 468.483 251.437 468.808 250.936C469.134 250.435 469.667 250.184 470.408 250.184C470.963 250.184 471.387 250.341 471.68 250.656C471.979 250.971 472.152 251.376 472.2 251.872H471.336ZM469.224 254.048C469.224 254.395 469.326 254.685 469.528 254.92C469.731 255.149 470.03 255.264 470.424 255.264C470.76 255.264 471.027 255.165 471.224 254.968C471.427 254.771 471.528 254.496 471.528 254.144C471.528 253.765 471.427 253.475 471.224 253.272C471.022 253.069 470.747 252.968 470.4 252.968C470.086 252.968 469.811 253.061 469.576 253.248C469.342 253.435 469.224 253.701 469.224 254.048Z" fill="white"/>
<path d="M500.177 241.168C500.177 241.739 500.06 242.237 499.825 242.664C499.596 243.085 499.257 243.413 498.809 243.648C498.367 243.883 497.836 244 497.217 244H495.329V238.352H497.217C497.836 238.352 498.367 238.469 498.809 238.704C499.257 238.933 499.596 239.259 499.825 239.68C500.06 240.101 500.177 240.597 500.177 241.168ZM497.145 243.176C497.823 243.176 498.343 243 498.705 242.648C499.068 242.296 499.249 241.803 499.249 241.168C499.249 240.533 499.068 240.04 498.705 239.688C498.343 239.336 497.823 239.16 497.145 239.16H496.241V243.176H497.145ZM505.191 241.584C505.191 241.733 505.18 241.864 505.159 241.976H501.767C501.783 242.429 501.908 242.765 502.143 242.984C502.378 243.203 502.668 243.312 503.015 243.312C503.319 243.312 503.575 243.235 503.783 243.08C503.996 242.925 504.127 242.72 504.175 242.464H505.151C505.092 242.773 504.97 243.048 504.783 243.288C504.596 243.528 504.354 243.717 504.055 243.856C503.756 243.989 503.423 244.056 503.055 244.056C502.628 244.056 502.25 243.965 501.919 243.784C501.594 243.603 501.338 243.341 501.151 243C500.964 242.659 500.871 242.256 500.871 241.792C500.871 241.333 500.964 240.933 501.151 240.592C501.338 240.251 501.594 239.989 501.919 239.808C502.25 239.627 502.628 239.536 503.055 239.536C503.487 239.536 503.863 239.627 504.183 239.808C504.508 239.984 504.756 240.229 504.927 240.544C505.103 240.853 505.191 241.2 505.191 241.584ZM504.271 241.56C504.282 241.272 504.231 241.032 504.119 240.84C504.012 240.643 503.863 240.499 503.671 240.408C503.484 240.312 503.279 240.264 503.055 240.264C502.698 240.264 502.399 240.373 502.159 240.592C501.919 240.811 501.788 241.133 501.767 241.56H504.271ZM507.88 243.056L509.128 239.592H510.104L508.424 244H507.32L505.64 239.592H506.616L507.88 243.056ZM497.079 250.352V251.088H494.655V252.84H496.655V253.544H494.655V256H493.743V250.352H497.079ZM502.156 250.352L500.276 253.944V256H499.356V253.944L497.468 250.352H498.524L499.82 252.968L501.116 250.352H502.156ZM502.605 255.288C503.469 254.696 504.16 254.117 504.677 253.552C505.2 252.981 505.461 252.453 505.461 251.968C505.461 251.68 505.389 251.451 505.245 251.28C505.106 251.109 504.88 251.024 504.565 251.024C504.24 251.024 503.994 251.131 503.829 251.344C503.664 251.552 503.57 251.851 503.549 252.24H502.661C502.698 251.595 502.896 251.101 503.253 250.76C503.616 250.419 504.077 250.248 504.637 250.248C505.186 250.248 505.616 250.395 505.925 250.688C506.24 250.976 506.397 251.376 506.397 251.888C506.397 252.299 506.269 252.715 506.013 253.136C505.762 253.557 505.442 253.947 505.053 254.304C504.664 254.656 504.261 254.96 503.845 255.216H506.525V255.96H502.605V255.288ZM510.336 251.872C510.24 251.243 509.912 250.928 509.352 250.928C508.947 250.928 508.643 251.091 508.44 251.416C508.238 251.736 508.136 252.24 508.136 252.928L508.144 253.2C508.224 252.912 508.398 252.683 508.664 252.512C508.931 252.341 509.246 252.256 509.608 252.256C510.163 252.256 510.598 252.421 510.912 252.752C511.227 253.083 511.384 253.549 511.384 254.152C511.384 254.515 511.312 254.84 511.168 255.128C511.024 255.411 510.808 255.637 510.52 255.808C510.232 255.973 509.878 256.056 509.456 256.056C508.64 256.056 508.08 255.803 507.776 255.296C507.472 254.789 507.32 254.093 507.32 253.208C507.32 252.195 507.483 251.437 507.808 250.936C508.134 250.435 508.667 250.184 509.408 250.184C509.963 250.184 510.387 250.341 510.68 250.656C510.979 250.971 511.152 251.376 511.2 251.872H510.336ZM508.224 254.048C508.224 254.395 508.326 254.685 508.528 254.92C508.731 255.149 509.03 255.264 509.424 255.264C509.76 255.264 510.027 255.165 510.224 254.968C510.427 254.771 510.528 254.496 510.528 254.144C510.528 253.765 510.427 253.475 510.224 253.272C510.022 253.069 509.747 252.968 509.4 252.968C509.086 252.968 508.811 253.061 508.576 253.248C508.342 253.435 508.224 253.701 508.224 254.048Z" fill="white"/>
<path d="M80.864 290.624H78.296L77.784 292H77.184L79.264 286.488H79.896L81.976 292H81.368L80.864 290.624ZM80.696 290.176L79.584 287.136L78.456 290.176H80.696ZM84.6844 287.576C85.2391 287.576 85.6978 287.723 86.0604 288.016C86.4284 288.309 86.6524 288.699 86.7324 289.184H86.1484C86.0898 288.837 85.9271 288.565 85.6604 288.368C85.3938 288.165 85.0658 288.064 84.6764 288.064C84.3938 288.064 84.1324 288.128 83.8924 288.256C83.6578 288.384 83.4684 288.581 83.3244 288.848C83.1858 289.109 83.1164 289.432 83.1164 289.816C83.1164 290.2 83.1858 290.525 83.3244 290.792C83.4684 291.053 83.6578 291.248 83.8924 291.376C84.1324 291.504 84.3938 291.568 84.6764 291.568C85.0658 291.568 85.3938 291.469 85.6604 291.272C85.9271 291.069 86.0898 290.795 86.1484 290.448H86.7324C86.6524 290.933 86.4284 291.323 86.0604 291.616C85.6978 291.909 85.2391 292.056 84.6844 292.056C84.2684 292.056 83.8978 291.968 83.5724 291.792C83.2524 291.611 83.0018 291.352 82.8204 291.016C82.6391 290.675 82.5484 290.275 82.5484 289.816C82.5484 289.357 82.6391 288.96 82.8204 288.624C83.0018 288.283 83.2524 288.024 83.5724 287.848C83.8978 287.667 84.2684 287.576 84.6844 287.576ZM89.7248 291.504V292H89.2048C88.7835 292 88.4688 291.901 88.2608 291.704C88.0528 291.501 87.9488 291.163 87.9488 290.688V288.12H87.2848V287.632H87.9488V286.528H88.5168V287.632H89.7168V288.12H88.5168V290.696C88.5168 291.005 88.5728 291.219 88.6848 291.336C88.7968 291.448 88.9941 291.504 89.2768 291.504H89.7248ZM94.4151 287.632V292H93.8551V290.92C93.7431 291.299 93.5404 291.587 93.2471 291.784C92.9537 291.981 92.6177 292.08 92.2391 292.08C91.7271 292.08 91.3111 291.92 90.9911 291.6C90.6764 291.275 90.5191 290.8 90.5191 290.176V287.632H91.0791V290.128C91.0791 290.608 91.1991 290.976 91.4391 291.232C91.6791 291.483 92.0071 291.608 92.4231 291.608C92.8604 291.608 93.2071 291.469 93.4631 291.192C93.7244 290.909 93.8551 290.496 93.8551 289.952V287.632H94.4151ZM97.4793 287.576C97.9219 287.576 98.2979 287.691 98.6073 287.92C98.9219 288.149 99.1379 288.453 99.2552 288.832V287.632H99.8073V292H99.2552V290.8C99.1379 291.179 98.9219 291.483 98.6073 291.712C98.2979 291.941 97.9219 292.056 97.4793 292.056C97.0846 292.056 96.7299 291.965 96.4153 291.784C96.1059 291.603 95.8633 291.344 95.6873 291.008C95.5166 290.667 95.4313 290.269 95.4313 289.816C95.4313 289.357 95.5166 288.96 95.6873 288.624C95.8633 288.283 96.1059 288.024 96.4153 287.848C96.7246 287.667 97.0793 287.576 97.4793 287.576ZM97.6233 288.072C97.1326 288.072 96.7379 288.229 96.4393 288.544C96.1459 288.853 95.9993 289.277 95.9993 289.816C95.9993 290.355 96.1459 290.781 96.4393 291.096C96.7379 291.405 97.1326 291.56 97.6233 291.56C97.9326 291.56 98.2099 291.488 98.4553 291.344C98.7059 291.2 98.9006 290.997 99.0393 290.736C99.1833 290.469 99.2552 290.163 99.2552 289.816C99.2552 289.469 99.1833 289.165 99.0393 288.904C98.9006 288.637 98.7059 288.432 98.4553 288.288C98.2099 288.144 97.9326 288.072 97.6233 288.072ZM101.59 286.08V292H101.022V286.08H101.59Z" fill="white"/>
<rect opacity="0.18" x="69" y="287" width="5" height="5" fill="#28A4EB"/>
<path d="M129.176 286.816V288.944H131.376V289.384H129.176V291.536H131.616V292H128.608V286.36H131.616V286.816H129.176ZM133.912 287.576C134.387 287.576 134.768 287.701 135.056 287.952C135.344 288.203 135.52 288.541 135.584 288.968H135.048C135.016 288.685 134.899 288.453 134.696 288.272C134.499 288.085 134.232 287.992 133.896 287.992C133.608 287.992 133.382 288.064 133.216 288.208C133.056 288.347 132.976 288.533 132.976 288.768C132.976 288.944 133.027 289.085 133.128 289.192C133.235 289.299 133.366 289.381 133.52 289.44C133.675 289.493 133.883 289.549 134.144 289.608C134.464 289.683 134.72 289.76 134.912 289.84C135.11 289.915 135.278 290.035 135.416 290.2C135.555 290.365 135.624 290.589 135.624 290.872C135.624 291.219 135.494 291.504 135.232 291.728C134.976 291.947 134.635 292.056 134.208 292.056C133.707 292.056 133.296 291.933 132.976 291.688C132.656 291.437 132.467 291.096 132.408 290.664H132.952C132.984 290.952 133.11 291.187 133.328 291.368C133.547 291.549 133.843 291.64 134.216 291.64C134.494 291.64 134.71 291.568 134.864 291.424C135.019 291.28 135.096 291.093 135.096 290.864C135.096 290.677 135.043 290.528 134.936 290.416C134.83 290.304 134.696 290.221 134.536 290.168C134.382 290.109 134.168 290.048 133.896 289.984C133.582 289.909 133.328 289.835 133.136 289.76C132.95 289.685 132.79 289.571 132.656 289.416C132.523 289.256 132.456 289.04 132.456 288.768C132.456 288.411 132.587 288.123 132.848 287.904C133.11 287.685 133.464 287.576 133.912 287.576ZM138.631 291.504V292H138.111C137.69 292 137.375 291.901 137.167 291.704C136.959 291.501 136.855 291.163 136.855 290.688V288.12H136.191V287.632H136.855V286.528H137.423V287.632H138.623V288.12H137.423V290.696C137.423 291.005 137.479 291.219 137.591 291.336C137.703 291.448 137.9 291.504 138.183 291.504H138.631ZM139.425 286.336C139.425 286.219 139.463 286.125 139.537 286.056C139.617 285.987 139.719 285.952 139.841 285.952C139.964 285.952 140.063 285.987 140.137 286.056C140.212 286.125 140.249 286.219 140.249 286.336C140.249 286.448 140.212 286.539 140.137 286.608C140.063 286.677 139.964 286.712 139.841 286.712C139.719 286.712 139.617 286.677 139.537 286.608C139.463 286.539 139.425 286.448 139.425 286.336ZM140.121 287.632V292H139.553V287.632H140.121ZM146.639 287.552C147.14 287.552 147.545 287.715 147.855 288.04C148.169 288.36 148.327 288.832 148.327 289.456V292H147.767V289.496C147.767 289.027 147.652 288.667 147.423 288.416C147.199 288.165 146.889 288.04 146.495 288.04C146.073 288.04 145.737 288.179 145.487 288.456C145.236 288.733 145.111 289.141 145.111 289.68V292H144.559V289.496C144.559 289.027 144.444 288.667 144.215 288.416C143.991 288.165 143.681 288.04 143.287 288.04C142.865 288.04 142.529 288.179 142.279 288.456C142.028 288.733 141.903 289.141 141.903 289.68V292H141.335V287.632H141.903V288.672C142.009 288.304 142.201 288.027 142.479 287.84C142.761 287.648 143.087 287.552 143.455 287.552C143.839 287.552 144.169 287.653 144.447 287.856C144.724 288.059 144.916 288.357 145.023 288.752C145.14 288.363 145.345 288.067 145.639 287.864C145.932 287.656 146.265 287.552 146.639 287.552ZM151.346 287.576C151.789 287.576 152.165 287.691 152.474 287.92C152.789 288.149 153.005 288.453 153.122 288.832V287.632H153.674V292H153.122V290.8C153.005 291.179 152.789 291.483 152.474 291.712C152.165 291.941 151.789 292.056 151.346 292.056C150.952 292.056 150.597 291.965 150.282 291.784C149.973 291.603 149.73 291.344 149.554 291.008C149.384 290.667 149.298 290.269 149.298 289.816C149.298 289.357 149.384 288.96 149.554 288.624C149.73 288.283 149.973 288.024 150.282 287.848C150.592 287.667 150.946 287.576 151.346 287.576ZM151.49 288.072C151 288.072 150.605 288.229 150.306 288.544C150.013 288.853 149.866 289.277 149.866 289.816C149.866 290.355 150.013 290.781 150.306 291.096C150.605 291.405 151 291.56 151.49 291.56C151.8 291.56 152.077 291.488 152.322 291.344C152.573 291.2 152.768 290.997 152.906 290.736C153.05 290.469 153.122 290.163 153.122 289.816C153.122 289.469 153.05 289.165 152.906 288.904C152.768 288.637 152.573 288.432 152.322 288.288C152.077 288.144 151.8 288.072 151.49 288.072ZM156.873 291.504V292H156.353C155.932 292 155.617 291.901 155.409 291.704C155.201 291.501 155.097 291.163 155.097 290.688V288.12H154.433V287.632H155.097V286.528H155.665V287.632H156.865V288.12H155.665V290.696C155.665 291.005 155.721 291.219 155.833 291.336C155.945 291.448 156.143 291.504 156.425 291.504H156.873ZM159.7 291.592C160.094 291.592 160.425 291.493 160.692 291.296C160.958 291.099 161.118 290.832 161.172 290.496H161.764C161.684 290.96 161.462 291.336 161.1 291.624C160.737 291.912 160.278 292.056 159.724 292.056C159.308 292.056 158.937 291.968 158.612 291.792C158.292 291.611 158.041 291.352 157.86 291.016C157.678 290.675 157.588 290.275 157.588 289.816C157.588 289.357 157.678 288.96 157.86 288.624C158.041 288.283 158.292 288.024 158.612 287.848C158.937 287.667 159.308 287.576 159.724 287.576C160.15 287.576 160.518 287.667 160.828 287.848C161.142 288.024 161.38 288.261 161.54 288.56C161.705 288.859 161.788 289.184 161.788 289.536C161.788 289.685 161.777 289.821 161.756 289.944H158.14C158.145 290.312 158.22 290.621 158.363 290.872C158.513 291.117 158.705 291.299 158.94 291.416C159.174 291.533 159.428 291.592 159.7 291.592ZM159.724 288.032C159.441 288.032 159.182 288.091 158.948 288.208C158.713 288.325 158.521 288.507 158.372 288.752C158.228 288.992 158.15 289.293 158.14 289.656H161.227C161.249 289.299 161.19 288.997 161.052 288.752C160.913 288.507 160.726 288.325 160.492 288.208C160.257 288.091 160.001 288.032 159.724 288.032Z" fill="white"/>
<rect opacity="0.18" x="120" y="287" width="5" height="5" fill="#00B985"/>
<path d="M211.672 286.36V286.816H209.176V288.968H211.336V289.408H209.176V292H208.608V286.36H211.672ZM214.553 287.576C214.969 287.576 215.339 287.667 215.665 287.848C215.995 288.024 216.254 288.283 216.441 288.624C216.627 288.96 216.721 289.357 216.721 289.816C216.721 290.275 216.627 290.672 216.441 291.008C216.254 291.344 215.995 291.603 215.665 291.784C215.339 291.965 214.969 292.056 214.553 292.056C214.137 292.056 213.763 291.965 213.433 291.784C213.102 291.603 212.841 291.344 212.649 291.008C212.462 290.667 212.369 290.269 212.369 289.816C212.369 289.357 212.462 288.96 212.649 288.624C212.841 288.283 213.102 288.024 213.433 287.848C213.763 287.667 214.137 287.576 214.553 287.576ZM214.553 288.064C214.265 288.064 213.998 288.128 213.753 288.256C213.507 288.384 213.31 288.581 213.161 288.848C213.011 289.109 212.937 289.432 212.937 289.816C212.937 290.2 213.011 290.523 213.161 290.784C213.31 291.045 213.507 291.24 213.753 291.368C213.998 291.496 214.265 291.56 214.553 291.56C214.835 291.56 215.097 291.496 215.337 291.368C215.582 291.24 215.779 291.045 215.929 290.784C216.078 290.523 216.153 290.2 216.153 289.816C216.153 289.432 216.078 289.109 215.929 288.848C215.779 288.581 215.582 288.384 215.337 288.256C215.097 288.128 214.835 288.064 214.553 288.064ZM218.293 288.536C218.421 288.221 218.627 287.979 218.909 287.808C219.192 287.637 219.536 287.552 219.941 287.552V288.16H219.757C219.336 288.16 218.987 288.275 218.709 288.504C218.432 288.728 218.293 289.096 218.293 289.608V292H217.725V287.632H218.293V288.536ZM222.59 291.592C222.985 291.592 223.315 291.493 223.582 291.296C223.849 291.099 224.009 290.832 224.062 290.496H224.654C224.574 290.96 224.353 291.336 223.99 291.624C223.627 291.912 223.169 292.056 222.614 292.056C222.198 292.056 221.827 291.968 221.502 291.792C221.182 291.611 220.931 291.352 220.75 291.016C220.569 290.675 220.478 290.275 220.478 289.816C220.478 289.357 220.569 288.96 220.75 288.624C220.931 288.283 221.182 288.024 221.502 287.848C221.827 287.667 222.198 287.576 222.614 287.576C223.041 287.576 223.409 287.667 223.718 287.848C224.033 288.024 224.27 288.261 224.43 288.56C224.595 288.859 224.678 289.184 224.678 289.536C224.678 289.685 224.667 289.821 224.646 289.944H221.03C221.035 290.312 221.11 290.621 221.254 290.872C221.403 291.117 221.595 291.299 221.83 291.416C222.065 291.533 222.318 291.592 222.59 291.592ZM222.614 288.032C222.331 288.032 222.073 288.091 221.838 288.208C221.603 288.325 221.411 288.507 221.262 288.752C221.118 288.992 221.041 289.293 221.03 289.656H224.118C224.139 289.299 224.081 288.997 223.942 288.752C223.803 288.507 223.617 288.325 223.382 288.208C223.147 288.091 222.891 288.032 222.614 288.032ZM227.614 287.576C228.169 287.576 228.627 287.723 228.99 288.016C229.358 288.309 229.582 288.699 229.662 289.184H229.078C229.019 288.837 228.857 288.565 228.59 288.368C228.323 288.165 227.995 288.064 227.606 288.064C227.323 288.064 227.062 288.128 226.822 288.256C226.587 288.384 226.398 288.581 226.254 288.848C226.115 289.109 226.046 289.432 226.046 289.816C226.046 290.2 226.115 290.525 226.254 290.792C226.398 291.053 226.587 291.248 226.822 291.376C227.062 291.504 227.323 291.568 227.606 291.568C227.995 291.568 228.323 291.469 228.59 291.272C228.857 291.069 229.019 290.795 229.078 290.448H229.662C229.582 290.933 229.358 291.323 228.99 291.616C228.627 291.909 228.169 292.056 227.614 292.056C227.198 292.056 226.827 291.968 226.502 291.792C226.182 291.611 225.931 291.352 225.75 291.016C225.569 290.675 225.478 290.275 225.478 289.816C225.478 289.357 225.569 288.96 225.75 288.624C225.931 288.283 226.182 288.024 226.502 287.848C226.827 287.667 227.198 287.576 227.614 287.576ZM232.511 287.576C232.953 287.576 233.329 287.691 233.639 287.92C233.953 288.149 234.169 288.453 234.286 288.832V287.632H234.839V292H234.286V290.8C234.169 291.179 233.953 291.483 233.639 291.712C233.329 291.941 232.953 292.056 232.511 292.056C232.116 292.056 231.761 291.965 231.447 291.784C231.137 291.603 230.895 291.344 230.719 291.008C230.548 290.667 230.463 290.269 230.463 289.816C230.463 289.357 230.548 288.96 230.719 288.624C230.895 288.283 231.137 288.024 231.447 287.848C231.756 287.667 232.111 287.576 232.511 287.576ZM232.655 288.072C232.164 288.072 231.769 288.229 231.471 288.544C231.177 288.853 231.031 289.277 231.031 289.816C231.031 290.355 231.177 290.781 231.471 291.096C231.769 291.405 232.164 291.56 232.655 291.56C232.964 291.56 233.241 291.488 233.487 291.344C233.737 291.2 233.932 290.997 234.071 290.736C234.215 290.469 234.286 290.163 234.286 289.816C234.286 289.469 234.215 289.165 234.071 288.904C233.932 288.637 233.737 288.432 233.487 288.288C233.241 288.144 232.964 288.072 232.655 288.072ZM237.373 287.576C237.848 287.576 238.229 287.701 238.517 287.952C238.805 288.203 238.981 288.541 239.045 288.968H238.509C238.477 288.685 238.36 288.453 238.157 288.272C237.96 288.085 237.693 287.992 237.357 287.992C237.069 287.992 236.843 288.064 236.677 288.208C236.517 288.347 236.437 288.533 236.437 288.768C236.437 288.944 236.488 289.085 236.589 289.192C236.696 289.299 236.827 289.381 236.981 289.44C237.136 289.493 237.344 289.549 237.605 289.608C237.925 289.683 238.181 289.76 238.373 289.84C238.571 289.915 238.739 290.035 238.877 290.2C239.016 290.365 239.085 290.589 239.085 290.872C239.085 291.219 238.955 291.504 238.693 291.728C238.437 291.947 238.096 292.056 237.669 292.056C237.168 292.056 236.757 291.933 236.437 291.688C236.117 291.437 235.928 291.096 235.869 290.664H236.413C236.445 290.952 236.571 291.187 236.789 291.368C237.008 291.549 237.304 291.64 237.677 291.64C237.955 291.64 238.171 291.568 238.325 291.424C238.48 291.28 238.557 291.093 238.557 290.864C238.557 290.677 238.504 290.528 238.397 290.416C238.291 290.304 238.157 290.221 237.997 290.168C237.843 290.109 237.629 290.048 237.357 289.984C237.043 289.909 236.789 289.835 236.597 289.76C236.411 289.685 236.251 289.571 236.117 289.416C235.984 289.256 235.917 289.04 235.917 288.768C235.917 288.411 236.048 288.123 236.309 287.904C236.571 287.685 236.925 287.576 237.373 287.576ZM242.092 291.504V292H241.572C241.151 292 240.836 291.901 240.628 291.704C240.42 291.501 240.316 291.163 240.316 290.688V288.12H239.652V287.632H240.316V286.528H240.884V287.632H242.084V288.12H240.884V290.696C240.884 291.005 240.94 291.219 241.052 291.336C241.164 291.448 241.361 291.504 241.644 291.504H242.092Z" fill="white"/>
<rect x="180" y="288" width="24" height="3" fill="#77B900"/>
<path opacity="0.18" d="M73.5 229.5V217L546 108.5V229.5H73.5Z" fill="#00B985"/>
<path opacity="0.18" d="M73.5 230V217.397L380.5 146.5L381 230H73.5Z" fill="#28A4EB"/>
<path d="M73.5 90.5V229.5H546" stroke="#18250A" stroke-width="2"/>
<path d="M74.5 221L545.5 94" stroke="#77B900" stroke-width="2"/>
<defs>
<linearGradient id="paint0_linear_1290_1539" x1="281.5" y1="0" x2="281.5" y2="325" gradientUnits="userSpaceOnUse">
<stop stop-color="#0F1800"/>
<stop offset="1" stop-color="#77B900"/>
</linearGradient>
</defs>
</svg>
