<svg width="35" height="35" viewBox="0 0 35 35" fill="none" xmlns="http://www.w3.org/2000/svg">
<path d="M32.2438 23.7292C31.2257 26.137 29.6332 28.2586 27.6057 29.9087C25.5782 31.5589 23.1773 32.6872 20.613 33.1951C18.0487 33.703 15.3989 33.5749 12.8955 32.8222C10.3921 32.0695 8.11118 30.715 6.25218 28.8771C4.39318 27.0392 3.0127 24.7739 2.23143 22.2792C1.45016 19.7845 1.2919 17.1365 1.77046 14.5665C2.24903 11.9965 3.34987 9.58294 4.97673 7.53671C6.60358 5.49048 8.70693 3.87392 11.1029 2.82837" stroke="#77B900" stroke-width="3" stroke-linecap="round" stroke-linejoin="round"/>
<path d="M33.5079 17.5037C33.5079 15.4021 33.094 13.321 32.2897 11.3794C31.4855 9.4377 30.3066 7.67346 28.8205 6.18738C27.3345 4.7013 25.5702 3.52247 23.6286 2.71821C21.6869 1.91395 19.6058 1.5 17.5042 1.5V17.5037H33.5079Z" fill="#77B900" stroke="#77B900" stroke-width="3" stroke-linecap="round" stroke-linejoin="round"/>
</svg>
