<svg width="48" height="46" viewBox="0 0 48 46" fill="none" xmlns="http://www.w3.org/2000/svg">
<path d="M9.72559 33.1345V37.5214H15.285V33.1345H9.72559ZM39.5278 20.5015V37.5214H45.0871V20.5015H39.5278ZM29.595 25.3405V37.5214H35.1506V25.3405H29.595ZM19.6621 28.5174V37.5214H25.2178V28.5174H19.6621Z" fill="#77B900"/>
<path d="M4.87406 8.19942V41.1534H47.0672V45.9999H2.43937C1.09313 45.9999 0 44.9138 0 43.5752V8.19942H4.87406ZM44.0456 6.87664L44.4497 10.0256C44.5744 10.996 45.465 11.6812 46.4419 11.5609C47.4178 11.4379 48.1069 10.5513 47.9859 9.58093L46.9556 1.60415C46.9012 1.04391 46.5778 0.517217 46.0491 0.223576C45.5662 -0.0430309 45.0178 -0.062607 44.5397 0.119171L36.8138 3.07795C35.8959 3.43032 35.4403 4.45573 35.7947 5.36835C36.1481 6.28097 37.1794 6.73401 38.0972 6.38164L40.7353 5.37208C37.8441 9.27144 34.3819 12.5285 30.6441 15.066C25.26 18.7211 19.3228 20.8679 13.7175 21.2706C12.7331 21.3396 11.9944 22.187 12.0637 23.1658C12.1341 24.1446 12.9862 24.8792 13.9706 24.8092C20.1909 24.373 26.7497 22.0127 32.655 18.0014C36.9028 15.12 40.8206 11.3754 44.0456 6.87664Z" fill="#466D00"/>
</svg>
