<svg width="37" height="36" viewBox="0 0 37 36" fill="none" xmlns="http://www.w3.org/2000/svg">
<path d="M27 13.6592L10 5.12891" stroke="#77B900" stroke-width="3" stroke-linecap="round" stroke-linejoin="round"/>
<path d="M35.5 24.5071V11.3582C35.4993 10.7818 35.3244 10.2156 34.9929 9.71655C34.6614 9.21748 34.1848 8.80304 33.6111 8.51481L20.3889 1.9404C19.8146 1.65189 19.1631 1.5 18.5 1.5C17.8369 1.5 17.1854 1.65189 16.6111 1.9404L3.38889 8.51481C2.81516 8.80304 2.33863 9.21748 2.00709 9.71655C1.67556 10.2156 1.50068 10.7818 1.5 11.3582V24.5071C1.50068 25.0835 1.67556 25.6497 2.00709 26.1488C2.33863 26.6478 2.81516 27.0623 3.38889 27.3505L16.6111 33.9249C17.1854 34.2134 17.8369 34.3653 18.5 34.3653C19.1631 34.3653 19.8146 34.2134 20.3889 33.9249L33.6111 27.3505C34.1848 27.0623 34.6614 26.6478 34.9929 26.1488C35.3244 25.6497 35.4993 25.0835 35.5 24.5071Z" stroke="#77B900" stroke-width="3" stroke-linecap="round" stroke-linejoin="round"/>
<path d="M2.01004 9.64886L18.5 17.9491L34.99 9.64886" stroke="#77B900" stroke-width="3" stroke-linecap="round" stroke-linejoin="round"/>
<path d="M18.5 34.5V17.9325" stroke="#77B900" stroke-width="3" stroke-linecap="round" stroke-linejoin="round"/>
</svg>
