<svg width="1728" height="973" viewBox="0 0 1728 973" fill="none" xmlns="http://www.w3.org/2000/svg">
<g clip-path="url(#clip0_533_1092)">
<path d="M1729 0H-1V973H1729V0Z" fill="url(#paint0_radial_533_1092)"/>
<g opacity="0.02">
<path d="M785.249 470.013L879.678 609.116L1029.79 551.187L785.249 470.013Z" fill="#0B3D1F"/>
<path d="M1029.79 551.187L1019.79 349.109L785.249 470.013L1029.79 551.187Z" fill="#0B3D1F"/>
<path d="M879.678 609.116L1007 653.712L1029.79 551.187L879.678 609.116Z" fill="#0B3D1F"/>
<path d="M1029.79 551.187L1090.88 364.875L1019.79 349.109L1029.79 551.187Z" fill="#0B3D1F"/>
<path d="M1202.7 406.678L1090.88 364.875L1029.79 551.186L1202.7 406.678Z" fill="#0B3D1F"/>
<path d="M1007 653.712L1106.02 649.928L1029.79 551.187L1007 653.712Z" fill="#0B3D1F"/>
<path d="M1007 653.712L1130.35 658.036L1106.02 649.928L1007 653.712Z" fill="#0B3D1F"/>
<path d="M1106.02 649.928L1202.7 406.678L1029.79 551.187L1106.02 649.928Z" fill="#0B3D1F"/>
<path d="M1090.88 364.875L1049.88 227.754L1019.79 349.109L1090.88 364.875Z" fill="#0B3D1F"/>
<path d="M777.95 86.9395L605.941 310.369L785.249 470.013L777.95 86.9395Z" fill="#0B3D1F"/>
<path d="M1130.35 658.037L1202.7 406.678L1106.02 649.928L1130.35 658.037Z" fill="#0B3D1F"/>
<path d="M1090.88 364.875L1141.52 286.314L1049.88 227.754L1090.88 364.875Z" fill="#0B3D1F"/>
<path d="M1202.7 406.678L1141.52 286.314L1090.88 364.875L1202.7 406.678Z" fill="#0B3D1F"/>
<path d="M777.95 86.9395L785.249 470.013L1019.79 349.109L777.95 86.9395Z" fill="#0B3D1F"/>
<path d="M785.249 470.013L496.104 342.442L879.678 609.116L785.249 470.013Z" fill="#0B3D1F"/>
<path d="M1406.43 945.972L1239.82 688.848L1130.35 658.036L1406.43 945.972Z" fill="#0B3D1F"/>
<path d="M1130.35 658.037L1239.82 688.848L1202.7 406.678L1130.35 658.037Z" fill="#0B3D1F"/>
<path d="M1049.88 227.754L777.95 86.9395L1019.79 349.109L1049.88 227.754Z" fill="#0B3D1F"/>
<path d="M1049.88 227.754L847.871 47.6592L777.95 86.9395L1049.88 227.754Z" fill="#0B3D1F"/>
<path d="M907.79 27.0278L847.871 47.659L1049.88 227.754L907.79 27.0278Z" fill="#0B3D1F"/>
<path d="M623.512 112.886L496.104 342.442L605.941 310.369L623.512 112.886Z" fill="#0B3D1F"/>
<path d="M605.941 310.369L496.104 342.442L785.249 470.013L605.941 310.369Z" fill="#0B3D1F"/>
<path d="M1060.61 48.2897L907.791 27.0278L1049.88 227.754L1060.61 48.2897Z" fill="#0B3D1F"/>
<path d="M907.79 27.0278H886.436L847.871 47.659L907.79 27.0278Z" fill="#0B3D1F"/>
<path d="M1141.52 286.314L1060.61 48.2896L1049.88 227.754L1141.52 286.314Z" fill="#0B3D1F"/>
<path d="M1060.61 48.2897L1050.34 37.5687L907.791 27.0278L1060.61 48.2897Z" fill="#0B3D1F"/>
<path d="M886.436 27.0278H817.326L847.871 47.659L886.436 27.0278Z" fill="#0B3D1F"/>
<path d="M847.871 47.659L814.443 27.0278L777.95 86.9394L847.871 47.659Z" fill="#0B3D1F"/>
<path d="M777.95 86.9395L623.512 112.886L605.941 310.369L777.95 86.9395Z" fill="#0B3D1F"/>
<path d="M817.326 27.0278H814.443L847.871 47.659L817.326 27.0278Z" fill="#0B3D1F"/>
<path d="M814.442 27.0278L623.512 112.886L777.95 86.9394L814.442 27.0278Z" fill="#0B3D1F"/>
<path d="M1239.82 688.848L1381.11 620.018L1202.7 406.678L1239.82 688.848Z" fill="#0B3D1F"/>
<path d="M1202.7 406.678L1399.04 593.44L1141.52 286.314L1202.7 406.678Z" fill="#0B3D1F"/>
<path d="M1381.11 620.017L1399.04 593.44L1202.7 406.678L1381.11 620.017Z" fill="#0B3D1F"/>
<path d="M1406.43 945.972L1380.03 742.633L1239.82 688.848L1406.43 945.972Z" fill="#0B3D1F"/>
<path d="M1239.82 688.848L1380.03 742.633L1381.11 620.017L1239.82 688.848Z" fill="#0B3D1F"/>
<path d="M1381.11 620.017L1380.03 742.633L1399.04 593.44L1381.11 620.017Z" fill="#0B3D1F"/>
<path d="M814.443 27.0278H444.205L623.512 112.886L814.443 27.0278Z" fill="#0B3D1F"/>
<path d="M623.512 112.886L444.205 27.0278L496.105 342.442L623.512 112.886Z" fill="#0B3D1F"/>
<path d="M1007 653.712L1406.43 945.972L1130.35 658.036L1007 653.712Z" fill="#0B3D1F"/>
<path d="M1380.03 742.633L1597.45 810.563L1399.04 593.44L1380.03 742.633Z" fill="#0B3D1F"/>
<path d="M1406.43 945.972L1472.29 893.899L1380.03 742.633L1406.43 945.972Z" fill="#0B3D1F"/>
<path d="M1406.43 945.972L1505.9 941.828L1472.29 893.899L1406.43 945.972Z" fill="#0B3D1F"/>
<path d="M1472.29 893.899L1597.45 810.563L1380.03 742.633L1472.29 893.899Z" fill="#0B3D1F"/>
<path d="M1505.9 941.828L1597.45 810.563L1472.29 893.899L1505.9 941.828Z" fill="#0B3D1F"/>
<path d="M444.205 27.0278H299.677L496.105 342.442L444.205 27.0278Z" fill="#0B3D1F"/>
<path d="M299.678 27.0278H295.533L496.105 342.442L299.678 27.0278Z" fill="#0B3D1F"/>
<path d="M295.533 27.0278H202.095L496.105 342.442L295.533 27.0278Z" fill="#0B3D1F"/>
<path d="M1505.9 941.828L1645.29 928.674L1597.45 810.563L1505.9 941.828Z" fill="#0B3D1F"/>
<path d="M202.095 27.0278H169.207L496.104 342.442L202.095 27.0278Z" fill="#0B3D1F"/>
<path d="M169.207 27.0278H149.654L496.105 342.442L169.207 27.0278Z" fill="#0B3D1F"/>
<path d="M1406.43 945.972H1693.77L1505.9 941.828L1406.43 945.972Z" fill="#0B3D1F"/>
<path d="M1505.9 941.828L1693.77 945.972L1645.29 928.675L1505.9 941.828Z" fill="#0B3D1F"/>
<path d="M1645.29 928.674L1701.97 945.972L1597.45 810.563L1645.29 928.674Z" fill="#0B3D1F"/>
<path d="M1693.77 945.972H1701.97L1645.29 928.675L1693.77 945.972Z" fill="#0B3D1F"/>
</g>
<g opacity="0.1" filter="url(#filter0_f_533_1092)">
<path d="M785.249 470.013L879.678 609.116" stroke="#7D9E49" stroke-width="2.5"/>
<path d="M1029.79 551.187L879.678 609.116" stroke="#7D9E49" stroke-width="2.5"/>
<path d="M1029.79 551.187L785.249 470.013" stroke="#7D9E49" stroke-width="2.5"/>
<path d="M1029.79 551.187L1019.79 349.109" stroke="#7D9E49" stroke-width="2.5"/>
<path d="M785.249 470.013L1019.79 349.109" stroke="#7D9E49" stroke-width="2.5"/>
<path d="M1007 653.712L879.678 609.116" stroke="#7D9E49" stroke-width="2.5"/>
<path d="M1007 653.712L1029.79 551.187" stroke="#7D9E49" stroke-width="2.5"/>
<path d="M1029.79 551.186L1090.88 364.875" stroke="#7D9E49" stroke-width="2.5"/>
<path d="M1090.88 364.875L1019.79 349.109" stroke="#7D9E49" stroke-width="2.5"/>
<path d="M1202.7 406.678L1090.88 364.875" stroke="#7D9E49" stroke-width="2.5"/>
<path d="M1202.7 406.678L1029.79 551.187" stroke="#7D9E49" stroke-width="2.5"/>
<path d="M1007 653.712L1106.02 649.928" stroke="#7D9E49" stroke-width="2.5"/>
<path d="M1029.79 551.187L1106.02 649.928" stroke="#7D9E49" stroke-width="2.5"/>
<path d="M1007 653.712L1130.35 658.036" stroke="#7D9E49" stroke-width="2.5"/>
<path d="M1130.35 658.036L1106.02 649.928" stroke="#7D9E49" stroke-width="2.5"/>
<path d="M1202.7 406.678L1106.02 649.928" stroke="#7D9E49" stroke-width="2.5"/>
<path d="M1049.89 227.754L1090.88 364.875" stroke="#7D9E49" stroke-width="2.5"/>
<path d="M1049.88 227.754L1019.79 349.109" stroke="#7D9E49" stroke-width="2.5"/>
<path d="M777.951 86.9395L605.942 310.369" stroke="#7D9E49" stroke-width="2.5"/>
<path d="M605.942 310.369L785.249 470.013" stroke="#7D9E49" stroke-width="2.5"/>
<path d="M777.95 86.9395L785.249 470.013" stroke="#7D9E49" stroke-width="2.5"/>
<path d="M1202.7 406.678L1130.35 658.037" stroke="#7D9E49" stroke-width="2.5"/>
<path d="M1090.88 364.875L1141.52 286.314" stroke="#7D9E49" stroke-width="2.5"/>
<path d="M1049.89 227.754L1141.52 286.314" stroke="#7D9E49" stroke-width="2.5"/>
<path d="M1202.7 406.678L1141.52 286.314" stroke="#7D9E49" stroke-width="2.5"/>
<path d="M777.95 86.9395L1019.79 349.109" stroke="#7D9E49" stroke-width="2.5"/>
<path d="M496.105 342.442L785.249 470.013" stroke="#7D9E49" stroke-width="2.5"/>
<path d="M496.105 342.442L879.678 609.116" stroke="#7D9E49" stroke-width="2.5"/>
<path d="M1239.82 688.848L1406.43 945.972" stroke="#7D9E49" stroke-width="2.5"/>
<path d="M1239.82 688.848L1130.35 658.036" stroke="#7D9E49" stroke-width="2.5"/>
<path d="M1130.35 658.036L1406.43 945.972" stroke="#7D9E49" stroke-width="2.5"/>
<path d="M1202.7 406.678L1239.82 688.848" stroke="#7D9E49" stroke-width="2.5"/>
<path d="M1049.88 227.754L777.95 86.9395" stroke="#7D9E49" stroke-width="2.5"/>
<path d="M1049.88 227.754L847.871 47.6592" stroke="#7D9E49" stroke-width="2.5"/>
<path d="M777.95 86.9395L847.871 47.6592" stroke="#7D9E49" stroke-width="2.5"/>
<path d="M847.871 47.659L907.791 27.0278" stroke="#7D9E49" stroke-width="2.5"/>
<path d="M1049.88 227.754L907.791 27.0278" stroke="#7D9E49" stroke-width="2.5"/>
<path d="M496.105 342.442L623.512 112.886" stroke="#7D9E49" stroke-width="2.5"/>
<path d="M496.105 342.442L605.942 310.369" stroke="#7D9E49" stroke-width="2.5"/>
<path d="M623.512 112.886L605.942 310.369" stroke="#7D9E49" stroke-width="2.5"/>
<path d="M1060.61 48.2897L907.791 27.0278" stroke="#7D9E49" stroke-width="2.5"/>
<path d="M1049.89 227.754L1060.61 48.2896" stroke="#7D9E49" stroke-width="2.5"/>
<path d="M907.791 27.0278H886.436" stroke="#7D9E49" stroke-width="2.5"/>
<path d="M847.871 47.659L886.436 27.0278" stroke="#7D9E49" stroke-width="2.5"/>
<path d="M1060.61 48.2896L1141.52 286.314" stroke="#7D9E49" stroke-width="2.5"/>
<path d="M1399.04 593.44L1141.52 286.314" stroke="#7D9E49" stroke-width="2.5"/>
<path d="M1060.61 48.2899L1050.34 37.5688" stroke="#7D9E49" stroke-width="2.5"/>
<path d="M1050.34 37.5687L907.791 27.0278" stroke="#7D9E49" stroke-width="2.5"/>
<path d="M886.436 27.0278H817.326" stroke="#7D9E49" stroke-width="2.5"/>
<path d="M847.871 47.659L817.326 27.0278" stroke="#7D9E49" stroke-width="2.5"/>
<path d="M847.871 47.659L814.443 27.0278" stroke="#7D9E49" stroke-width="2.5"/>
<path d="M777.95 86.9394L814.443 27.0278" stroke="#7D9E49" stroke-width="2.5"/>
<path d="M777.951 86.9395L623.512 112.886" stroke="#7D9E49" stroke-width="2.5"/>
<path d="M814.443 27.0278H817.326" stroke="#7D9E49" stroke-width="2.5"/>
<path d="M623.512 112.886L814.443 27.0278" stroke="#7D9E49" stroke-width="2.5"/>
<path d="M1381.11 620.017L1239.82 688.848" stroke="#7D9E49" stroke-width="2.5"/>
<path d="M1202.7 406.678L1381.11 620.017" stroke="#7D9E49" stroke-width="2.5"/>
<path d="M1202.7 406.678L1399.04 593.44" stroke="#7D9E49" stroke-width="2.5"/>
<path d="M1381.11 620.017L1399.04 593.44" stroke="#7D9E49" stroke-width="2.5"/>
<path d="M1406.43 945.972L1380.03 742.633" stroke="#7D9E49" stroke-width="2.5"/>
<path d="M1239.82 688.848L1380.03 742.633" stroke="#7D9E49" stroke-width="2.5"/>
<path d="M1381.11 620.017L1380.03 742.633" stroke="#7D9E49" stroke-width="2.5"/>
<path d="M1399.04 593.44L1380.03 742.633" stroke="#7D9E49" stroke-width="2.5"/>
<path d="M444.205 27.0278H814.443" stroke="#7D9E49" stroke-width="2.5"/>
<path d="M444.205 27.0278L623.512 112.886" stroke="#7D9E49" stroke-width="2.5"/>
<path d="M444.205 27.0278L496.105 342.442" stroke="#7D9E49" stroke-width="2.5"/>
<path d="M1007 653.712L1406.43 945.972" stroke="#7D9E49" stroke-width="2.5"/>
<path d="M1597.45 810.563L1380.03 742.633" stroke="#7D9E49" stroke-width="2.5"/>
<path d="M1597.45 810.563L1399.04 593.44" stroke="#7D9E49" stroke-width="2.5"/>
<path d="M1472.29 893.899L1406.43 945.972" stroke="#7D9E49" stroke-width="2.5"/>
<path d="M1472.29 893.899L1380.03 742.633" stroke="#7D9E49" stroke-width="2.5"/>
<path d="M1505.9 941.828L1406.43 945.972" stroke="#7D9E49" stroke-width="2.5"/>
<path d="M1505.9 941.828L1472.29 893.899" stroke="#7D9E49" stroke-width="2.5"/>
<path d="M1472.29 893.899L1597.45 810.563" stroke="#7D9E49" stroke-width="2.5"/>
<path d="M1505.9 941.828L1597.45 810.563" stroke="#7D9E49" stroke-width="2.5"/>
<path d="M444.205 27.0278H299.678" stroke="#7D9E49" stroke-width="2.5"/>
<path d="M496.105 342.442L299.678 27.0278" stroke="#7D9E49" stroke-width="2.5"/>
<path d="M295.533 27.0278H299.678" stroke="#7D9E49" stroke-width="2.5"/>
<path d="M496.105 342.442L295.533 27.0278" stroke="#7D9E49" stroke-width="2.5"/>
<path d="M295.533 27.0278H202.095" stroke="#7D9E49" stroke-width="2.5"/>
<path d="M496.105 342.442L202.095 27.0278" stroke="#7D9E49" stroke-width="2.5"/>
<path d="M1645.29 928.675L1505.9 941.828" stroke="#7D9E49" stroke-width="2.5"/>
<path d="M1645.29 928.674L1597.45 810.563" stroke="#7D9E49" stroke-width="2.5"/>
<path d="M169.207 27.0278H202.095" stroke="#7D9E49" stroke-width="2.5"/>
<path d="M169.207 27.0278L496.105 342.442" stroke="#7D9E49" stroke-width="2.5"/>
<path d="M169.207 27.0278H149.654" stroke="#7D9E49" stroke-width="2.5"/>
<path d="M496.105 342.442L149.654 27.0278" stroke="#7D9E49" stroke-width="2.5"/>
<path d="M1693.77 945.972H1406.43" stroke="#7D9E49" stroke-width="2.5"/>
<path d="M1505.9 941.828L1693.77 945.972" stroke="#7D9E49" stroke-width="2.5"/>
<path d="M1645.29 928.675L1693.77 945.972" stroke="#7D9E49" stroke-width="2.5"/>
<path d="M1645.29 928.675L1701.97 945.972" stroke="#7D9E49" stroke-width="2.5"/>
<path d="M1597.45 810.563L1701.97 945.972" stroke="#7D9E49" stroke-width="2.5"/>
<path d="M1693.77 945.972H1701.97" stroke="#7D9E49" stroke-width="2.5"/>
<path d="M26.0312 27.0278H149.654" stroke="#7D9E49" stroke-width="2.5"/>
</g>
<g opacity="0.534">
<path d="M785.249 470.013L879.678 609.116" stroke="#7D9E49" stroke-width="0.85"/>
<path d="M1029.79 551.187L879.678 609.116" stroke="#7D9E49" stroke-width="0.85"/>
<path d="M1029.79 551.187L785.249 470.013" stroke="#7D9E49" stroke-width="0.85"/>
<path d="M1029.79 551.187L1019.79 349.109" stroke="#7D9E49" stroke-width="0.85"/>
<path d="M785.249 470.013L1019.79 349.109" stroke="#7D9E49" stroke-width="0.85"/>
<path d="M1007 653.712L879.678 609.116" stroke="#7D9E49" stroke-width="0.85"/>
<path d="M1007 653.712L1029.79 551.187" stroke="#7D9E49" stroke-width="0.85"/>
<path d="M1029.79 551.186L1090.88 364.875" stroke="#7D9E49" stroke-width="0.85"/>
<path d="M1090.88 364.875L1019.79 349.109" stroke="#7D9E49" stroke-width="0.85"/>
<path d="M1202.7 406.678L1090.88 364.875" stroke="#7D9E49" stroke-width="0.85"/>
<path d="M1202.7 406.678L1029.79 551.187" stroke="#7D9E49" stroke-width="0.85"/>
<path d="M1007 653.712L1106.02 649.928" stroke="#7D9E49" stroke-width="0.85"/>
<path d="M1029.79 551.187L1106.02 649.928" stroke="#7D9E49" stroke-width="0.85"/>
<path d="M1007 653.712L1130.35 658.036" stroke="#7D9E49" stroke-width="0.85"/>
<path d="M1130.35 658.036L1106.02 649.928" stroke="#7D9E49" stroke-width="0.85"/>
<path d="M1202.7 406.678L1106.02 649.928" stroke="#7D9E49" stroke-width="0.85"/>
<path d="M1049.89 227.754L1090.88 364.875" stroke="#7D9E49" stroke-width="0.85"/>
<path d="M1049.88 227.754L1019.79 349.109" stroke="#7D9E49" stroke-width="0.85"/>
<path d="M777.951 86.9395L605.942 310.369" stroke="#7D9E49" stroke-width="0.85"/>
<path d="M605.942 310.369L785.249 470.013" stroke="#7D9E49" stroke-width="0.85"/>
<path d="M777.95 86.9395L785.249 470.013" stroke="#7D9E49" stroke-width="0.85"/>
<path d="M1202.7 406.678L1130.35 658.037" stroke="#7D9E49" stroke-width="0.85"/>
<path d="M1090.88 364.875L1141.52 286.314" stroke="#7D9E49" stroke-width="0.85"/>
<path d="M1049.89 227.754L1141.52 286.314" stroke="#7D9E49" stroke-width="0.85"/>
<path d="M1202.7 406.678L1141.52 286.314" stroke="#7D9E49" stroke-width="0.85"/>
<path d="M777.95 86.9395L1019.79 349.109" stroke="#7D9E49" stroke-width="0.85"/>
<path d="M496.105 342.442L785.249 470.013" stroke="#7D9E49" stroke-width="0.85"/>
<path d="M496.105 342.442L879.678 609.116" stroke="#7D9E49" stroke-width="0.85"/>
<path d="M1239.82 688.848L1406.43 945.972" stroke="#7D9E49" stroke-width="0.85"/>
<path d="M1239.82 688.848L1130.35 658.036" stroke="#7D9E49" stroke-width="0.85"/>
<path d="M1130.35 658.036L1406.43 945.972" stroke="#7D9E49" stroke-width="0.85"/>
<path d="M1202.7 406.678L1239.82 688.848" stroke="#7D9E49" stroke-width="0.85"/>
<path d="M1049.88 227.754L777.95 86.9395" stroke="#7D9E49" stroke-width="0.85"/>
<path d="M1049.88 227.754L847.871 47.6592" stroke="#7D9E49" stroke-width="0.85"/>
<path d="M777.95 86.9395L847.871 47.6592" stroke="#7D9E49" stroke-width="0.85"/>
<path d="M847.871 47.659L907.791 27.0278" stroke="#7D9E49" stroke-width="0.85"/>
<path d="M1049.88 227.754L907.791 27.0278" stroke="#7D9E49" stroke-width="0.85"/>
<path d="M496.105 342.442L623.512 112.886" stroke="#7D9E49" stroke-width="0.85"/>
<path d="M496.105 342.442L605.942 310.369" stroke="#7D9E49" stroke-width="0.85"/>
<path d="M623.512 112.886L605.942 310.369" stroke="#7D9E49" stroke-width="0.85"/>
<path d="M1060.61 48.2897L907.791 27.0278" stroke="#7D9E49" stroke-width="0.85"/>
<path d="M1049.89 227.754L1060.61 48.2896" stroke="#7D9E49" stroke-width="0.85"/>
<path d="M907.791 27.0278H886.436" stroke="#7D9E49" stroke-width="0.85"/>
<path d="M847.871 47.659L886.436 27.0278" stroke="#7D9E49" stroke-width="0.85"/>
<path d="M1060.61 48.2896L1141.52 286.314" stroke="#7D9E49" stroke-width="0.85"/>
<path d="M1399.04 593.44L1141.52 286.314" stroke="#7D9E49" stroke-width="0.85"/>
<path d="M1060.61 48.2899L1050.34 37.5688" stroke="#7D9E49" stroke-width="0.85"/>
<path d="M1050.34 37.5687L907.791 27.0278" stroke="#7D9E49" stroke-width="0.85"/>
<path d="M886.436 27.0278H817.326" stroke="#7D9E49" stroke-width="0.85"/>
<path d="M847.871 47.659L817.326 27.0278" stroke="#7D9E49" stroke-width="0.85"/>
<path d="M847.871 47.659L814.443 27.0278" stroke="#7D9E49" stroke-width="0.85"/>
<path d="M777.95 86.9394L814.443 27.0278" stroke="#7D9E49" stroke-width="0.85"/>
<path d="M777.951 86.9395L623.512 112.886" stroke="#7D9E49" stroke-width="0.85"/>
<path d="M814.443 27.0278H817.326" stroke="#7D9E49" stroke-width="0.85"/>
<path d="M623.512 112.886L814.443 27.0278" stroke="#7D9E49" stroke-width="0.85"/>
<path d="M1381.11 620.017L1239.82 688.848" stroke="#7D9E49" stroke-width="0.85"/>
<path d="M1202.7 406.678L1381.11 620.017" stroke="#7D9E49" stroke-width="0.85"/>
<path d="M1202.7 406.678L1399.04 593.44" stroke="#7D9E49" stroke-width="0.85"/>
<path d="M1381.11 620.017L1399.04 593.44" stroke="#7D9E49" stroke-width="0.85"/>
<path d="M1406.43 945.972L1380.03 742.633" stroke="#7D9E49" stroke-width="0.85"/>
<path d="M1239.82 688.848L1380.03 742.633" stroke="#7D9E49" stroke-width="0.85"/>
<path d="M1381.11 620.017L1380.03 742.633" stroke="#7D9E49" stroke-width="0.85"/>
<path d="M1399.04 593.44L1380.03 742.633" stroke="#7D9E49" stroke-width="0.85"/>
<path d="M444.205 27.0278H814.443" stroke="#7D9E49" stroke-width="0.85"/>
<path d="M444.205 27.0278L623.512 112.886" stroke="#7D9E49" stroke-width="0.85"/>
<path d="M444.205 27.0278L496.105 342.442" stroke="#7D9E49" stroke-width="0.85"/>
<path d="M1007 653.712L1406.43 945.972" stroke="#7D9E49" stroke-width="0.85"/>
<path d="M1597.45 810.563L1380.03 742.633" stroke="#7D9E49" stroke-width="0.85"/>
<path d="M1597.45 810.563L1399.04 593.44" stroke="#7D9E49" stroke-width="0.85"/>
<path d="M1472.29 893.899L1406.43 945.972" stroke="#7D9E49" stroke-width="0.85"/>
<path d="M1472.29 893.899L1380.03 742.633" stroke="#7D9E49" stroke-width="0.85"/>
<path d="M1505.9 941.828L1406.43 945.972" stroke="#7D9E49" stroke-width="0.85"/>
<path d="M1505.9 941.828L1472.29 893.899" stroke="#7D9E49" stroke-width="0.85"/>
<path d="M1472.29 893.899L1597.45 810.563" stroke="#7D9E49" stroke-width="0.85"/>
<path d="M1505.9 941.828L1597.45 810.563" stroke="#7D9E49" stroke-width="0.85"/>
<path d="M444.205 27.0278H299.678" stroke="#7D9E49" stroke-width="0.85"/>
<path d="M496.105 342.442L299.678 27.0278" stroke="#7D9E49" stroke-width="0.85"/>
<path d="M295.533 27.0278H299.678" stroke="#7D9E49" stroke-width="0.85"/>
<path d="M496.105 342.442L295.533 27.0278" stroke="#7D9E49" stroke-width="0.85"/>
<path d="M295.533 27.0278H202.095" stroke="#7D9E49" stroke-width="0.85"/>
<path d="M496.105 342.442L202.095 27.0278" stroke="#7D9E49" stroke-width="0.85"/>
<path d="M1645.29 928.675L1505.9 941.828" stroke="#7D9E49" stroke-width="0.85"/>
<path d="M1645.29 928.674L1597.45 810.563" stroke="#7D9E49" stroke-width="0.85"/>
<path d="M169.207 27.0278H202.095" stroke="#7D9E49" stroke-width="0.85"/>
<path d="M169.207 27.0278L496.105 342.442" stroke="#7D9E49" stroke-width="0.85"/>
<path d="M169.207 27.0278H149.654" stroke="#7D9E49" stroke-width="0.85"/>
<path d="M496.105 342.442L149.654 27.0278" stroke="#7D9E49" stroke-width="0.85"/>
<path d="M1693.77 945.972H1406.43" stroke="#7D9E49" stroke-width="0.85"/>
<path d="M1505.9 941.828L1693.77 945.972" stroke="#7D9E49" stroke-width="0.85"/>
<path d="M1645.29 928.675L1693.77 945.972" stroke="#7D9E49" stroke-width="0.85"/>
<path d="M1645.29 928.675L1701.97 945.972" stroke="#7D9E49" stroke-width="0.85"/>
<path d="M1597.45 810.563L1701.97 945.972" stroke="#7D9E49" stroke-width="0.85"/>
<path d="M1693.77 945.972H1701.97" stroke="#7D9E49" stroke-width="0.85"/>
<path d="M26.0312 27.0278H149.654" stroke="#7D9E49" stroke-width="0.85"/>
</g>
<g filter="url(#filter1_f_533_1092)">
<path opacity="0.15" d="M26.0313 37.0279C31.5551 37.0279 36.0329 32.5506 36.0329 27.0276C36.0329 21.5046 31.5551 17.0273 26.0313 17.0273C20.5076 17.0273 16.0298 21.5046 16.0298 27.0276C16.0298 32.5506 20.5076 37.0279 26.0313 37.0279Z" fill="#7D9E49"/>
<path opacity="0.11" d="M1645.29 935.521C1649.08 935.521 1652.14 932.456 1652.14 928.674C1652.14 924.893 1649.08 921.827 1645.29 921.827C1641.51 921.827 1638.45 924.893 1638.45 928.674C1638.45 932.456 1641.51 935.521 1645.29 935.521Z" fill="#7D9E49"/>
<path opacity="0.133" d="M1701.97 954.621C1706.75 954.621 1710.62 950.749 1710.62 945.972C1710.62 941.195 1706.75 937.323 1701.97 937.323C1697.19 937.323 1693.32 941.195 1693.32 945.972C1693.32 950.749 1697.19 954.621 1701.97 954.621Z" fill="#7D9E49"/>
<path opacity="0.114" d="M444.205 34.1448C448.136 34.1448 451.323 30.9583 451.323 27.0275C451.323 23.0967 448.136 19.9102 444.205 19.9102C440.274 19.9102 437.087 23.0967 437.087 27.0275C437.087 30.9583 440.274 34.1448 444.205 34.1448Z" fill="#7D9E49"/>
<path opacity="0.126" d="M1505.9 950.026C1510.43 950.026 1514.1 946.356 1514.1 941.828C1514.1 937.3 1510.43 933.629 1505.9 933.629C1501.37 933.629 1497.7 937.3 1497.7 941.828C1497.7 946.356 1501.37 950.026 1505.9 950.026Z" fill="#7D9E49"/>
<path opacity="0.159" d="M1049.89 238.475C1055.81 238.475 1060.61 233.675 1060.61 227.754C1060.61 221.833 1055.81 217.033 1049.89 217.033C1043.96 217.033 1039.16 221.833 1039.16 227.754C1039.16 233.675 1043.96 238.475 1049.89 238.475Z" fill="#7D9E49"/>
<path opacity="0.158" d="M1693.77 956.603C1699.64 956.603 1704.4 951.843 1704.4 945.972C1704.4 940.101 1699.64 935.341 1693.77 935.341C1687.9 935.341 1683.14 940.101 1683.14 945.972C1683.14 951.843 1687.9 956.603 1693.77 956.603Z" fill="#7D9E49"/>
<path opacity="0.126" d="M169.207 35.1361C173.685 35.1361 177.316 31.5059 177.316 27.0278C177.316 22.5497 173.685 18.9194 169.207 18.9194C164.728 18.9194 161.097 22.5497 161.097 27.0278C161.097 31.5059 164.728 35.1361 169.207 35.1361Z" fill="#7D9E49"/>
<path opacity="0.154" d="M1060.61 58.65C1066.33 58.65 1070.97 54.0114 1070.97 48.2894C1070.97 42.5673 1066.33 37.9287 1060.61 37.9287C1054.88 37.9287 1050.25 42.5673 1050.25 48.2894C1050.25 54.0114 1054.88 58.65 1060.61 58.65Z" fill="#7D9E49"/>
<path opacity="0.114" d="M496.105 349.649C500.086 349.649 503.313 346.422 503.313 342.442C503.313 338.461 500.086 335.234 496.105 335.234C492.124 335.234 488.896 338.461 488.896 342.442C488.896 346.422 492.124 349.649 496.105 349.649Z" fill="#7D9E49"/>
<path opacity="0.1" d="M1381.11 626.143C1384.49 626.143 1387.23 623.4 1387.23 620.017C1387.23 616.633 1384.49 613.891 1381.11 613.891C1377.72 613.891 1374.98 616.633 1374.98 620.017C1374.98 623.4 1377.72 626.143 1381.11 626.143Z" fill="#7D9E49"/>
<path opacity="0.126" d="M1472.29 902.007C1476.77 902.007 1480.4 898.377 1480.4 893.899C1480.4 889.421 1476.77 885.79 1472.29 885.79C1467.81 885.79 1464.18 889.421 1464.18 893.899C1464.18 898.377 1467.81 902.007 1472.29 902.007Z" fill="#7D9E49"/>
<path opacity="0.142" d="M1701.97 955.342C1707.14 955.342 1711.34 951.147 1711.34 945.972C1711.34 940.797 1707.14 936.603 1701.97 936.603C1696.79 936.603 1692.6 940.797 1692.6 945.972C1692.6 951.147 1696.79 955.342 1701.97 955.342Z" fill="#7D9E49"/>
<path opacity="0.139" d="M1701.97 955.071C1706.99 955.071 1711.07 950.997 1711.07 945.972C1711.07 940.946 1706.99 936.873 1701.97 936.873C1696.94 936.873 1692.87 940.946 1692.87 945.972C1692.87 950.997 1696.94 955.071 1701.97 955.071Z" fill="#7D9E49"/>
<path opacity="0.102" d="M1701.97 952.188C1705.4 952.188 1708.19 949.405 1708.19 945.972C1708.19 942.539 1705.4 939.756 1701.97 939.756C1698.54 939.756 1695.75 942.539 1695.75 945.972C1695.75 949.405 1698.54 952.188 1701.97 952.188Z" fill="#7D9E49"/>
<path opacity="0.127" d="M1007 661.91C1011.52 661.91 1015.19 658.239 1015.19 653.712C1015.19 649.184 1011.52 645.513 1007 645.513C1002.47 645.513 998.796 649.184 998.796 653.712C998.796 658.239 1002.47 661.91 1007 661.91Z" fill="#7D9E49"/>
<path opacity="0.14" d="M623.512 122.075C628.588 122.075 632.703 117.961 632.703 112.886C632.703 107.811 628.588 103.696 623.512 103.696C618.436 103.696 614.322 107.811 614.322 112.886C614.322 117.961 618.436 122.075 623.512 122.075Z" fill="#7D9E49"/>
<path opacity="0.105" d="M1239.82 695.334C1243.41 695.334 1246.31 692.43 1246.31 688.848C1246.31 685.265 1243.41 682.361 1239.82 682.361C1236.24 682.361 1233.34 685.265 1233.34 688.848C1233.34 692.43 1236.24 695.334 1239.82 695.334Z" fill="#7D9E49"/>
<path opacity="0.136" d="M1701.97 954.891C1706.9 954.891 1710.89 950.898 1710.89 945.972C1710.89 941.046 1706.9 937.053 1701.97 937.053C1697.04 937.053 1693.05 941.046 1693.05 945.972C1693.05 950.898 1697.04 954.891 1701.97 954.891Z" fill="#7D9E49"/>
<path opacity="0.111" d="M1050.34 44.5056C1054.17 44.5056 1057.27 41.3997 1057.27 37.5685C1057.27 33.7372 1054.17 30.6313 1050.34 30.6313C1046.5 30.6313 1043.4 33.7372 1043.4 37.5685C1043.4 41.3997 1046.5 44.5056 1050.34 44.5056Z" fill="#7D9E49"/>
<path opacity="0.104" d="M814.443 33.424C817.976 33.424 820.84 30.5602 820.84 27.0274C820.84 23.4947 817.976 20.6309 814.443 20.6309C810.91 20.6309 808.045 23.4947 808.045 27.0274C808.045 30.5602 810.91 33.424 814.443 33.424Z" fill="#7D9E49"/>
<path opacity="0.13" d="M299.678 35.4965C304.356 35.4965 308.148 31.7049 308.148 27.0278C308.148 22.3506 304.356 18.5591 299.678 18.5591C295 18.5591 291.208 22.3506 291.208 27.0278C291.208 31.7049 295 35.4965 299.678 35.4965Z" fill="#7D9E49"/>
<path opacity="0.121" d="M1597.45 818.311C1601.73 818.311 1605.2 814.842 1605.2 810.563C1605.2 806.284 1601.73 802.815 1597.45 802.815C1593.17 802.815 1589.7 806.284 1589.7 810.563C1589.7 814.842 1593.17 818.311 1597.45 818.311Z" fill="#7D9E49"/>
<path opacity="0.135" d="M1130.35 666.865C1135.22 666.865 1139.18 662.912 1139.18 658.036C1139.18 653.16 1135.22 649.207 1130.35 649.207C1125.47 649.207 1121.52 653.16 1121.52 658.036C1121.52 662.912 1125.47 666.865 1130.35 666.865Z" fill="#7D9E49"/>
<path opacity="0.122" d="M1406.43 953.81C1410.76 953.81 1414.27 950.301 1414.27 945.972C1414.27 941.643 1410.76 938.134 1406.43 938.134C1402.1 938.134 1398.59 941.643 1398.59 945.972C1398.59 950.301 1402.1 953.81 1406.43 953.81Z" fill="#7D9E49"/>
<path opacity="0.15" d="M907.791 37.0279C913.314 37.0279 917.792 32.5506 917.792 27.0276C917.792 21.5046 913.314 17.0273 907.791 17.0273C902.267 17.0273 897.789 21.5046 897.789 27.0276C897.789 32.5506 902.267 37.0279 907.791 37.0279Z" fill="#7D9E49"/>
<path opacity="0.139" d="M605.942 319.468C610.968 319.468 615.042 315.394 615.042 310.369C615.042 305.343 610.968 301.27 605.942 301.27C600.916 301.27 596.841 305.343 596.841 310.369C596.841 315.394 600.916 319.468 605.942 319.468Z" fill="#7D9E49"/>
<path opacity="0.146" d="M202.095 36.7579C207.469 36.7579 211.826 32.4016 211.826 27.0279C211.826 21.6541 207.469 17.2979 202.095 17.2979C196.721 17.2979 192.364 21.6541 192.364 27.0279C192.364 32.4016 196.721 36.7579 202.095 36.7579Z" fill="#7D9E49"/>
<path opacity="0.109" d="M1701.97 952.819C1705.75 952.819 1708.82 949.754 1708.82 945.972C1708.82 942.191 1705.75 939.125 1701.97 939.125C1698.19 939.125 1695.12 942.191 1695.12 945.972C1695.12 949.754 1698.19 952.819 1701.97 952.819Z" fill="#7D9E49"/>
<path opacity="0.116" d="M149.654 34.325C153.685 34.325 156.953 31.0578 156.953 27.0275C156.953 22.9972 153.685 19.73 149.654 19.73C145.624 19.73 142.356 22.9972 142.356 27.0275C142.356 31.0578 145.624 34.325 149.654 34.325Z" fill="#7D9E49"/>
<path opacity="0.129" d="M886.436 35.4061C891.064 35.4061 894.816 31.6549 894.816 27.0275C894.816 22.4002 891.064 18.6489 886.436 18.6489C881.808 18.6489 878.056 22.4002 878.056 27.0275C878.056 31.6549 881.808 35.4061 886.436 35.4061Z" fill="#7D9E49"/>
<path opacity="0.116" d="M1701.97 953.36C1706.05 953.36 1709.36 950.052 1709.36 945.972C1709.36 941.892 1706.05 938.584 1701.97 938.584C1697.89 938.584 1694.58 941.892 1694.58 945.972C1694.58 950.052 1697.89 953.36 1701.97 953.36Z" fill="#7D9E49"/>
<path opacity="0.101" d="M785.249 476.229C788.683 476.229 791.466 473.446 791.466 470.013C791.466 466.58 788.683 463.796 785.249 463.796C781.815 463.796 779.032 466.58 779.032 470.013C779.032 473.446 781.815 476.229 785.249 476.229Z" fill="#7D9E49"/>
<path opacity="0.111" d="M1701.97 952.909C1705.8 952.909 1708.91 949.803 1708.91 945.972C1708.91 942.141 1705.8 939.035 1701.97 939.035C1698.14 939.035 1695.03 942.141 1695.03 945.972C1695.03 949.803 1698.14 952.909 1701.97 952.909Z" fill="#7D9E49"/>
<path opacity="0.127" d="M1399.04 601.638C1403.57 601.638 1407.24 597.968 1407.24 593.44C1407.24 588.912 1403.57 585.241 1399.04 585.241C1394.51 585.241 1390.84 588.912 1390.84 593.44C1390.84 597.968 1394.51 601.638 1399.04 601.638Z" fill="#7D9E49"/>
<path opacity="0.155" d="M1090.88 375.326C1096.65 375.326 1101.33 370.647 1101.33 364.875C1101.33 359.103 1096.65 354.424 1090.88 354.424C1085.11 354.424 1080.43 359.103 1080.43 364.875C1080.43 370.647 1085.11 375.326 1090.88 375.326Z" fill="#7D9E49"/>
<path opacity="0.134" d="M1380.03 751.372C1384.85 751.372 1388.77 747.459 1388.77 742.633C1388.77 737.807 1384.85 733.894 1380.03 733.894C1375.2 733.894 1371.29 737.807 1371.29 742.633C1371.29 747.459 1375.2 751.372 1380.03 751.372Z" fill="#7D9E49"/>
<path opacity="0.135" d="M1141.52 295.143C1146.4 295.143 1150.35 291.19 1150.35 286.314C1150.35 281.438 1146.4 277.485 1141.52 277.485C1136.64 277.485 1132.69 281.438 1132.69 286.314C1132.69 291.19 1136.64 295.143 1141.52 295.143Z" fill="#7D9E49"/>
<path opacity="0.118" d="M1701.97 953.45C1706.1 953.45 1709.45 950.102 1709.45 945.972C1709.45 941.842 1706.1 938.494 1701.97 938.494C1697.84 938.494 1694.49 941.842 1694.49 945.972C1694.49 950.102 1697.84 953.45 1701.97 953.45Z" fill="#7D9E49"/>
<path opacity="0.14" d="M817.326 36.3071C822.452 36.3071 826.607 32.1525 826.607 27.0276C826.607 21.9026 822.452 17.748 817.326 17.748C812.201 17.748 808.045 21.9026 808.045 27.0276C808.045 32.1525 812.201 36.3071 817.326 36.3071Z" fill="#7D9E49"/>
<path opacity="0.146" d="M879.678 618.846C885.052 618.846 889.409 614.489 889.409 609.116C889.409 603.742 885.052 599.386 879.678 599.386C874.304 599.386 869.947 603.742 869.947 609.116C869.947 614.489 874.304 618.846 879.678 618.846Z" fill="#7D9E49"/>
<path opacity="0.152" d="M1019.79 359.289C1025.41 359.289 1029.97 354.731 1029.97 349.109C1029.97 343.486 1025.41 338.928 1019.79 338.928C1014.17 338.928 1009.61 343.486 1009.61 349.109C1009.61 354.731 1014.17 359.289 1019.79 359.289Z" fill="#7D9E49"/>
<path opacity="0.113" d="M1701.97 953.089C1705.9 953.089 1709.09 949.903 1709.09 945.972C1709.09 942.041 1705.9 938.855 1701.97 938.855C1698.04 938.855 1694.85 942.041 1694.85 945.972C1694.85 949.903 1698.04 953.089 1701.97 953.089Z" fill="#7D9E49"/>
</g>
<path d="M26.0313 31.2622C28.3702 31.2622 30.2662 29.3664 30.2662 27.0278C30.2662 24.6892 28.3702 22.7935 26.0313 22.7935C23.6924 22.7935 21.7964 24.6892 21.7964 27.0278C21.7964 29.3664 23.6924 31.2622 26.0313 31.2622Z" fill="#7D9E49"/>
<path d="M1645.29 931.738C1646.99 931.738 1648.36 930.366 1648.36 928.674C1648.36 926.983 1646.99 925.611 1645.29 925.611C1643.6 925.611 1642.23 926.983 1642.23 928.674C1642.23 930.366 1643.6 931.738 1645.29 931.738Z" fill="#7D9E49"/>
<path d="M1701.97 949.666C1704.01 949.666 1705.66 948.012 1705.66 945.972C1705.66 943.932 1704.01 942.279 1701.97 942.279C1699.93 942.279 1698.27 943.932 1698.27 945.972C1698.27 948.012 1699.93 949.666 1701.97 949.666Z" fill="#7D9E49"/>
<path d="M444.205 30.2713C445.996 30.2713 447.448 28.8192 447.448 27.028C447.448 25.2368 445.996 23.7847 444.205 23.7847C442.413 23.7847 440.961 25.2368 440.961 27.028C440.961 28.8192 442.413 30.2713 444.205 30.2713Z" fill="#7D9E49"/>
<path d="M1505.9 945.432C1507.89 945.432 1509.51 943.818 1509.51 941.828C1509.51 939.838 1507.89 938.224 1505.9 938.224C1503.91 938.224 1502.3 939.838 1502.3 941.828C1502.3 943.818 1503.91 945.432 1505.9 945.432Z" fill="#7D9E49"/>
<path d="M1049.88 232.259C1052.37 232.259 1054.39 230.242 1054.39 227.754C1054.39 225.266 1052.37 223.25 1049.88 223.25C1047.4 223.25 1045.38 225.266 1045.38 227.754C1045.38 230.242 1047.4 232.259 1049.88 232.259Z" fill="#7D9E49"/>
<path d="M1693.77 950.387C1696.21 950.387 1698.18 948.41 1698.18 945.972C1698.18 943.534 1696.21 941.558 1693.77 941.558C1691.33 941.558 1689.35 943.534 1689.35 945.972C1689.35 948.41 1691.33 950.387 1693.77 950.387Z" fill="#7D9E49"/>
<path d="M169.207 30.5414C171.147 30.5414 172.721 28.9683 172.721 27.0278C172.721 25.0873 171.147 23.5142 169.207 23.5142C167.266 23.5142 165.693 25.0873 165.693 27.0278C165.693 28.9683 167.266 30.5414 169.207 30.5414Z" fill="#7D9E49"/>
<path d="M1060.61 52.6142C1063 52.6142 1064.93 50.6781 1064.93 48.2898C1064.93 45.9015 1063 43.9653 1060.61 43.9653C1058.22 43.9653 1056.28 45.9015 1056.28 48.2898C1056.28 50.6781 1058.22 52.6142 1060.61 52.6142Z" fill="#7D9E49"/>
<path d="M496.105 345.685C497.896 345.685 499.348 344.233 499.348 342.442C499.348 340.651 497.896 339.199 496.105 339.199C494.313 339.199 492.861 340.651 492.861 342.442C492.861 344.233 494.313 345.685 496.105 345.685Z" fill="#7D9E49"/>
<path d="M1381.11 622.81C1382.65 622.81 1383.9 621.56 1383.9 620.017C1383.9 618.475 1382.65 617.224 1381.11 617.224C1379.57 617.224 1378.31 618.475 1378.31 620.017C1378.31 621.56 1379.57 622.81 1381.11 622.81Z" fill="#7D9E49"/>
<path d="M1472.29 897.412C1474.23 897.412 1475.81 895.839 1475.81 893.899C1475.81 891.958 1474.23 890.385 1472.29 890.385C1470.35 890.385 1468.78 891.958 1468.78 893.899C1468.78 895.839 1470.35 897.412 1472.29 897.412Z" fill="#7D9E49"/>
<path d="M1701.97 949.936C1704.16 949.936 1705.93 948.162 1705.93 945.972C1705.93 943.783 1704.16 942.008 1701.97 942.008C1699.78 942.008 1698 943.783 1698 945.972C1698 948.162 1699.78 949.936 1701.97 949.936Z" fill="#7D9E49"/>
<path d="M1701.97 949.846C1704.11 949.846 1705.84 948.112 1705.84 945.972C1705.84 943.833 1704.11 942.098 1701.97 942.098C1699.83 942.098 1698.09 943.833 1698.09 945.972C1698.09 948.112 1699.83 949.846 1701.97 949.846Z" fill="#7D9E49"/>
<path d="M1701.97 948.855C1703.56 948.855 1704.85 947.564 1704.85 945.972C1704.85 944.38 1703.56 943.089 1701.97 943.089C1700.38 943.089 1699.09 944.38 1699.09 945.972C1699.09 947.564 1700.38 948.855 1701.97 948.855Z" fill="#7D9E49"/>
<path d="M1007 657.316C1008.99 657.316 1010.6 655.702 1010.6 653.712C1010.6 651.722 1008.99 650.108 1007 650.108C1005 650.108 1003.39 651.722 1003.39 653.712C1003.39 655.702 1005 657.316 1007 657.316Z" fill="#7D9E49"/>
<path d="M623.512 116.85C625.701 116.85 627.477 115.075 627.477 112.886C627.477 110.697 625.701 108.922 623.512 108.922C621.322 108.922 619.547 110.697 619.547 112.886C619.547 115.075 621.322 116.85 623.512 116.85Z" fill="#7D9E49"/>
<path d="M1239.82 691.821C1241.47 691.821 1242.8 690.49 1242.8 688.848C1242.8 687.206 1241.47 685.875 1239.82 685.875C1238.18 685.875 1236.85 687.206 1236.85 688.848C1236.85 690.49 1238.18 691.821 1239.82 691.821Z" fill="#7D9E49"/>
<path d="M1701.97 949.846C1704.11 949.846 1705.84 948.112 1705.84 945.972C1705.84 943.833 1704.11 942.098 1701.97 942.098C1699.83 942.098 1698.09 943.833 1698.09 945.972C1698.09 948.112 1699.83 949.846 1701.97 949.846Z" fill="#7D9E49"/>
<path d="M1050.34 40.722C1052.08 40.722 1053.49 39.3103 1053.49 37.5688C1053.49 35.8273 1052.08 34.4155 1050.34 34.4155C1048.59 34.4155 1047.18 35.8273 1047.18 37.5688C1047.18 39.3103 1048.59 40.722 1050.34 40.722Z" fill="#7D9E49"/>
<path d="M814.443 29.9109C816.035 29.9109 817.326 28.6202 817.326 27.028C817.326 25.4358 816.035 24.145 814.443 24.145C812.85 24.145 811.559 25.4358 811.559 27.028C811.559 28.6202 812.85 29.9109 814.443 29.9109Z" fill="#7D9E49"/>
<path d="M299.678 30.7216C301.718 30.7216 303.372 29.0678 303.372 27.0278C303.372 24.9878 301.718 23.334 299.678 23.334C297.637 23.334 295.983 24.9878 295.983 27.0278C295.983 29.0678 297.637 30.7216 299.678 30.7216Z" fill="#7D9E49"/>
<path d="M1597.45 813.987C1599.34 813.987 1600.87 812.454 1600.87 810.563C1600.87 808.672 1599.34 807.14 1597.45 807.14C1595.56 807.14 1594.02 808.672 1594.02 810.563C1594.02 812.454 1595.56 813.987 1597.45 813.987Z" fill="#7D9E49"/>
<path d="M1130.35 661.82C1132.44 661.82 1134.13 660.126 1134.13 658.036C1134.13 655.947 1132.44 654.252 1130.35 654.252C1128.26 654.252 1126.56 655.947 1126.56 658.036C1126.56 660.126 1128.26 661.82 1130.35 661.82Z" fill="#7D9E49"/>
<path d="M1406.43 949.396C1408.32 949.396 1409.85 947.863 1409.85 945.972C1409.85 944.082 1408.32 942.549 1406.43 942.549C1404.54 942.549 1403 944.082 1403 945.972C1403 947.863 1404.54 949.396 1406.43 949.396Z" fill="#7D9E49"/>
<path d="M907.791 31.2622C910.129 31.2622 912.025 29.3664 912.025 27.0278C912.025 24.6892 910.129 22.7935 907.791 22.7935C905.452 22.7935 903.556 24.6892 903.556 27.0278C903.556 29.3664 905.452 31.2622 907.791 31.2622Z" fill="#7D9E49"/>
<path d="M605.942 314.243C608.081 314.243 609.816 312.509 609.816 310.369C609.816 308.23 608.081 306.495 605.942 306.495C603.802 306.495 602.067 308.23 602.067 310.369C602.067 312.509 603.802 314.243 605.942 314.243Z" fill="#7D9E49"/>
<path d="M202.095 31.1723C204.384 31.1723 206.24 29.3169 206.24 27.028C206.24 24.7392 204.384 22.8838 202.095 22.8838C199.806 22.8838 197.95 24.7392 197.95 27.028C197.95 29.3169 199.806 31.1723 202.095 31.1723Z" fill="#7D9E49"/>
<path d="M1701.97 949.036C1703.66 949.036 1705.03 947.664 1705.03 945.972C1705.03 944.281 1703.66 942.909 1701.97 942.909C1700.28 942.909 1698.91 944.281 1698.91 945.972C1698.91 947.664 1700.28 949.036 1701.97 949.036Z" fill="#7D9E49"/>
<path d="M149.654 30.2713C151.446 30.2713 152.898 28.8192 152.898 27.028C152.898 25.2368 151.446 23.7847 149.654 23.7847C147.863 23.7847 146.41 25.2368 146.41 27.028C146.41 28.8192 147.863 30.2713 149.654 30.2713Z" fill="#7D9E49"/>
<path d="M886.436 30.6317C888.426 30.6317 890.04 29.0183 890.04 27.028C890.04 25.0377 888.426 23.4243 886.436 23.4243C884.445 23.4243 882.832 25.0377 882.832 27.028C882.832 29.0183 884.445 30.6317 886.436 30.6317Z" fill="#7D9E49"/>
<path d="M1701.97 949.216C1703.76 949.216 1705.21 947.764 1705.21 945.972C1705.21 944.181 1703.76 942.729 1701.97 942.729C1700.18 942.729 1698.72 944.181 1698.72 945.972C1698.72 947.764 1700.18 949.216 1701.97 949.216Z" fill="#7D9E49"/>
<path d="M785.249 472.896C786.841 472.896 788.132 471.605 788.132 470.013C788.132 468.421 786.841 467.13 785.249 467.13C783.657 467.13 782.366 468.421 782.366 470.013C782.366 471.605 783.657 472.896 785.249 472.896Z" fill="#7D9E49"/>
<path d="M1701.97 949.125C1703.71 949.125 1705.12 947.714 1705.12 945.972C1705.12 944.231 1703.71 942.819 1701.97 942.819C1700.23 942.819 1698.82 944.231 1698.82 945.972C1698.82 947.714 1700.23 949.125 1701.97 949.125Z" fill="#7D9E49"/>
<path d="M1399.04 597.044C1401.03 597.044 1402.64 595.43 1402.64 593.44C1402.64 591.45 1401.03 589.836 1399.04 589.836C1397.05 589.836 1395.43 591.45 1395.43 593.44C1395.43 595.43 1397.05 597.044 1399.04 597.044Z" fill="#7D9E49"/>
<path d="M1090.88 369.2C1093.27 369.2 1095.21 367.264 1095.21 364.875C1095.21 362.487 1093.27 360.551 1090.88 360.551C1088.49 360.551 1086.56 362.487 1086.56 364.875C1086.56 367.264 1088.49 369.2 1090.88 369.2Z" fill="#7D9E49"/>
<path d="M1380.03 746.417C1382.12 746.417 1383.81 744.723 1383.81 742.633C1383.81 740.543 1382.12 738.849 1380.03 738.849C1377.94 738.849 1376.24 740.543 1376.24 742.633C1376.24 744.723 1377.94 746.417 1380.03 746.417Z" fill="#7D9E49"/>
<path d="M1141.52 290.098C1143.61 290.098 1145.3 288.404 1145.3 286.314C1145.3 284.224 1143.61 282.53 1141.52 282.53C1139.43 282.53 1137.74 284.224 1137.74 286.314C1137.74 288.404 1139.43 290.098 1141.52 290.098Z" fill="#7D9E49"/>
<path d="M1701.97 949.306C1703.81 949.306 1705.3 947.813 1705.3 945.972C1705.3 944.131 1703.81 942.639 1701.97 942.639C1700.13 942.639 1698.63 944.131 1698.63 945.972C1698.63 947.813 1700.13 949.306 1701.97 949.306Z" fill="#7D9E49"/>
<path d="M817.326 30.9921C819.516 30.9921 821.291 29.2173 821.291 27.028C821.291 24.8387 819.516 23.064 817.326 23.064C815.137 23.064 813.362 24.8387 813.362 27.028C813.362 29.2173 815.137 30.9921 817.326 30.9921Z" fill="#7D9E49"/>
<path d="M879.678 613.26C881.967 613.26 883.823 611.405 883.823 609.116C883.823 606.827 881.967 604.972 879.678 604.972C877.389 604.972 875.533 606.827 875.533 609.116C875.533 611.405 877.389 613.26 879.678 613.26Z" fill="#7D9E49"/>
<path d="M1019.79 353.343C1022.13 353.343 1024.02 351.447 1024.02 349.109C1024.02 346.77 1022.13 344.875 1019.79 344.875C1017.45 344.875 1015.56 346.77 1015.56 349.109C1015.56 351.447 1017.45 353.343 1019.79 353.343Z" fill="#7D9E49"/>
<path d="M1701.97 949.125C1703.71 949.125 1705.12 947.714 1705.12 945.972C1705.12 944.231 1703.71 942.819 1701.97 942.819C1700.23 942.819 1698.82 944.231 1698.82 945.972C1698.82 947.714 1700.23 949.125 1701.97 949.125Z" fill="#7D9E49"/>
<g filter="url(#filter2_f_533_1092)">
<path opacity="0.214" d="M1202.7 421.002C1210.61 421.002 1217.03 414.589 1217.03 406.678C1217.03 398.766 1210.61 392.353 1202.7 392.353C1194.79 392.353 1188.38 398.766 1188.38 406.678C1188.38 414.589 1194.79 421.002 1202.7 421.002Z" fill="#C1CFA1"/>
<path opacity="0.223" d="M777.95 102.615C786.609 102.615 793.629 95.597 793.629 86.9393C793.629 78.2816 786.609 71.2632 777.95 71.2632C769.292 71.2632 762.272 78.2816 762.272 86.9393C762.272 95.597 769.292 102.615 777.95 102.615Z" fill="#C1CFA1"/>
<path opacity="0.219" d="M295.533 41.983C303.793 41.983 310.49 35.2873 310.49 27.0276C310.49 18.768 303.793 12.0723 295.533 12.0723C287.272 12.0723 280.575 18.768 280.575 27.0276C280.575 35.2873 287.272 41.983 295.533 41.983Z" fill="#C1CFA1"/>
<path opacity="0.238" d="M847.871 65.6772C857.824 65.6772 865.892 57.61 865.892 47.6587C865.892 37.7073 857.824 29.6401 847.871 29.6401C837.919 29.6401 829.851 37.7073 829.851 47.6587C829.851 57.61 837.919 65.6772 847.871 65.6772Z" fill="#C1CFA1"/>
<path opacity="0.215" d="M1029.79 565.691C1037.8 565.691 1044.3 559.197 1044.3 551.187C1044.3 543.176 1037.8 536.682 1029.79 536.682C1021.78 536.682 1015.28 543.176 1015.28 551.187C1015.28 559.197 1021.78 565.691 1029.79 565.691Z" fill="#C1CFA1"/>
<path opacity="0.201" d="M1106.02 662.18C1112.79 662.18 1118.27 656.695 1118.27 649.928C1118.27 643.161 1112.79 637.675 1106.02 637.675C1099.25 637.675 1093.77 643.161 1093.77 649.928C1093.77 656.695 1099.25 662.18 1106.02 662.18Z" fill="#C1CFA1"/>
</g>
<path d="M1202.7 411.183C1205.19 411.183 1207.21 409.166 1207.21 406.678C1207.21 404.19 1205.19 402.173 1202.7 402.173C1200.21 402.173 1198.2 404.19 1198.2 406.678C1198.2 409.166 1200.21 411.183 1202.7 411.183Z" fill="#C1CFA1"/>
<path d="M777.951 91.624C780.538 91.624 782.636 89.5266 782.636 86.9392C782.636 84.3519 780.538 82.2544 777.951 82.2544C775.363 82.2544 773.265 84.3519 773.265 86.9392C773.265 89.5266 775.363 91.624 777.951 91.624Z" fill="#C1CFA1"/>
<path d="M295.533 31.6225C298.071 31.6225 300.128 29.5654 300.128 27.0278C300.128 24.4902 298.071 22.4331 295.533 22.4331C292.995 22.4331 290.938 24.4902 290.938 27.0278C290.938 29.5654 292.995 31.6225 295.533 31.6225Z" fill="#C1CFA1"/>
<path d="M847.871 52.7945C850.708 52.7945 853.007 50.4953 853.007 47.6592C853.007 44.8231 850.708 42.5239 847.871 42.5239C845.035 42.5239 842.735 44.8231 842.735 47.6592C842.735 50.4953 845.035 52.7945 847.871 52.7945Z" fill="#C1CFA1"/>
<path d="M1029.79 555.691C1032.28 555.691 1034.3 553.674 1034.3 551.186C1034.3 548.698 1032.28 546.682 1029.79 546.682C1027.3 546.682 1025.29 548.698 1025.29 551.186C1025.29 553.674 1027.3 555.691 1029.79 555.691Z" fill="#C1CFA1"/>
<path d="M1106.02 654.072C1108.31 654.072 1110.16 652.217 1110.16 649.928C1110.16 647.639 1108.31 645.784 1106.02 645.784C1103.73 645.784 1101.88 647.639 1101.88 649.928C1101.88 652.217 1103.73 654.072 1106.02 654.072Z" fill="#C1CFA1"/>
<g opacity="0.92">
<path d="M1202.7 408.48C1203.7 408.48 1204.5 407.673 1204.5 406.678C1204.5 405.683 1203.7 404.876 1202.7 404.876C1201.71 404.876 1200.9 405.683 1200.9 406.678C1200.9 407.673 1201.71 408.48 1202.7 408.48Z" fill="white"/>
<path d="M777.951 88.7414C778.946 88.7414 779.753 87.9347 779.753 86.9395C779.753 85.9444 778.946 85.1377 777.951 85.1377C776.955 85.1377 776.148 85.9444 776.148 86.9395C776.148 87.9347 776.955 88.7414 777.951 88.7414Z" fill="white"/>
<path d="M295.533 28.8298C296.528 28.8298 297.335 28.0231 297.335 27.0279C297.335 26.0328 296.528 25.2261 295.533 25.2261C294.538 25.2261 293.731 26.0328 293.731 27.0279C293.731 28.0231 294.538 28.8298 295.533 28.8298Z" fill="white"/>
<path d="M847.871 49.4611C848.867 49.4611 849.674 48.6544 849.674 47.6593C849.674 46.6641 848.867 45.8574 847.871 45.8574C846.876 45.8574 846.069 46.6641 846.069 47.6593C846.069 48.6544 846.876 49.4611 847.871 49.4611Z" fill="white"/>
<path d="M1029.79 552.988C1030.79 552.988 1031.59 552.182 1031.59 551.187C1031.59 550.191 1030.79 549.385 1029.79 549.385C1028.8 549.385 1027.99 550.191 1027.99 551.187C1027.99 552.182 1028.8 552.988 1029.79 552.988Z" fill="white"/>
<path d="M1106.02 651.73C1107.02 651.73 1107.82 650.923 1107.82 649.928C1107.82 648.933 1107.02 648.126 1106.02 648.126C1105.02 648.126 1104.22 648.933 1104.22 649.928C1104.22 650.923 1105.02 651.73 1106.02 651.73Z" fill="white"/>
</g>
</g>
<defs>
<filter id="filter0_f_533_1092" x="23.0312" y="22.7778" width="1682.93" height="927.444" filterUnits="userSpaceOnUse" color-interpolation-filters="sRGB">
<feFlood flood-opacity="0" result="BackgroundImageFix"/>
<feBlend mode="normal" in="SourceGraphic" in2="BackgroundImageFix" result="shape"/>
<feGaussianBlur stdDeviation="1.5" result="effect1_foregroundBlur_533_1092"/>
</filter>
<filter id="filter1_f_533_1092" x="-7.97021" y="-6.97266" width="1743.31" height="987.576" filterUnits="userSpaceOnUse" color-interpolation-filters="sRGB">
<feFlood flood-opacity="0" result="BackgroundImageFix"/>
<feBlend mode="normal" in="SourceGraphic" in2="BackgroundImageFix" result="shape"/>
<feGaussianBlur stdDeviation="12" result="effect1_foregroundBlur_533_1092"/>
</filter>
<filter id="filter2_f_533_1092" x="242.575" y="-25.9277" width="1012.45" height="726.108" filterUnits="userSpaceOnUse" color-interpolation-filters="sRGB">
<feFlood flood-opacity="0" result="BackgroundImageFix"/>
<feBlend mode="normal" in="SourceGraphic" in2="BackgroundImageFix" result="shape"/>
<feGaussianBlur stdDeviation="19" result="effect1_foregroundBlur_533_1092"/>
</filter>
<radialGradient id="paint0_radial_533_1092" cx="0" cy="0" r="1" gradientUnits="userSpaceOnUse" gradientTransform="translate(86499 48650) scale(121100 68110)">
<stop stop-opacity="0"/>
<stop offset="1" stop-opacity="0.77"/>
</radialGradient>
<clipPath id="clip0_533_1092">
<rect width="1730" height="973" fill="white" transform="translate(-1)"/>
</clipPath>
</defs>
</svg>
