<svg width="28" height="38" viewBox="0 0 28 38" fill="none" xmlns="http://www.w3.org/2000/svg">
<path d="M10 30.4C8.9 30.4 7.95867 30.0282 7.176 29.2847C6.39333 28.5412 6.00133 27.6463 6 26.6V24.225C4.1 22.99 2.62533 21.4067 1.576 19.475C0.526667 17.5433 0.00133333 15.485 0 13.3C0 9.59499 1.35867 6.4524 4.076 3.8722C6.79333 1.292 10.1013 0.0012676 14 9.31372e-07C17.8987 -0.00126573 21.2073 1.28947 23.926 3.8722C26.6447 6.45493 28.0027 9.59753 28 13.3C28 15.485 27.4747 17.5357 26.424 19.4522C25.3733 21.3687 23.8987 22.9596 22 24.225V26.6C22 27.645 21.6087 28.5399 20.826 29.2847C20.0433 30.0295 19.1013 30.4012 18 30.4H10ZM10 26.6H18V23.2275C18 22.9108 18.0753 22.61 18.226 22.325C18.3767 22.04 18.5847 21.8183 18.85 21.66L19.7 21.09C21.0667 20.2033 22.1253 19.0716 22.876 17.6947C23.6267 16.3178 24.0013 14.8529 24 13.3C24 10.6717 23.0247 8.43156 21.074 6.5797C19.1233 4.72783 16.7653 3.80127 14 3.8C11.2347 3.79873 8.87667 4.7253 6.926 6.5797C4.97533 8.4341 4 10.6742 4 13.3C4 14.8517 4.37533 16.3166 5.126 17.6947C5.87667 19.0728 6.93467 20.2046 8.3 21.09L9.15 21.66C9.41667 21.8183 9.62533 22.04 9.776 22.325C9.92666 22.61 10.0013 22.9108 10 23.2275V26.6ZM10 38C9.43333 38 8.95867 37.8176 8.576 37.4528C8.19333 37.088 8.00133 36.637 8 36.1C7.99867 35.5629 8.19067 35.112 8.576 34.7472C8.96133 34.3824 9.436 34.2 10 34.2H18C18.5667 34.2 19.042 34.3824 19.426 34.7472C19.81 35.112 20.0013 35.5629 20 36.1C19.9987 36.637 19.8067 37.0886 19.424 37.4547C19.0413 37.8207 18.5667 38.0025 18 38H10Z" fill="#77B900"/>
</svg>
