<svg width="30" height="36" viewBox="0 0 30 36" fill="none" xmlns="http://www.w3.org/2000/svg">
<path d="M21.3 4.79993H24.6C25.4752 4.79993 26.3146 5.1476 26.9335 5.76648C27.5524 6.38535 27.9 7.22472 27.9 8.09993V31.2C27.9 32.0752 27.5524 32.9145 26.9335 33.5334C26.3146 34.1523 25.4752 34.5 24.6 34.5H4.8C3.92479 34.5 3.08542 34.1523 2.46655 33.5334C1.84768 32.9145 1.5 32.0752 1.5 31.2V8.09993C1.5 7.22472 1.84768 6.38535 2.46655 5.76648C3.08542 5.1476 3.92479 4.79993 4.8 4.79993H8.10001" stroke="#77B900" stroke-width="3" stroke-linecap="round" stroke-linejoin="round"/>
<path d="M19.65 1.5H9.75002C8.83875 1.5 8.10002 2.23873 8.10002 3.15V6.45001C8.10002 7.36128 8.83875 8.10001 9.75002 8.10001H19.65C20.5613 8.10001 21.3 7.36128 21.3 6.45001V3.15C21.3 2.23873 20.5613 1.5 19.65 1.5Z" stroke="#77B900" stroke-width="3" stroke-linecap="round" stroke-linejoin="round"/>
<path d="M6.3002 16.5H23.3002" stroke="#77B900" stroke-width="2" stroke-linecap="round"/>
<path d="M6.3002 23.5H16.3002" stroke="#77B900" stroke-width="2" stroke-linecap="round"/>
</svg>
