<svg width="61" height="51" viewBox="0 0 61 51" fill="none" xmlns="http://www.w3.org/2000/svg">
<path d="M21.3861 37.272C21.2314 37.6226 21.1852 38.0115 21.2536 38.3885C21.3219 38.7655 21.5017 39.1135 21.7696 39.3874L21.8394 39.4571C22.0555 39.673 22.227 39.9294 22.3439 40.2116C22.4609 40.4938 22.5211 40.7963 22.5211 41.1018C22.5211 41.4072 22.4609 41.7097 22.3439 41.9919C22.227 42.2741 22.0555 42.5305 21.8394 42.7464C21.6235 42.9625 21.3671 43.134 21.0849 43.251C20.8027 43.3679 20.5002 43.4282 20.1947 43.4282C19.8892 43.4282 19.5868 43.3679 19.3046 43.251C19.0224 43.134 18.766 42.9625 18.5501 42.7464L18.4804 42.6766C18.2064 42.4087 17.8585 42.229 17.4815 42.1606C17.1044 42.0922 16.7156 42.1384 16.365 42.2931C16.0212 42.4404 15.728 42.6851 15.5215 42.9969C15.315 43.3087 15.2042 43.6741 15.2027 44.0481V44.2457C15.2027 44.8623 14.9578 45.4535 14.5219 45.8895C14.0859 46.3254 13.4947 46.5703 12.8781 46.5703C12.2616 46.5703 11.6704 46.3254 11.2344 45.8895C10.7985 45.4535 10.5536 44.8623 10.5536 44.2457V44.1411C10.5446 43.7564 10.42 43.3833 10.1962 43.0703C9.97231 42.7573 9.65946 42.5189 9.2983 42.3861C8.94773 42.2314 8.55886 42.1852 8.18182 42.2536C7.80478 42.3219 7.45686 42.5017 7.18293 42.7696L7.1132 42.8394C6.89731 43.0555 6.64093 43.227 6.35873 43.3439C6.07653 43.4609 5.77404 43.5211 5.46856 43.5211C5.16307 43.5211 4.86059 43.4609 4.57839 43.3439C4.29619 43.227 4.03981 43.0555 3.82392 42.8394C3.60779 42.6235 3.43633 42.3671 3.31935 42.0849C3.20237 41.8027 3.14216 41.5002 3.14216 41.1947C3.14216 40.8892 3.20237 40.5868 3.31935 40.3046C3.43633 40.0224 3.60779 39.766 3.82392 39.5501L3.89366 39.4804C4.16161 39.2064 4.34136 38.8585 4.40972 38.4815C4.47809 38.1044 4.43193 37.7156 4.27722 37.365C4.12988 37.0212 3.88524 36.728 3.57341 36.5215C3.26158 36.315 2.89617 36.2042 2.52216 36.2027H2.32457C1.70806 36.2027 1.11679 35.9578 0.680852 35.5219C0.24491 35.0859 0 34.4947 0 33.8781C0 33.2616 0.24491 32.6704 0.680852 32.2344C1.11679 31.7985 1.70806 31.5536 2.32457 31.5536H2.42918C2.81389 31.5446 3.187 31.42 3.49999 31.1962C3.81299 30.9723 4.0514 30.6595 4.18423 30.2983C4.33895 29.9477 4.3851 29.5589 4.31674 29.1818C4.24837 28.8048 4.06863 28.4569 3.80068 28.1829L3.73094 28.1132C3.51481 27.8973 3.34335 27.6409 3.22637 27.3587C3.10939 27.0765 3.04917 26.774 3.04917 26.4686C3.04917 26.1631 3.10939 25.8606 3.22637 25.5784C3.34335 25.2962 3.51481 25.0398 3.73094 24.8239C3.94683 24.6078 4.20321 24.4363 4.4854 24.3194C4.7676 24.2024 5.07009 24.1422 5.37558 24.1422C5.68106 24.1422 5.98355 24.2024 6.26575 24.3194C6.54795 24.4363 6.80432 24.6078 7.02021 24.8239L7.08995 24.8937C7.36388 25.1616 7.71179 25.3414 8.08883 25.4097C8.46587 25.4781 8.85475 25.4319 9.20531 25.2772H9.2983C9.64206 25.1299 9.93525 24.8852 10.1418 24.5734C10.3483 24.2616 10.4591 23.8962 10.4606 23.5222V23.3246C10.4606 22.7081 10.7055 22.1168 11.1414 21.6809C11.5774 21.2449 12.1686 21 12.7852 21C13.4017 21 13.9929 21.2449 14.4289 21.6809C14.8648 22.1168 15.1097 22.7081 15.1097 23.3246V23.4292C15.1112 23.8032 15.222 24.1686 15.4286 24.4804C15.6351 24.7923 15.9282 25.0369 16.272 25.1842C16.6226 25.339 17.0115 25.3851 17.3885 25.3167C17.7655 25.2484 18.1135 25.0686 18.3874 24.8007L18.4571 24.7309C18.673 24.5148 18.9294 24.3434 19.2116 24.2264C19.4938 24.1094 19.7963 24.0492 20.1018 24.0492C20.4072 24.0492 20.7097 24.1094 20.9919 24.2264C21.2741 24.3434 21.5305 24.5148 21.7464 24.7309C21.9625 24.9468 22.134 25.2032 22.251 25.4854C22.3679 25.7676 22.4282 26.0701 22.4282 26.3756C22.4282 26.6811 22.3679 26.9836 22.251 27.2657C22.134 27.5479 21.9625 27.8043 21.7464 28.0202L21.6766 28.0899C21.4087 28.3639 21.229 28.7118 21.1606 29.0888C21.0922 29.4659 21.1384 29.8547 21.2931 30.2053V30.2983C21.4404 30.6421 21.6851 30.9352 21.9969 31.1418C22.3087 31.3483 22.6741 31.4591 23.0481 31.4606H23.2457C23.8623 31.4606 24.4535 31.7055 24.8895 32.1414C25.3254 32.5774 25.5703 33.1686 25.5703 33.7852C25.5703 34.4017 25.3254 34.9929 24.8895 35.4289C24.4535 35.8648 23.8623 36.1097 23.2457 36.1097H23.1411C22.7671 36.1112 22.4017 36.222 22.0899 36.4286C21.7781 36.6351 21.5334 36.9282 21.3861 37.272Z" fill="#2A4100"/>
<path d="M12.7852 37.2721C14.7109 37.2721 16.2721 35.7109 16.2721 33.7852C16.2721 31.8595 14.7109 30.2983 12.7852 30.2983C10.8595 30.2983 9.29834 31.8595 9.29834 33.7852C9.29834 35.7109 10.8595 37.2721 12.7852 37.2721Z" fill="#131814"/>
<path d="M36.2568 22.4203C35.995 22.7001 35.823 23.0519 35.7631 23.4304C35.7031 23.8089 35.7579 24.1966 35.9204 24.5437L35.9632 24.6325C36.096 24.9077 36.1732 25.2063 36.1904 25.5113C36.2077 25.8163 36.1646 26.1217 36.0638 26.41C35.9629 26.6984 35.8062 26.964 35.6026 27.1918C35.399 27.4195 35.1526 27.6049 34.8773 27.7374C34.6021 27.8701 34.3035 27.9473 33.9985 27.9645C33.6935 27.9818 33.3881 27.9388 33.0998 27.8379C32.8114 27.7371 32.5458 27.5803 32.318 27.3768C32.0903 27.1732 31.9049 26.9267 31.7724 26.6514L31.7296 26.5625C31.5595 26.2192 31.2905 25.9346 30.9571 25.7456C30.6238 25.5566 30.2415 25.4718 29.8595 25.5021C29.4864 25.5277 29.1289 25.6618 28.831 25.888C28.5331 26.1141 28.3079 26.4225 28.183 26.775L28.1177 26.9615C27.9142 27.5435 27.4878 28.0207 26.9324 28.2883C26.3769 28.5559 25.738 28.5918 25.156 28.3883C24.5741 28.1847 24.0968 27.7583 23.8293 27.2029C23.5617 26.6475 23.5257 26.0085 23.7293 25.4266L23.7638 25.3278C23.8823 24.9617 23.888 24.5684 23.78 24.1991C23.672 23.8297 23.4554 23.5014 23.1584 23.2568C22.8785 22.995 22.5267 22.823 22.1482 22.7631C21.7698 22.7031 21.382 22.7579 21.035 22.9204L20.9461 22.9632C20.671 23.096 20.3724 23.1732 20.0674 23.1904C19.7624 23.2077 19.457 23.1646 19.1686 23.0638C18.8803 22.9629 18.6146 22.8062 18.3869 22.6026C18.1591 22.399 17.9737 22.1525 17.8413 21.8773C17.7086 21.6021 17.6314 21.3035 17.6141 20.9985C17.5969 20.6935 17.6399 20.3881 17.7407 20.0998C17.8416 19.8114 17.9983 19.5457 18.2019 19.318C18.4055 19.0902 18.652 18.9049 18.9273 18.7724L19.0161 18.7296C19.3595 18.5595 19.644 18.2905 19.833 17.9571C20.022 17.6238 20.1069 17.2415 20.0766 16.8595C20.051 16.4864 19.9169 16.1289 19.6907 15.831C19.4645 15.5331 19.1562 15.3078 18.8036 15.183L18.6171 15.1177C18.0352 14.9142 17.5579 14.4878 17.2904 13.9324C17.0228 13.3769 16.9868 12.738 17.1904 12.156C17.3939 11.5741 17.8203 11.0968 18.3757 10.8293C18.9312 10.5617 19.5701 10.5257 20.1521 10.7293L20.2508 10.7638C20.6169 10.8823 21.0102 10.888 21.3796 10.78C21.7489 10.672 22.0773 10.4554 22.3219 10.1584C22.5837 9.87853 22.7556 9.52669 22.8156 9.14823C22.8755 8.76976 22.8207 8.382 22.6582 8.03497L22.6154 7.94612C22.4827 7.67098 22.4055 7.37238 22.3882 7.06738C22.371 6.76238 22.414 6.45697 22.5149 6.16862C22.6157 5.88026 22.7724 5.61461 22.976 5.38686C23.1796 5.15911 23.4261 4.97372 23.7014 4.84129C23.9765 4.70855 24.2751 4.63135 24.5801 4.6141C24.8851 4.59685 25.1905 4.63988 25.4789 4.74073C25.7673 4.84159 26.0329 4.99829 26.2607 5.20189C26.4884 5.40548 26.6738 5.65197 26.8062 5.92725L26.849 6.0161C27.0191 6.35947 27.2882 6.644 27.6215 6.83301C27.9549 7.02203 28.3372 7.10685 28.7191 7.07655L28.8069 7.10725C29.1801 7.08167 29.5376 6.94754 29.8354 6.72138C30.1333 6.49521 30.3586 6.18688 30.4835 5.83434L30.5487 5.64783C30.7522 5.06588 31.1786 4.58863 31.7341 4.32106C32.2895 4.05349 32.9284 4.01752 33.5104 4.22106C34.0923 4.42461 34.5696 4.85099 34.8372 5.40642C35.1047 5.96185 35.1407 6.60081 34.9372 7.18276L34.9026 7.2815C34.7805 7.63503 34.7645 8.01654 34.8565 8.37906C34.9485 8.74159 35.1444 9.06931 35.4203 9.32188C35.7001 9.58366 36.052 9.75561 36.4304 9.81556C36.8089 9.87551 37.1966 9.82071 37.5437 9.65822L37.6325 9.61542C37.9077 9.48268 38.2063 9.40548 38.5113 9.38823C38.8163 9.37098 39.1217 9.41401 39.41 9.51486C39.6984 9.61572 39.964 9.77243 40.1918 9.97602C40.4195 10.1796 40.6049 10.4261 40.7374 10.7014C40.8701 10.9765 40.9473 11.2751 40.9646 11.5801C40.9818 11.8851 40.9388 12.1905 40.8379 12.4789C40.7371 12.7672 40.5804 13.0329 40.3768 13.2606C40.1732 13.4884 39.9267 13.6738 39.6514 13.8062L39.5625 13.849C39.2192 14.0191 38.9347 14.2882 38.7456 14.6215C38.5566 14.9548 38.4718 15.3371 38.5021 15.7191L38.4714 15.8069C38.497 16.18 38.6311 16.5376 38.8573 16.8354C39.0834 17.1333 39.3918 17.3586 39.7443 17.4835L39.9308 17.5487C40.5128 17.7522 40.99 18.1786 41.2576 18.734C41.5252 19.2895 41.5611 19.9284 41.3576 20.5104C41.154 21.0923 40.7277 21.5696 40.1722 21.8372C39.6168 22.1047 38.9778 22.1407 38.3959 21.9371L38.2972 21.9026C37.9436 21.7805 37.5621 21.7645 37.1996 21.8565C36.8371 21.9485 36.5093 22.1444 36.2568 22.4203Z" fill="#77B900"/>
<path d="M28.1381 19.5807C29.9559 20.2165 31.9449 19.2583 32.5807 17.4405C33.2164 15.6228 32.2583 13.6338 30.4405 12.998C28.6228 12.3622 26.6338 13.3204 25.998 15.1381C25.3622 16.9559 26.3204 18.9449 28.1381 19.5807Z" fill="#131814"/>
<path d="M52.122 40.5432C51.8765 40.8375 51.7248 41.1985 51.6864 41.5798C51.648 41.961 51.7247 42.345 51.9067 42.6823L51.9545 42.7686C52.1026 43.0357 52.1966 43.3295 52.2312 43.633C52.2657 43.9365 52.2401 44.2439 52.1557 44.5375C52.0714 44.8311 51.93 45.1052 51.7397 45.3442C51.5494 45.5831 51.3138 45.7822 51.0465 45.93C50.7793 46.0782 50.4856 46.1722 50.182 46.2067C49.8785 46.2413 49.5712 46.2157 49.2775 46.1313C48.9839 46.047 48.7098 45.9056 48.4709 45.7153C48.2319 45.525 48.0328 45.2894 47.885 45.0221L47.8372 44.9358C47.6479 44.6026 47.3631 44.3338 47.0196 44.164C46.6761 43.9943 46.2896 43.9313 45.9099 43.9832C45.5389 44.0299 45.1895 44.1841 44.905 44.4268C44.6204 44.6695 44.413 44.9902 44.3083 45.3492L44.2538 45.5391C44.0836 46.1317 43.685 46.6324 43.1457 46.931C42.6063 47.2297 41.9704 47.3019 41.3779 47.1317C40.7853 46.9615 40.2846 46.5629 39.9859 46.0236C39.6873 45.4842 39.6151 44.8483 39.7853 44.2558L39.8142 44.1552C39.9117 43.783 39.895 43.39 39.7662 43.0274C39.6375 42.6647 39.4026 42.3492 39.0921 42.1219C38.7979 41.8764 38.4369 41.7247 38.0556 41.6863C37.6744 41.6479 37.2903 41.7247 36.9531 41.9066L36.8668 41.9544C36.5996 42.1025 36.3059 42.1965 36.0024 42.2311C35.6989 42.2656 35.3915 42.24 35.0979 42.1556C34.8043 42.0713 34.5301 41.9299 34.2912 41.7396C34.0523 41.5493 33.8532 41.3137 33.7053 41.0464C33.5572 40.7792 33.4632 40.4855 33.4286 40.1819C33.3941 39.8784 33.4197 39.5711 33.5041 39.2774C33.5884 38.9838 33.7298 38.7097 33.9201 38.4708C34.1104 38.2318 34.346 38.0327 34.6133 37.8849L34.6996 37.8371C35.0328 37.6478 35.3016 37.363 35.4713 37.0195C35.6411 36.676 35.7041 36.2895 35.6522 35.9098C35.6055 35.5388 35.4513 35.1894 35.2086 34.9049C34.9658 34.6203 34.6452 34.4129 34.2862 34.3082L34.0962 34.2537C33.5037 34.0835 33.003 33.6849 32.7043 33.1456C32.4057 32.6062 32.3335 31.9703 32.5037 31.3778C32.6739 30.7852 33.0725 30.2845 33.6118 29.9859C34.1512 29.6872 34.7871 29.615 35.3796 29.7852L35.4802 29.8141C35.8524 29.9116 36.2454 29.8949 36.608 29.7662C36.9706 29.6374 37.2862 29.4025 37.5135 29.092C37.759 28.7978 37.9107 28.4368 37.9491 28.0555C37.9874 27.6743 37.9107 27.2902 37.7288 26.953L37.681 26.8667C37.5329 26.5996 37.4389 26.3058 37.4043 26.0023C37.3698 25.6988 37.3954 25.3914 37.4797 25.0978C37.5641 24.8042 37.7054 24.5301 37.8958 24.2911C38.0861 24.0522 38.3217 23.8531 38.589 23.7052C38.8562 23.5571 39.1499 23.4631 39.4534 23.4285C39.757 23.394 40.0643 23.4196 40.3579 23.504C40.6516 23.5883 40.9257 23.7297 41.1646 23.92C41.4035 24.1103 41.6026 24.3459 41.7505 24.6132L41.7982 24.6995C41.9876 25.0327 42.2723 25.3015 42.6159 25.4712C42.9594 25.641 43.3459 25.704 43.7255 25.6521L43.8149 25.6778C44.186 25.631 44.5353 25.4768 44.8199 25.2341C45.1044 24.9914 45.3118 24.6708 45.4165 24.3117L45.4711 24.1218C45.6412 23.5293 46.0398 23.0286 46.5792 22.7299C47.1185 22.4312 47.7544 22.3591 48.347 22.5292C48.9395 22.6994 49.4402 23.098 49.7389 23.6374C50.0376 24.1767 50.1097 24.8126 49.9396 25.4052L49.9107 25.5057C49.8089 25.8656 49.8145 26.2474 49.9269 26.6041C50.0393 26.9609 50.2536 27.2769 50.5433 27.5134C50.8376 27.7589 51.1986 27.9106 51.5799 27.949C51.9611 27.9874 52.3451 27.9106 52.6824 27.7287L52.7687 27.6809C53.0358 27.5328 53.3296 27.4388 53.6331 27.4042C53.9366 27.3697 54.244 27.3953 54.5376 27.4796C54.8312 27.564 55.1053 27.7053 55.3443 27.8957C55.5832 28.086 55.7823 28.3216 55.9301 28.5889C56.0783 28.8561 56.1723 29.1498 56.2068 29.4533C56.2414 29.7569 56.2157 30.0642 56.1314 30.3578C56.0471 30.6515 55.9057 30.9256 55.7154 31.1645C55.525 31.4035 55.2895 31.6025 55.0222 31.7504L54.9359 31.7982C54.6027 31.9875 54.3339 32.2723 54.1641 32.6158C53.9943 32.9593 53.9314 33.3458 53.9833 33.7254L53.9576 33.8148C54.0043 34.1859 54.1585 34.5352 54.4013 34.8198C54.644 35.1044 54.9646 35.3117 55.3236 35.4164L55.5136 35.471C56.1061 35.6411 56.6068 36.0397 56.9055 36.5791C57.2041 37.1184 57.2763 37.7543 57.1061 38.3469C56.9359 38.9395 56.5373 39.4401 55.998 39.7388C55.4587 40.0375 54.8228 40.1096 54.2302 39.9395L54.1297 39.9106C53.7698 39.8088 53.388 39.8144 53.0312 39.9268C52.6745 40.0392 52.3585 40.2535 52.122 40.5432Z" fill="#466D00"/>
<path d="M43.8553 38.1691C45.7062 38.7007 47.6376 37.6311 48.1692 35.7802C48.7008 33.9293 47.6313 31.9979 45.7803 31.4663C43.9294 30.9347 41.998 32.0042 41.4664 33.8552C40.9348 35.7061 42.0044 37.6375 43.8553 38.1691Z" fill="#131814"/>
</svg>
