<svg width="32" height="32" viewBox="0 0 32 32" fill="none" xmlns="http://www.w3.org/2000/svg">
<path d="M2.37974 18.7639L13.2255 29.6125C13.5064 29.8938 13.8401 30.117 14.2074 30.2693C14.5746 30.4216 14.9683 30.5 15.3659 30.5C15.7635 30.5 16.1571 30.4216 16.5244 30.2693C16.8917 30.117 17.2253 29.8938 17.5063 29.6125L29.6204 17.5094C30.1836 16.9467 30.5 16.1832 30.5 15.3871V4.5C30.5 2.84314 29.1569 1.5 27.5 1.5H16.6163C15.8205 1.5 15.0574 1.81618 14.4947 2.37896L2.37974 14.4971C1.81627 15.0641 1.5 15.8311 1.5 16.6305C1.5 17.43 1.81627 18.1969 2.37974 18.7639Z" stroke="#77B900" stroke-width="3" stroke-linecap="round" stroke-linejoin="round"/>
<circle cx="23" cy="9" r="2.5" fill="#77B900"/>
</svg>
