<svg width="1728" height="1116" viewBox="0 0 1728 1116" fill="none" xmlns="http://www.w3.org/2000/svg">
<g clip-path="url(#clip0_627_8396)">
<path d="M1848 0H-136V1116H1848V0Z" fill="url(#paint0_radial_627_8396)"/>
<g opacity="0.02">
<path d="M765.687 539.09L873.98 698.637L1046.13 632.193L765.687 539.09Z" fill="#0B3D1F"/>
<path d="M1046.13 632.193L1034.66 400.417L765.687 539.09L1046.13 632.193Z" fill="#0B3D1F"/>
<path d="M873.98 698.637L1019.99 749.787L1046.13 632.193L873.98 698.637Z" fill="#0B3D1F"/>
<path d="M1046.13 632.193L1116.19 418.5L1034.66 400.417L1046.13 632.193Z" fill="#0B3D1F"/>
<path d="M1244.43 466.447L1116.19 418.5L1046.13 632.193L1244.43 466.447Z" fill="#0B3D1F"/>
<path d="M1019.99 749.787L1133.55 745.447L1046.13 632.193L1019.99 749.787Z" fill="#0B3D1F"/>
<path d="M1019.99 749.787L1161.45 754.747L1133.55 745.447L1019.99 749.787Z" fill="#0B3D1F"/>
<path d="M1133.55 745.447L1244.43 466.447L1046.13 632.193L1133.55 745.447Z" fill="#0B3D1F"/>
<path d="M1116.19 418.5L1069.18 261.227L1034.66 400.417L1116.19 418.5Z" fill="#0B3D1F"/>
<path d="M757.317 99.7166L560.053 355.983L765.687 539.09L757.317 99.7166Z" fill="#0B3D1F"/>
<path d="M1161.45 754.747L1244.43 466.447L1133.55 745.447L1161.45 754.747Z" fill="#0B3D1F"/>
<path d="M1116.19 418.5L1174.27 328.393L1069.18 261.227L1116.19 418.5Z" fill="#0B3D1F"/>
<path d="M1244.43 466.447L1174.27 328.393L1116.19 418.5L1244.43 466.447Z" fill="#0B3D1F"/>
<path d="M757.317 99.7166L765.687 539.09L1034.66 400.417L757.317 99.7166Z" fill="#0B3D1F"/>
<path d="M765.687 539.09L434.09 392.77L873.98 698.637L765.687 539.09Z" fill="#0B3D1F"/>
<path d="M1478.07 1085L1287 790.087L1161.45 754.747L1478.07 1085Z" fill="#0B3D1F"/>
<path d="M1161.45 754.747L1287 790.087L1244.43 466.447L1161.45 754.747Z" fill="#0B3D1F"/>
<path d="M1069.18 261.227L757.317 99.7166L1034.66 400.417L1069.18 261.227Z" fill="#0B3D1F"/>
<path d="M1069.18 261.227L837.503 54.6633L757.317 99.7167L1069.18 261.227Z" fill="#0B3D1F"/>
<path d="M906.22 31L837.503 54.6633L1069.18 261.227L906.22 31Z" fill="#0B3D1F"/>
<path d="M580.203 129.477L434.09 392.77L560.053 355.983L580.203 129.477Z" fill="#0B3D1F"/>
<path d="M560.053 355.983L434.09 392.77L765.687 539.09L560.053 355.983Z" fill="#0B3D1F"/>
<path d="M1081.47 55.3867L906.22 31L1069.18 261.227L1081.47 55.3867Z" fill="#0B3D1F"/>
<path d="M906.22 31H881.73L837.503 54.6633L906.22 31Z" fill="#0B3D1F"/>
<path d="M1174.27 328.393L1081.47 55.3867L1069.18 261.227L1174.27 328.393Z" fill="#0B3D1F"/>
<path d="M1081.47 55.3867L1069.69 43.09L906.22 31L1081.47 55.3867Z" fill="#0B3D1F"/>
<path d="M881.73 31H802.473L837.503 54.6633L881.73 31Z" fill="#0B3D1F"/>
<path d="M837.503 54.6633L799.167 31L757.317 99.7167L837.503 54.6633Z" fill="#0B3D1F"/>
<path d="M757.317 99.7166L580.203 129.477L560.053 355.983L757.317 99.7166Z" fill="#0B3D1F"/>
<path d="M802.473 31H799.167L837.503 54.6633L802.473 31Z" fill="#0B3D1F"/>
<path d="M799.167 31L580.203 129.477L757.317 99.7167L799.167 31Z" fill="#0B3D1F"/>
<path d="M1287 790.087L1449.03 711.14L1244.43 466.447L1287 790.087Z" fill="#0B3D1F"/>
<path d="M1244.43 466.447L1469.59 680.657L1174.27 328.393L1244.43 466.447Z" fill="#0B3D1F"/>
<path d="M1449.03 711.14L1469.59 680.657L1244.43 466.447L1449.03 711.14Z" fill="#0B3D1F"/>
<path d="M1478.07 1085L1447.79 851.777L1287 790.087L1478.07 1085Z" fill="#0B3D1F"/>
<path d="M1287 790.087L1447.79 851.777L1449.03 711.14L1287 790.087Z" fill="#0B3D1F"/>
<path d="M1449.03 711.14L1447.79 851.777L1469.59 680.657L1449.03 711.14Z" fill="#0B3D1F"/>
<path d="M799.167 31H374.57L580.203 129.477L799.167 31Z" fill="#0B3D1F"/>
<path d="M580.203 129.477L374.57 31L434.09 392.77L580.203 129.477Z" fill="#0B3D1F"/>
<path d="M1019.99 749.787L1478.07 1085L1161.45 754.747L1019.99 749.787Z" fill="#0B3D1F"/>
<path d="M1447.79 851.777L1697.13 929.69L1469.59 680.657L1447.79 851.777Z" fill="#0B3D1F"/>
<path d="M1478.07 1085L1553.6 1025.27L1447.79 851.777L1478.07 1085Z" fill="#0B3D1F"/>
<path d="M1478.07 1085L1592.15 1080.25L1553.6 1025.27L1478.07 1085Z" fill="#0B3D1F"/>
<path d="M1553.6 1025.27L1697.13 929.69L1447.79 851.777L1553.6 1025.27Z" fill="#0B3D1F"/>
<path d="M1592.15 1080.25L1697.13 929.69L1553.6 1025.27L1592.15 1080.25Z" fill="#0B3D1F"/>
<path d="M374.57 31H208.823L434.09 392.77L374.57 31Z" fill="#0B3D1F"/>
<path d="M208.823 31H204.07L434.09 392.77L208.823 31Z" fill="#0B3D1F"/>
<path d="M204.07 31H96.9133L434.09 392.77L204.07 31Z" fill="#0B3D1F"/>
<path d="M1592.15 1080.25L1752 1065.16L1697.13 929.69L1592.15 1080.25Z" fill="#0B3D1F"/>
<path d="M96.9134 31H59.1968L434.09 392.77L96.9134 31Z" fill="#0B3D1F"/>
<path d="M59.1968 31H36.7734L434.09 392.77L59.1968 31Z" fill="#0B3D1F"/>
<path d="M1478.07 1085H1807.6L1592.15 1080.25L1478.07 1085Z" fill="#0B3D1F"/>
<path d="M1592.15 1080.25L1807.6 1085L1752 1065.16L1592.15 1080.25Z" fill="#0B3D1F"/>
<path d="M1752 1065.16L1817 1085L1697.13 929.69L1752 1065.16Z" fill="#0B3D1F"/>
</g>
<g opacity="0.1" filter="url(#filter0_f_627_8396)">
<path d="M765.687 539.09L873.98 698.637" stroke="#7D9E49" stroke-width="2.5"/>
<path d="M1046.13 632.193L873.98 698.637" stroke="#7D9E49" stroke-width="2.5"/>
<path d="M1046.13 632.193L765.687 539.09" stroke="#7D9E49" stroke-width="2.5"/>
<path d="M1046.13 632.193L1034.66 400.417" stroke="#7D9E49" stroke-width="2.5"/>
<path d="M765.687 539.09L1034.66 400.417" stroke="#7D9E49" stroke-width="2.5"/>
<path d="M1019.99 749.787L873.98 698.637" stroke="#7D9E49" stroke-width="2.5"/>
<path d="M1019.99 749.787L1046.13 632.193" stroke="#7D9E49" stroke-width="2.5"/>
<path d="M1046.13 632.193L1116.19 418.5" stroke="#7D9E49" stroke-width="2.5"/>
<path d="M1116.19 418.5L1034.66 400.417" stroke="#7D9E49" stroke-width="2.5"/>
<path d="M1244.43 466.447L1116.19 418.5" stroke="#7D9E49" stroke-width="2.5"/>
<path d="M1244.43 466.447L1046.13 632.193" stroke="#7D9E49" stroke-width="2.5"/>
<path d="M1019.99 749.787L1133.55 745.447" stroke="#7D9E49" stroke-width="2.5"/>
<path d="M1046.13 632.193L1133.55 745.447" stroke="#7D9E49" stroke-width="2.5"/>
<path d="M1019.99 749.787L1161.45 754.747" stroke="#7D9E49" stroke-width="2.5"/>
<path d="M1161.45 754.747L1133.55 745.447" stroke="#7D9E49" stroke-width="2.5"/>
<path d="M1244.43 466.447L1133.55 745.447" stroke="#7D9E49" stroke-width="2.5"/>
<path d="M1069.18 261.227L1116.19 418.5" stroke="#7D9E49" stroke-width="2.5"/>
<path d="M1069.18 261.227L1034.66 400.417" stroke="#7D9E49" stroke-width="2.5"/>
<path d="M757.317 99.7166L560.053 355.983" stroke="#7D9E49" stroke-width="2.5"/>
<path d="M560.053 355.983L765.687 539.09" stroke="#7D9E49" stroke-width="2.5"/>
<path d="M757.317 99.7166L765.687 539.09" stroke="#7D9E49" stroke-width="2.5"/>
<path d="M1244.43 466.447L1161.45 754.747" stroke="#7D9E49" stroke-width="2.5"/>
<path d="M1116.19 418.5L1174.27 328.393" stroke="#7D9E49" stroke-width="2.5"/>
<path d="M1069.18 261.227L1174.27 328.393" stroke="#7D9E49" stroke-width="2.5"/>
<path d="M1244.43 466.447L1174.27 328.393" stroke="#7D9E49" stroke-width="2.5"/>
<path d="M757.317 99.7166L1034.66 400.417" stroke="#7D9E49" stroke-width="2.5"/>
<path d="M434.09 392.77L765.686 539.09" stroke="#7D9E49" stroke-width="2.5"/>
<path d="M434.09 392.77L873.98 698.637" stroke="#7D9E49" stroke-width="2.5"/>
<path d="M1287 790.087L1478.07 1085" stroke="#7D9E49" stroke-width="2.5"/>
<path d="M1287 790.087L1161.45 754.747" stroke="#7D9E49" stroke-width="2.5"/>
<path d="M1161.45 754.747L1478.07 1085" stroke="#7D9E49" stroke-width="2.5"/>
<path d="M1244.43 466.447L1287 790.087" stroke="#7D9E49" stroke-width="2.5"/>
<path d="M1069.18 261.227L757.317 99.7166" stroke="#7D9E49" stroke-width="2.5"/>
<path d="M1069.18 261.227L837.503 54.6633" stroke="#7D9E49" stroke-width="2.5"/>
<path d="M757.317 99.7167L837.503 54.6633" stroke="#7D9E49" stroke-width="2.5"/>
<path d="M837.503 54.6633L906.22 31" stroke="#7D9E49" stroke-width="2.5"/>
<path d="M1069.18 261.227L906.22 31" stroke="#7D9E49" stroke-width="2.5"/>
<path d="M434.09 392.77L580.203 129.477" stroke="#7D9E49" stroke-width="2.5"/>
<path d="M434.09 392.77L560.053 355.983" stroke="#7D9E49" stroke-width="2.5"/>
<path d="M580.203 129.477L560.053 355.983" stroke="#7D9E49" stroke-width="2.5"/>
<path d="M1081.47 55.3867L906.22 31" stroke="#7D9E49" stroke-width="2.5"/>
<path d="M1069.18 261.227L1081.47 55.3867" stroke="#7D9E49" stroke-width="2.5"/>
<path d="M906.22 31H881.73" stroke="#7D9E49" stroke-width="2.5"/>
<path d="M837.503 54.6633L881.73 31" stroke="#7D9E49" stroke-width="2.5"/>
<path d="M1081.47 55.3867L1174.27 328.393" stroke="#7D9E49" stroke-width="2.5"/>
<path d="M1469.59 680.657L1174.27 328.393" stroke="#7D9E49" stroke-width="2.5"/>
<path d="M1081.47 55.3868L1069.69 43.0901" stroke="#7D9E49" stroke-width="2.5"/>
<path d="M1069.69 43.09L906.22 31" stroke="#7D9E49" stroke-width="2.5"/>
<path d="M881.73 31H802.473" stroke="#7D9E49" stroke-width="2.5"/>
<path d="M837.503 54.6633L802.473 31" stroke="#7D9E49" stroke-width="2.5"/>
<path d="M837.503 54.6633L799.167 31" stroke="#7D9E49" stroke-width="2.5"/>
<path d="M757.317 99.7167L799.167 31" stroke="#7D9E49" stroke-width="2.5"/>
<path d="M757.317 99.7166L580.203 129.477" stroke="#7D9E49" stroke-width="2.5"/>
<path d="M799.167 31H802.473" stroke="#7D9E49" stroke-width="2.5"/>
<path d="M580.203 129.477L799.167 31" stroke="#7D9E49" stroke-width="2.5"/>
<path d="M1449.03 711.14L1287 790.087" stroke="#7D9E49" stroke-width="2.5"/>
<path d="M1244.43 466.447L1449.03 711.14" stroke="#7D9E49" stroke-width="2.5"/>
<path d="M1244.43 466.447L1469.59 680.657" stroke="#7D9E49" stroke-width="2.5"/>
<path d="M1449.03 711.14L1469.59 680.657" stroke="#7D9E49" stroke-width="2.5"/>
<path d="M1478.07 1085L1447.79 851.777" stroke="#7D9E49" stroke-width="2.5"/>
<path d="M1287 790.087L1447.79 851.777" stroke="#7D9E49" stroke-width="2.5"/>
<path d="M1449.03 711.14L1447.79 851.777" stroke="#7D9E49" stroke-width="2.5"/>
<path d="M1469.59 680.657L1447.79 851.777" stroke="#7D9E49" stroke-width="2.5"/>
<path d="M374.57 31H799.167" stroke="#7D9E49" stroke-width="2.5"/>
<path d="M374.57 31L580.203 129.477" stroke="#7D9E49" stroke-width="2.5"/>
<path d="M374.57 31L434.09 392.77" stroke="#7D9E49" stroke-width="2.5"/>
<path d="M1019.99 749.787L1478.07 1085" stroke="#7D9E49" stroke-width="2.5"/>
<path d="M1697.13 929.69L1447.79 851.777" stroke="#7D9E49" stroke-width="2.5"/>
<path d="M1697.13 929.69L1469.59 680.657" stroke="#7D9E49" stroke-width="2.5"/>
<path d="M1553.6 1025.27L1478.07 1085" stroke="#7D9E49" stroke-width="2.5"/>
<path d="M1553.6 1025.27L1447.79 851.777" stroke="#7D9E49" stroke-width="2.5"/>
<path d="M1592.15 1080.25L1478.07 1085" stroke="#7D9E49" stroke-width="2.5"/>
<path d="M1592.15 1080.25L1553.6 1025.27" stroke="#7D9E49" stroke-width="2.5"/>
<path d="M1553.6 1025.27L1697.13 929.69" stroke="#7D9E49" stroke-width="2.5"/>
<path d="M1592.15 1080.25L1697.13 929.69" stroke="#7D9E49" stroke-width="2.5"/>
<path d="M374.57 31H208.823" stroke="#7D9E49" stroke-width="2.5"/>
<path d="M434.09 392.77L208.823 31" stroke="#7D9E49" stroke-width="2.5"/>
<path d="M204.07 31H208.823" stroke="#7D9E49" stroke-width="2.5"/>
<path d="M434.09 392.77L204.07 31" stroke="#7D9E49" stroke-width="2.5"/>
<path d="M204.07 31H96.9133" stroke="#7D9E49" stroke-width="2.5"/>
<path d="M434.09 392.77L96.9133 31" stroke="#7D9E49" stroke-width="2.5"/>
<path d="M1752 1065.16L1592.15 1080.25" stroke="#7D9E49" stroke-width="2.5"/>
<path d="M1752 1065.16L1697.13 929.69" stroke="#7D9E49" stroke-width="2.5"/>
<path d="M59.1968 31H96.9134" stroke="#7D9E49" stroke-width="2.5"/>
<path d="M59.1968 31L434.09 392.77" stroke="#7D9E49" stroke-width="2.5"/>
<path d="M59.1968 31H36.7734" stroke="#7D9E49" stroke-width="2.5"/>
<path d="M434.09 392.77L36.7734 31" stroke="#7D9E49" stroke-width="2.5"/>
<path d="M1807.6 1085H1478.07" stroke="#7D9E49" stroke-width="2.5"/>
<path d="M1592.15 1080.25L1807.6 1085" stroke="#7D9E49" stroke-width="2.5"/>
<path d="M1697.13 929.69L1817 1085" stroke="#7D9E49" stroke-width="2.5"/>
<path d="M-105 31H36.7733" stroke="#7D9E49" stroke-width="2.5"/>
</g>
<g opacity="0.534">
<path d="M765.687 539.09L873.98 698.637" stroke="#7D9E49" stroke-width="0.85"/>
<path d="M1046.13 632.193L873.98 698.637" stroke="#7D9E49" stroke-width="0.85"/>
<path d="M1046.13 632.193L765.687 539.09" stroke="#7D9E49" stroke-width="0.85"/>
<path d="M1046.13 632.193L1034.66 400.417" stroke="#7D9E49" stroke-width="0.85"/>
<path d="M765.687 539.09L1034.66 400.417" stroke="#7D9E49" stroke-width="0.85"/>
<path d="M1019.99 749.787L873.98 698.637" stroke="#7D9E49" stroke-width="0.85"/>
<path d="M1019.99 749.787L1046.13 632.193" stroke="#7D9E49" stroke-width="0.85"/>
<path d="M1046.13 632.193L1116.19 418.5" stroke="#7D9E49" stroke-width="0.85"/>
<path d="M1116.19 418.5L1034.66 400.417" stroke="#7D9E49" stroke-width="0.85"/>
<path d="M1244.43 466.447L1116.19 418.5" stroke="#7D9E49" stroke-width="0.85"/>
<path d="M1244.43 466.447L1046.13 632.193" stroke="#7D9E49" stroke-width="0.85"/>
<path d="M1019.99 749.787L1133.55 745.447" stroke="#7D9E49" stroke-width="0.85"/>
<path d="M1046.13 632.193L1133.55 745.447" stroke="#7D9E49" stroke-width="0.85"/>
<path d="M1019.99 749.787L1161.45 754.747" stroke="#7D9E49" stroke-width="0.85"/>
<path d="M1161.45 754.747L1133.55 745.447" stroke="#7D9E49" stroke-width="0.85"/>
<path d="M1244.43 466.447L1133.55 745.447" stroke="#7D9E49" stroke-width="0.85"/>
<path d="M1069.18 261.227L1116.19 418.5" stroke="#7D9E49" stroke-width="0.85"/>
<path d="M1069.18 261.227L1034.66 400.417" stroke="#7D9E49" stroke-width="0.85"/>
<path d="M757.317 99.7166L560.053 355.983" stroke="#7D9E49" stroke-width="0.85"/>
<path d="M560.053 355.983L765.687 539.09" stroke="#7D9E49" stroke-width="0.85"/>
<path d="M757.317 99.7166L765.687 539.09" stroke="#7D9E49" stroke-width="0.85"/>
<path d="M1244.43 466.447L1161.45 754.747" stroke="#7D9E49" stroke-width="0.85"/>
<path d="M1116.19 418.5L1174.27 328.393" stroke="#7D9E49" stroke-width="0.85"/>
<path d="M1069.18 261.227L1174.27 328.393" stroke="#7D9E49" stroke-width="0.85"/>
<path d="M1244.43 466.447L1174.27 328.393" stroke="#7D9E49" stroke-width="0.85"/>
<path d="M757.317 99.7166L1034.66 400.417" stroke="#7D9E49" stroke-width="0.85"/>
<path d="M434.09 392.77L765.686 539.09" stroke="#7D9E49" stroke-width="0.85"/>
<path d="M434.09 392.77L873.98 698.637" stroke="#7D9E49" stroke-width="0.85"/>
<path d="M1287 790.087L1478.07 1085" stroke="#7D9E49" stroke-width="0.85"/>
<path d="M1287 790.087L1161.45 754.747" stroke="#7D9E49" stroke-width="0.85"/>
<path d="M1161.45 754.747L1478.07 1085" stroke="#7D9E49" stroke-width="0.85"/>
<path d="M1244.43 466.447L1287 790.087" stroke="#7D9E49" stroke-width="0.85"/>
<path d="M1069.18 261.227L757.317 99.7166" stroke="#7D9E49" stroke-width="0.85"/>
<path d="M1069.18 261.227L837.503 54.6633" stroke="#7D9E49" stroke-width="0.85"/>
<path d="M757.317 99.7167L837.503 54.6633" stroke="#7D9E49" stroke-width="0.85"/>
<path d="M837.503 54.6633L906.22 31" stroke="#7D9E49" stroke-width="0.85"/>
<path d="M1069.18 261.227L906.22 31" stroke="#7D9E49" stroke-width="0.85"/>
<path d="M434.09 392.77L580.203 129.477" stroke="#7D9E49" stroke-width="0.85"/>
<path d="M434.09 392.77L560.053 355.983" stroke="#7D9E49" stroke-width="0.85"/>
<path d="M580.203 129.477L560.053 355.983" stroke="#7D9E49" stroke-width="0.85"/>
<path d="M1081.47 55.3867L906.22 31" stroke="#7D9E49" stroke-width="0.85"/>
<path d="M1069.18 261.227L1081.47 55.3867" stroke="#7D9E49" stroke-width="0.85"/>
<path d="M906.22 31H881.73" stroke="#7D9E49" stroke-width="0.85"/>
<path d="M837.503 54.6633L881.73 31" stroke="#7D9E49" stroke-width="0.85"/>
<path d="M1081.47 55.3867L1174.27 328.393" stroke="#7D9E49" stroke-width="0.85"/>
<path d="M1469.59 680.657L1174.27 328.393" stroke="#7D9E49" stroke-width="0.85"/>
<path d="M1081.47 55.3868L1069.69 43.0901" stroke="#7D9E49" stroke-width="0.85"/>
<path d="M1069.69 43.09L906.22 31" stroke="#7D9E49" stroke-width="0.85"/>
<path d="M881.73 31H802.473" stroke="#7D9E49" stroke-width="0.85"/>
<path d="M837.503 54.6633L802.473 31" stroke="#7D9E49" stroke-width="0.85"/>
<path d="M837.503 54.6633L799.167 31" stroke="#7D9E49" stroke-width="0.85"/>
<path d="M757.317 99.7167L799.167 31" stroke="#7D9E49" stroke-width="0.85"/>
<path d="M757.317 99.7166L580.203 129.477" stroke="#7D9E49" stroke-width="0.85"/>
<path d="M799.167 31H802.473" stroke="#7D9E49" stroke-width="0.85"/>
<path d="M580.203 129.477L799.167 31" stroke="#7D9E49" stroke-width="0.85"/>
<path d="M1449.03 711.14L1287 790.087" stroke="#7D9E49" stroke-width="0.85"/>
<path d="M1244.43 466.447L1449.03 711.14" stroke="#7D9E49" stroke-width="0.85"/>
<path d="M1244.43 466.447L1469.59 680.657" stroke="#7D9E49" stroke-width="0.85"/>
<path d="M1449.03 711.14L1469.59 680.657" stroke="#7D9E49" stroke-width="0.85"/>
<path d="M1478.07 1085L1447.79 851.777" stroke="#7D9E49" stroke-width="0.85"/>
<path d="M1287 790.087L1447.79 851.777" stroke="#7D9E49" stroke-width="0.85"/>
<path d="M1449.03 711.14L1447.79 851.777" stroke="#7D9E49" stroke-width="0.85"/>
<path d="M1469.59 680.657L1447.79 851.777" stroke="#7D9E49" stroke-width="0.85"/>
<path d="M374.57 31H799.167" stroke="#7D9E49" stroke-width="0.85"/>
<path d="M374.57 31L580.203 129.477" stroke="#7D9E49" stroke-width="0.85"/>
<path d="M374.57 31L434.09 392.77" stroke="#7D9E49" stroke-width="0.85"/>
<path d="M1019.99 749.787L1478.07 1085" stroke="#7D9E49" stroke-width="0.85"/>
<path d="M1697.13 929.69L1447.79 851.777" stroke="#7D9E49" stroke-width="0.85"/>
<path d="M1697.13 929.69L1469.59 680.657" stroke="#7D9E49" stroke-width="0.85"/>
<path d="M1553.6 1025.27L1478.07 1085" stroke="#7D9E49" stroke-width="0.85"/>
<path d="M1553.6 1025.27L1447.79 851.777" stroke="#7D9E49" stroke-width="0.85"/>
<path d="M1592.15 1080.25L1478.07 1085" stroke="#7D9E49" stroke-width="0.85"/>
<path d="M1592.15 1080.25L1553.6 1025.27" stroke="#7D9E49" stroke-width="0.85"/>
<path d="M1553.6 1025.27L1697.13 929.69" stroke="#7D9E49" stroke-width="0.85"/>
<path d="M1592.15 1080.25L1697.13 929.69" stroke="#7D9E49" stroke-width="0.85"/>
<path d="M374.57 31H208.823" stroke="#7D9E49" stroke-width="0.85"/>
<path d="M434.09 392.77L208.823 31" stroke="#7D9E49" stroke-width="0.85"/>
<path d="M204.07 31H208.823" stroke="#7D9E49" stroke-width="0.85"/>
<path d="M434.09 392.77L204.07 31" stroke="#7D9E49" stroke-width="0.85"/>
<path d="M204.07 31H96.9133" stroke="#7D9E49" stroke-width="0.85"/>
<path d="M434.09 392.77L96.9133 31" stroke="#7D9E49" stroke-width="0.85"/>
<path d="M1752 1065.16L1592.15 1080.25" stroke="#7D9E49" stroke-width="0.85"/>
<path d="M1752 1065.16L1697.13 929.69" stroke="#7D9E49" stroke-width="0.85"/>
<path d="M59.1968 31H96.9134" stroke="#7D9E49" stroke-width="0.85"/>
<path d="M59.1968 31L434.09 392.77" stroke="#7D9E49" stroke-width="0.85"/>
<path d="M59.1968 31H36.7734" stroke="#7D9E49" stroke-width="0.85"/>
<path d="M434.09 392.77L36.7734 31" stroke="#7D9E49" stroke-width="0.85"/>
<path d="M1807.6 1085H1478.07" stroke="#7D9E49" stroke-width="0.85"/>
<path d="M1592.15 1080.25L1807.6 1085" stroke="#7D9E49" stroke-width="0.85"/>
<path d="M1697.13 929.69L1817 1085" stroke="#7D9E49" stroke-width="0.85"/>
<path d="M-105 31H36.7733" stroke="#7D9E49" stroke-width="0.85"/>
</g>
<g filter="url(#filter1_f_627_8396)">
<path opacity="0.114" d="M374.57 39.1633C379.079 39.1633 382.733 35.5085 382.733 31C382.733 26.4915 379.079 22.8367 374.57 22.8367C370.062 22.8367 366.407 26.4915 366.407 31C366.407 35.5085 370.062 39.1633 374.57 39.1633Z" fill="#7D9E49"/>
<path opacity="0.126" d="M1592.15 1089.65C1597.34 1089.65 1601.55 1085.44 1601.55 1080.25C1601.55 1075.05 1597.34 1070.84 1592.15 1070.84C1586.95 1070.84 1582.74 1075.05 1582.74 1080.25C1582.74 1085.44 1586.95 1089.65 1592.15 1089.65Z" fill="#7D9E49"/>
<path opacity="0.159" d="M1069.18 273.523C1075.97 273.523 1081.47 268.018 1081.47 261.227C1081.47 254.435 1075.97 248.93 1069.18 248.93C1062.39 248.93 1056.88 254.435 1056.88 261.227C1056.88 268.018 1062.39 273.523 1069.18 273.523Z" fill="#7D9E49"/>
<path opacity="0.126" d="M59.1967 40.2999C64.333 40.2999 68.4967 36.1362 68.4967 31C68.4967 25.8637 64.333 21.7 59.1967 21.7C54.0605 21.7 49.8967 25.8637 49.8967 31C49.8967 36.1362 54.0605 40.2999 59.1967 40.2999Z" fill="#7D9E49"/>
<path opacity="0.154" d="M1081.47 67.2701C1088.04 67.2701 1093.36 61.9497 1093.36 55.3868C1093.36 48.8238 1088.04 43.5034 1081.47 43.5034C1074.91 43.5034 1069.59 48.8238 1069.59 55.3868C1069.59 61.9497 1074.91 67.2701 1081.47 67.2701Z" fill="#7D9E49"/>
<path opacity="0.114" d="M434.09 401.037C438.655 401.037 442.357 397.336 442.357 392.77C442.357 388.205 438.655 384.503 434.09 384.503C429.524 384.503 425.823 388.205 425.823 392.77C425.823 397.336 429.524 401.037 434.09 401.037Z" fill="#7D9E49"/>
<path opacity="0.1" d="M1449.03 718.167C1452.91 718.167 1456.06 715.021 1456.06 711.14C1456.06 707.259 1452.91 704.113 1449.03 704.113C1445.15 704.113 1442 707.259 1442 711.14C1442 715.021 1445.15 718.167 1449.03 718.167Z" fill="#7D9E49"/>
<path opacity="0.126" d="M1553.6 1034.57C1558.74 1034.57 1562.9 1030.41 1562.9 1025.27C1562.9 1020.14 1558.74 1015.97 1553.6 1015.97C1548.47 1015.97 1544.3 1020.14 1544.3 1025.27C1544.3 1030.41 1548.47 1034.57 1553.6 1034.57Z" fill="#7D9E49"/>
<path opacity="0.127" d="M1019.99 759.19C1025.18 759.19 1029.39 754.98 1029.39 749.787C1029.39 744.593 1025.18 740.383 1019.99 740.383C1014.8 740.383 1010.59 744.593 1010.59 749.787C1010.59 754.98 1014.8 759.19 1019.99 759.19Z" fill="#7D9E49"/>
<path opacity="0.14" d="M580.203 140.017C586.024 140.017 590.743 135.298 590.743 129.477C590.743 123.656 586.024 118.937 580.203 118.937C574.382 118.937 569.663 123.656 569.663 129.477C569.663 135.298 574.382 140.017 580.203 140.017Z" fill="#7D9E49"/>
<path opacity="0.105" d="M1287 797.527C1291.11 797.527 1294.44 794.196 1294.44 790.087C1294.44 785.978 1291.11 782.647 1287 782.647C1282.89 782.647 1279.56 785.978 1279.56 790.087C1279.56 794.196 1282.89 797.527 1287 797.527Z" fill="#7D9E49"/>
<path opacity="0.111" d="M1069.69 51.0466C1074.09 51.0466 1077.65 47.4843 1077.65 43.09C1077.65 38.6956 1074.09 35.1333 1069.69 35.1333C1065.3 35.1333 1061.74 38.6956 1061.74 43.09C1061.74 47.4843 1065.3 51.0466 1069.69 51.0466Z" fill="#7D9E49"/>
<path opacity="0.104" d="M799.167 38.3367C803.219 38.3367 806.503 35.0519 806.503 31C806.503 26.9481 803.219 23.6633 799.167 23.6633C795.115 23.6633 791.83 26.9481 791.83 31C791.83 35.0519 795.115 38.3367 799.167 38.3367Z" fill="#7D9E49"/>
<path opacity="0.13" d="M208.823 40.7133C214.188 40.7133 218.537 36.3645 218.537 31C218.537 25.6354 214.188 21.2866 208.823 21.2866C203.459 21.2866 199.11 25.6354 199.11 31C199.11 36.3645 203.459 40.7133 208.823 40.7133Z" fill="#7D9E49"/>
<path opacity="0.121" d="M1697.13 938.577C1702.04 938.577 1706.02 934.598 1706.02 929.69C1706.02 924.782 1702.04 920.803 1697.13 920.803C1692.23 920.803 1688.25 924.782 1688.25 929.69C1688.25 934.598 1692.23 938.577 1697.13 938.577Z" fill="#7D9E49"/>
<path opacity="0.135" d="M1161.45 764.873C1167.05 764.873 1171.58 760.34 1171.58 754.747C1171.58 749.154 1167.05 744.62 1161.45 744.62C1155.86 744.62 1151.33 749.154 1151.33 754.747C1151.33 760.34 1155.86 764.873 1161.45 764.873Z" fill="#7D9E49"/>
<path opacity="0.122" d="M1478.07 1093.99C1483.03 1093.99 1487.06 1089.97 1487.06 1085C1487.06 1080.03 1483.03 1076.01 1478.07 1076.01C1473.1 1076.01 1469.08 1080.03 1469.08 1085C1469.08 1089.97 1473.1 1093.99 1478.07 1093.99Z" fill="#7D9E49"/>
<path opacity="0.15" d="M906.22 42.47C912.555 42.47 917.69 37.3347 917.69 31C917.69 24.6653 912.555 19.53 906.22 19.53C899.885 19.53 894.75 24.6653 894.75 31C894.75 37.3347 899.885 42.47 906.22 42.47Z" fill="#7D9E49"/>
<path opacity="0.139" d="M560.053 366.42C565.817 366.42 570.49 361.747 570.49 355.983C570.49 350.219 565.817 345.547 560.053 345.547C554.289 345.547 549.617 350.219 549.617 355.983C549.617 361.747 554.289 366.42 560.053 366.42Z" fill="#7D9E49"/>
<path opacity="0.146" d="M96.9134 42.1601C103.077 42.1601 108.073 37.1636 108.073 31.0001C108.073 24.8366 103.077 19.8401 96.9134 19.8401C90.7499 19.8401 85.7534 24.8366 85.7534 31.0001C85.7534 37.1636 90.7499 42.1601 96.9134 42.1601Z" fill="#7D9E49"/>
<path opacity="0.116" d="M36.7733 39.3701C41.3959 39.3701 45.1433 35.6228 45.1433 31.0001C45.1433 26.3775 41.3959 22.6301 36.7733 22.6301C32.1507 22.6301 28.4033 26.3775 28.4033 31.0001C28.4033 35.6228 32.1507 39.3701 36.7733 39.3701Z" fill="#7D9E49"/>
<path opacity="0.129" d="M881.73 40.6101C887.038 40.6101 891.34 36.3076 891.34 31.0001C891.34 25.6927 887.038 21.3901 881.73 21.3901C876.423 21.3901 872.12 25.6927 872.12 31.0001C872.12 36.3076 876.423 40.6101 881.73 40.6101Z" fill="#7D9E49"/>
<path opacity="0.101" d="M765.687 546.22C769.624 546.22 772.817 543.028 772.817 539.09C772.817 535.152 769.624 531.96 765.687 531.96C761.749 531.96 758.557 535.152 758.557 539.09C758.557 543.028 761.749 546.22 765.687 546.22Z" fill="#7D9E49"/>
<path opacity="0.127" d="M1469.59 690.06C1474.79 690.06 1479 685.85 1479 680.657C1479 675.463 1474.79 671.253 1469.59 671.253C1464.4 671.253 1460.19 675.463 1460.19 680.657C1460.19 685.85 1464.4 690.06 1469.59 690.06Z" fill="#7D9E49"/>
<path opacity="0.155" d="M1116.19 430.487C1122.81 430.487 1128.18 425.12 1128.18 418.5C1128.18 411.88 1122.81 406.513 1116.19 406.513C1109.57 406.513 1104.21 411.88 1104.21 418.5C1104.21 425.12 1109.57 430.487 1116.19 430.487Z" fill="#7D9E49"/>
<path opacity="0.134" d="M1447.79 861.8C1453.33 861.8 1457.81 857.312 1457.81 851.777C1457.81 846.241 1453.33 841.753 1447.79 841.753C1442.25 841.753 1437.77 846.241 1437.77 851.777C1437.77 857.312 1442.25 861.8 1447.79 861.8Z" fill="#7D9E49"/>
<path opacity="0.135" d="M1174.27 338.52C1179.86 338.52 1184.39 333.986 1184.39 328.393C1184.39 322.8 1179.86 318.267 1174.27 318.267C1168.67 318.267 1164.14 322.8 1164.14 328.393C1164.14 333.986 1168.67 338.52 1174.27 338.52Z" fill="#7D9E49"/>
<path opacity="0.14" d="M802.473 41.6434C808.352 41.6434 813.117 36.8782 813.117 31C813.117 25.1219 808.352 20.3567 802.473 20.3567C796.595 20.3567 791.83 25.1219 791.83 31C791.83 36.8782 796.595 41.6434 802.473 41.6434Z" fill="#7D9E49"/>
<path opacity="0.146" d="M873.98 709.797C880.143 709.797 885.14 704.8 885.14 698.637C885.14 692.473 880.143 687.477 873.98 687.477C867.816 687.477 862.82 692.473 862.82 698.637C862.82 704.8 867.816 709.797 873.98 709.797Z" fill="#7D9E49"/>
<path opacity="0.152" d="M1034.66 412.093C1041.11 412.093 1046.34 406.865 1046.34 400.417C1046.34 393.968 1041.11 388.74 1034.66 388.74C1028.21 388.74 1022.99 393.968 1022.99 400.417C1022.99 406.865 1028.21 412.093 1034.66 412.093Z" fill="#7D9E49"/>
</g>
<path d="M374.57 34.72C376.625 34.72 378.29 33.0545 378.29 31C378.29 28.9455 376.625 27.28 374.57 27.28C372.516 27.28 370.85 28.9455 370.85 31C370.85 33.0545 372.516 34.72 374.57 34.72Z" fill="#7D9E49"/>
<path d="M1592.15 1084.38C1594.43 1084.38 1596.28 1082.53 1596.28 1080.25C1596.28 1077.96 1594.43 1076.11 1592.15 1076.11C1589.86 1076.11 1588.01 1077.96 1588.01 1080.25C1588.01 1082.53 1589.86 1084.38 1592.15 1084.38Z" fill="#7D9E49"/>
<path d="M1069.18 266.393C1072.03 266.393 1074.34 264.08 1074.34 261.227C1074.34 258.373 1072.03 256.06 1069.18 256.06C1066.32 256.06 1064.01 258.373 1064.01 261.227C1064.01 264.08 1066.32 266.393 1069.18 266.393Z" fill="#7D9E49"/>
<path d="M59.1967 35.03C61.4224 35.03 63.2268 33.2257 63.2268 31C63.2268 28.7743 61.4224 26.97 59.1967 26.97C56.971 26.97 55.1667 28.7743 55.1667 31C55.1667 33.2257 56.971 35.03 59.1967 35.03Z" fill="#7D9E49"/>
<path d="M1081.47 60.3468C1084.21 60.3468 1086.43 58.1261 1086.43 55.3868C1086.43 52.6474 1084.21 50.4268 1081.47 50.4268C1078.73 50.4268 1076.51 52.6474 1076.51 55.3868C1076.51 58.1261 1078.73 60.3468 1081.47 60.3468Z" fill="#7D9E49"/>
<path d="M434.09 396.49C436.145 396.49 437.81 394.825 437.81 392.77C437.81 390.716 436.145 389.05 434.09 389.05C432.036 389.05 430.37 390.716 430.37 392.77C430.37 394.825 432.036 396.49 434.09 396.49Z" fill="#7D9E49"/>
<path d="M1449.03 714.343C1450.8 714.343 1452.23 712.909 1452.23 711.14C1452.23 709.371 1450.8 707.937 1449.03 707.937C1447.26 707.937 1445.83 709.371 1445.83 711.14C1445.83 712.909 1447.26 714.343 1449.03 714.343Z" fill="#7D9E49"/>
<path d="M1553.6 1029.3C1555.83 1029.3 1557.63 1027.5 1557.63 1025.27C1557.63 1023.05 1555.83 1021.24 1553.6 1021.24C1551.38 1021.24 1549.57 1023.05 1549.57 1025.27C1549.57 1027.5 1551.38 1029.3 1553.6 1029.3Z" fill="#7D9E49"/>
<path d="M1019.99 753.92C1022.27 753.92 1024.12 752.069 1024.12 749.787C1024.12 747.504 1022.27 745.653 1019.99 745.653C1017.71 745.653 1015.86 747.504 1015.86 749.787C1015.86 752.069 1017.71 753.92 1019.99 753.92Z" fill="#7D9E49"/>
<path d="M580.203 134.023C582.714 134.023 584.75 131.988 584.75 129.477C584.75 126.966 582.714 124.93 580.203 124.93C577.692 124.93 575.657 126.966 575.657 129.477C575.657 131.988 577.692 134.023 580.203 134.023Z" fill="#7D9E49"/>
<path d="M1287 793.497C1288.89 793.497 1290.41 791.97 1290.41 790.087C1290.41 788.203 1288.89 786.677 1287 786.677C1285.12 786.677 1283.59 788.203 1283.59 790.087C1283.59 791.97 1285.12 793.497 1287 793.497Z" fill="#7D9E49"/>
<path d="M1069.69 46.7067C1071.69 46.7067 1073.31 45.0875 1073.31 43.0901C1073.31 41.0926 1071.69 39.4734 1069.69 39.4734C1067.7 39.4734 1066.08 41.0926 1066.08 43.0901C1066.08 45.0875 1067.7 46.7067 1069.69 46.7067Z" fill="#7D9E49"/>
<path d="M799.167 34.3067C800.993 34.3067 802.473 32.8262 802.473 31C802.473 29.1738 800.993 27.6934 799.167 27.6934C797.34 27.6934 795.86 29.1738 795.86 31C795.86 32.8262 797.34 34.3067 799.167 34.3067Z" fill="#7D9E49"/>
<path d="M208.823 35.2368C211.163 35.2368 213.06 33.3399 213.06 31.0001C213.06 28.6602 211.163 26.7634 208.823 26.7634C206.483 26.7634 204.587 28.6602 204.587 31.0001C204.587 33.3399 206.483 35.2368 208.823 35.2368Z" fill="#7D9E49"/>
<path d="M1697.13 933.617C1699.3 933.617 1701.06 931.859 1701.06 929.69C1701.06 927.521 1699.3 925.763 1697.13 925.763C1694.96 925.763 1693.21 927.521 1693.21 929.69C1693.21 931.859 1694.96 933.617 1697.13 933.617Z" fill="#7D9E49"/>
<path d="M1161.45 759.087C1163.85 759.087 1165.79 757.144 1165.79 754.747C1165.79 752.35 1163.85 750.407 1161.45 750.407C1159.06 750.407 1157.11 752.35 1157.11 754.747C1157.11 757.144 1159.06 759.087 1161.45 759.087Z" fill="#7D9E49"/>
<path d="M1478.07 1088.93C1480.24 1088.93 1481.99 1087.17 1481.99 1085C1481.99 1082.83 1480.24 1081.07 1478.07 1081.07C1475.9 1081.07 1474.14 1082.83 1474.14 1085C1474.14 1087.17 1475.9 1088.93 1478.07 1088.93Z" fill="#7D9E49"/>
<path d="M906.22 35.8566C908.902 35.8566 911.077 33.6822 911.077 31C911.077 28.3177 908.902 26.1433 906.22 26.1433C903.538 26.1433 901.363 28.3177 901.363 31C901.363 33.6822 903.538 35.8566 906.22 35.8566Z" fill="#7D9E49"/>
<path d="M560.053 360.427C562.507 360.427 564.497 358.437 564.497 355.983C564.497 353.529 562.507 351.54 560.053 351.54C557.599 351.54 555.61 353.529 555.61 355.983C555.61 358.437 557.599 360.427 560.053 360.427Z" fill="#7D9E49"/>
<path d="M96.9132 35.7532C99.5384 35.7532 101.667 33.6251 101.667 30.9999C101.667 28.3747 99.5384 26.2466 96.9132 26.2466C94.288 26.2466 92.1599 28.3747 92.1599 30.9999C92.1599 33.6251 94.288 35.7532 96.9132 35.7532Z" fill="#7D9E49"/>
<path d="M36.7732 34.72C38.8277 34.72 40.4932 33.0545 40.4932 31C40.4932 28.9455 38.8277 27.28 36.7732 27.28C34.7187 27.28 33.0532 28.9455 33.0532 31C33.0532 33.0545 34.7187 34.72 36.7732 34.72Z" fill="#7D9E49"/>
<path d="M881.73 35.1334C884.013 35.1334 885.863 33.2828 885.863 31C885.863 28.7173 884.013 26.8667 881.73 26.8667C879.447 26.8667 877.597 28.7173 877.597 31C877.597 33.2828 879.447 35.1334 881.73 35.1334Z" fill="#7D9E49"/>
<path d="M765.686 542.397C767.513 542.397 768.993 540.916 768.993 539.09C768.993 537.264 767.513 535.783 765.686 535.783C763.86 535.783 762.38 537.264 762.38 539.09C762.38 540.916 763.86 542.397 765.686 542.397Z" fill="#7D9E49"/>
<path d="M1469.59 684.79C1471.88 684.79 1473.73 682.94 1473.73 680.657C1473.73 678.374 1471.88 676.523 1469.59 676.523C1467.31 676.523 1465.46 678.374 1465.46 680.657C1465.46 682.94 1467.31 684.79 1469.59 684.79Z" fill="#7D9E49"/>
<path d="M1116.19 423.46C1118.93 423.46 1121.15 421.239 1121.15 418.5C1121.15 415.761 1118.93 413.54 1116.19 413.54C1113.45 413.54 1111.23 415.761 1111.23 418.5C1111.23 421.239 1113.45 423.46 1116.19 423.46Z" fill="#7D9E49"/>
<path d="M1447.79 856.117C1450.19 856.117 1452.13 854.174 1452.13 851.777C1452.13 849.38 1450.19 847.437 1447.79 847.437C1445.39 847.437 1443.45 849.38 1443.45 851.777C1443.45 854.174 1445.39 856.117 1447.79 856.117Z" fill="#7D9E49"/>
<path d="M1174.27 332.733C1176.66 332.733 1178.61 330.79 1178.61 328.393C1178.61 325.996 1176.66 324.053 1174.27 324.053C1171.87 324.053 1169.93 325.996 1169.93 328.393C1169.93 330.79 1171.87 332.733 1174.27 332.733Z" fill="#7D9E49"/>
<path d="M802.473 35.5467C804.985 35.5467 807.02 33.5111 807.02 31C807.02 28.489 804.985 26.4534 802.473 26.4534C799.962 26.4534 797.927 28.489 797.927 31C797.927 33.5111 799.962 35.5467 802.473 35.5467Z" fill="#7D9E49"/>
<path d="M873.98 703.39C876.605 703.39 878.733 701.262 878.733 698.637C878.733 696.011 876.605 693.883 873.98 693.883C871.355 693.883 869.227 696.011 869.227 698.637C869.227 701.262 871.355 703.39 873.98 703.39Z" fill="#7D9E49"/>
<path d="M1034.66 405.273C1037.35 405.273 1039.52 403.099 1039.52 400.417C1039.52 397.734 1037.35 395.56 1034.66 395.56C1031.98 395.56 1029.81 397.734 1029.81 400.417C1029.81 403.099 1031.98 405.273 1034.66 405.273Z" fill="#7D9E49"/>
<g filter="url(#filter2_f_627_8396)">
<path opacity="0.214" d="M1244.43 482.877C1253.5 482.877 1260.86 475.521 1260.86 466.447C1260.86 457.373 1253.5 450.017 1244.43 450.017C1235.36 450.017 1228 457.373 1228 466.447C1228 475.521 1235.36 482.877 1244.43 482.877Z" fill="#C1CFA1"/>
<path opacity="0.223" d="M757.317 117.697C767.247 117.697 775.297 109.647 775.297 99.7166C775.297 89.7865 767.247 81.7366 757.317 81.7366C747.387 81.7366 739.337 89.7865 739.337 99.7166C739.337 109.647 747.387 117.697 757.317 117.697Z" fill="#C1CFA1"/>
<path opacity="0.219" d="M204.07 48.1533C213.544 48.1533 221.223 40.4735 221.223 31C221.223 21.5265 213.544 13.8467 204.07 13.8467C194.597 13.8467 186.917 21.5265 186.917 31C186.917 40.4735 194.597 48.1533 204.07 48.1533Z" fill="#C1CFA1"/>
<path opacity="0.238" d="M837.504 75.3299C848.917 75.3299 858.17 66.0771 858.17 54.6632C858.17 43.2494 848.917 33.9966 837.504 33.9966C826.09 33.9966 816.837 43.2494 816.837 54.6632C816.837 66.0771 826.09 75.3299 837.504 75.3299Z" fill="#C1CFA1"/>
<path opacity="0.215" d="M1046.13 648.83C1055.32 648.83 1062.77 641.381 1062.77 632.193C1062.77 623.005 1055.32 615.557 1046.13 615.557C1036.95 615.557 1029.5 623.005 1029.5 632.193C1029.5 641.381 1036.95 648.83 1046.13 648.83Z" fill="#C1CFA1"/>
<path opacity="0.201" d="M1133.55 759.5C1141.31 759.5 1147.61 753.208 1147.61 745.447C1147.61 737.685 1141.31 731.393 1133.55 731.393C1125.79 731.393 1119.5 737.685 1119.5 745.447C1119.5 753.208 1125.79 759.5 1133.55 759.5Z" fill="#C1CFA1"/>
</g>
<path d="M1244.43 471.613C1247.28 471.613 1249.6 469.3 1249.6 466.447C1249.6 463.593 1247.28 461.28 1244.43 461.28C1241.58 461.28 1239.26 463.593 1239.26 466.447C1239.26 469.3 1241.58 471.613 1244.43 471.613Z" fill="#C1CFA1"/>
<path d="M757.317 105.09C760.284 105.09 762.69 102.684 762.69 99.7166C762.69 96.749 760.284 94.3433 757.317 94.3433C754.349 94.3433 751.943 96.749 751.943 99.7166C751.943 102.684 754.349 105.09 757.317 105.09Z" fill="#C1CFA1"/>
<path d="M204.07 36.27C206.981 36.27 209.34 33.9105 209.34 31C209.34 28.0894 206.981 25.73 204.07 25.73C201.16 25.73 198.8 28.0894 198.8 31C198.8 33.9105 201.16 36.27 204.07 36.27Z" fill="#C1CFA1"/>
<path d="M837.503 60.5534C840.756 60.5534 843.393 57.9164 843.393 54.6634C843.393 51.4105 840.756 48.7734 837.503 48.7734C834.25 48.7734 831.613 51.4105 831.613 54.6634C831.613 57.9164 834.25 60.5534 837.503 60.5534Z" fill="#C1CFA1"/>
<path d="M1046.13 637.36C1048.99 637.36 1051.3 635.047 1051.3 632.193C1051.3 629.34 1048.99 627.027 1046.13 627.027C1043.28 627.027 1040.97 629.34 1040.97 632.193C1040.97 635.047 1043.28 637.36 1046.13 637.36Z" fill="#C1CFA1"/>
<path d="M1133.55 750.2C1136.18 750.2 1138.31 748.072 1138.31 745.447C1138.31 742.821 1136.18 740.693 1133.55 740.693C1130.93 740.693 1128.8 742.821 1128.8 745.447C1128.8 748.072 1130.93 750.2 1133.55 750.2Z" fill="#C1CFA1"/>
<g opacity="0.92">
<path d="M1244.43 468.513C1245.57 468.513 1246.5 467.588 1246.5 466.447C1246.5 465.305 1245.57 464.38 1244.43 464.38C1243.29 464.38 1242.36 465.305 1242.36 466.447C1242.36 467.588 1243.29 468.513 1244.43 468.513Z" fill="white"/>
<path d="M757.317 101.783C758.458 101.783 759.383 100.858 759.383 99.7166C759.383 98.5752 758.458 97.6499 757.317 97.6499C756.175 97.6499 755.25 98.5752 755.25 99.7166C755.25 100.858 756.175 101.783 757.317 101.783Z" fill="white"/>
<path d="M204.07 33.0667C205.211 33.0667 206.137 32.1414 206.137 31C206.137 29.8586 205.211 28.9333 204.07 28.9333C202.929 28.9333 202.003 29.8586 202.003 31C202.003 32.1414 202.929 33.0667 204.07 33.0667Z" fill="white"/>
<path d="M837.503 56.73C838.645 56.73 839.57 55.8047 839.57 54.6633C839.57 53.522 838.645 52.5967 837.503 52.5967C836.362 52.5967 835.437 53.522 835.437 54.6633C835.437 55.8047 836.362 56.73 837.503 56.73Z" fill="white"/>
<path d="M1046.13 634.26C1047.27 634.26 1048.2 633.335 1048.2 632.193C1048.2 631.052 1047.27 630.127 1046.13 630.127C1044.99 630.127 1044.07 631.052 1044.07 632.193C1044.07 633.335 1044.99 634.26 1046.13 634.26Z" fill="white"/>
<path d="M1133.55 747.513C1134.69 747.513 1135.62 746.588 1135.62 745.447C1135.62 744.305 1134.69 743.38 1133.55 743.38C1132.41 743.38 1131.49 744.305 1131.49 745.447C1131.49 746.588 1132.41 747.513 1133.55 747.513Z" fill="white"/>
</g>
</g>
<defs>
<filter id="filter0_f_627_8396" x="-108" y="26.75" width="1928.99" height="1062.5" filterUnits="userSpaceOnUse" color-interpolation-filters="sRGB">
<feFlood flood-opacity="0" result="BackgroundImageFix"/>
<feBlend mode="normal" in="SourceGraphic" in2="BackgroundImageFix" result="shape"/>
<feGaussianBlur stdDeviation="1.5" result="effect1_foregroundBlur_627_8396"/>
</filter>
<filter id="filter1_f_627_8396" x="-140.47" y="-4.46997" width="1992.22" height="1125.66" filterUnits="userSpaceOnUse" color-interpolation-filters="sRGB">
<feFlood flood-opacity="0" result="BackgroundImageFix"/>
<feBlend mode="normal" in="SourceGraphic" in2="BackgroundImageFix" result="shape"/>
<feGaussianBlur stdDeviation="12" result="effect1_foregroundBlur_627_8396"/>
</filter>
<filter id="filter2_f_627_8396" x="148.917" y="-24.1533" width="1149.94" height="821.653" filterUnits="userSpaceOnUse" color-interpolation-filters="sRGB">
<feFlood flood-opacity="0" result="BackgroundImageFix"/>
<feBlend mode="normal" in="SourceGraphic" in2="BackgroundImageFix" result="shape"/>
<feGaussianBlur stdDeviation="19" result="effect1_foregroundBlur_627_8396"/>
</filter>
<radialGradient id="paint0_radial_627_8396" cx="0" cy="0" r="1" gradientUnits="userSpaceOnUse" gradientTransform="translate(99064 55800) scale(138880 78120)">
<stop stop-opacity="0"/>
<stop offset="1" stop-opacity="0.77"/>
</radialGradient>
<clipPath id="clip0_627_8396">
<rect width="1984" height="1116" fill="white" transform="translate(-136)"/>
</clipPath>
</defs>
</svg>
