<svg width="26" height="35" viewBox="0 0 26 35" fill="none" xmlns="http://www.w3.org/2000/svg">
<path d="M19.44 3.02403V8.68802H25.632V11.328H19.344C19.12 13.44 18.544 15.12 17.616 16.368C16.688 17.616 15.28 18.544 13.392 19.152C11.504 19.728 8.97599 20.016 5.80799 20.016V24.336C5.80799 26.48 6.27199 28.128 7.19999 29.28C8.12799 30.4 9.55199 30.96 11.472 30.96C15.088 30.96 16.896 28.816 16.896 24.528H21.024C20.96 27.632 20.112 30.048 18.48 31.776C16.88 33.472 14.608 34.32 11.664 34.32C8.39999 34.32 5.91999 33.44 4.22399 31.68C2.52799 29.888 1.67999 27.296 1.67999 23.904V17.04C5.39199 17.04 8.15999 16.896 9.98399 16.608C11.808 16.32 13.088 15.792 13.824 15.024C14.592 14.224 15.056 12.992 15.216 11.328H-6.19888e-06V8.68802H15.312V3.02403H-6.19888e-06V2.47955e-05H25.632V3.02403H19.44Z" fill="#77B900"/>
</svg>
